<?xml version="1.0" encoding="UTF-8" standalone="no"?>
<svg
   width="1920"
   height="400"
   viewBox="0 0 508 105.83334"
   version="1.1"
   id="svg2048"
   inkscape:version="1.2.2 (732a01da63, 2022-12-09)"
   sodipodi:docname="logounpais.svg"
   inkscape:export-filename="C:\Users\andre\Dropbox\Unipacifico\logounpaisBig.png"
   inkscape:export-xdpi="96"
   inkscape:export-ydpi="96"
   xmlns:inkscape="http://www.inkscape.org/namespaces/inkscape"
   xmlns:sodipodi="http://sodipodi.sourceforge.net/DTD/sodipodi-0.dtd"
   xmlns="http://www.w3.org/2000/svg"
   xmlns:svg="http://www.w3.org/2000/svg"
   xmlns:rdf="http://www.w3.org/1999/02/22-rdf-syntax-ns#"
   xmlns:cc="http://creativecommons.org/ns#"
   xmlns:dc="http://purl.org/dc/elements/1.1/">
  <defs
     id="defs2042" />
  <sodipodi:namedview
     id="base"
     pagecolor="#ffffff"
     bordercolor="#666666"
     borderopacity="1.0"
     inkscape:pageopacity="0.0"
     inkscape:pageshadow="2"
     inkscape:zoom="0.28854167"
     inkscape:cx="786.7148"
     inkscape:cy="187.14801"
     inkscape:document-units="mm"
     inkscape:current-layer="layer1"
     showgrid="false"
     units="px"
     inkscape:window-width="1920"
     inkscape:window-height="1017"
     inkscape:window-x="1912"
     inkscape:window-y="166"
     inkscape:window-maximized="1"
     inkscape:document-rotation="0"
     inkscape:showpageshadow="2"
     inkscape:pagecheckerboard="0"
     inkscape:deskcolor="#d1d1d1" />
  <metadata
     id="metadata2045">
    <rdf:RDF>
      <cc:Work
         rdf:about="">
        <dc:format>image/svg+xml</dc:format>
        <dc:type
           rdf:resource="http://purl.org/dc/dcmitype/StillImage" />
      </cc:Work>
    </rdf:RDF>
  </metadata>
  <g
     inkscape:label="Layer 1"
     inkscape:groupmode="layer"
     id="layer1"
     transform="translate(0,-11.249939)">
    <g
       id="g1496"
       transform="matrix(1.3300455,0,0,1.3300455,-247.03879,-76.428266)">
      <path
         inkscape:connector-curvature="0"
         d="M 340.93942,101.24124 V 73.65772 h 4.97183 v 27.58352 z"
         style="font-style:normal;font-variant:normal;font-weight:500;font-stretch:normal;font-size:239.129px;line-height:1;font-family:Oswald;-inkscape-font-specification:'Oswald Medium';text-align:end;letter-spacing:0px;word-spacing:0px;text-anchor:end;fill:#082a87;fill-opacity:1;stroke:none;stroke-width:0.142407"
         id="path96833" />
      <path
         inkscape:connector-curvature="0"
         d="M 349.86148,101.24124 V 81.558177 h 4.6313 v 1.975121 q 1.05567,-1.021616 2.21349,-1.634577 1.19189,-0.647018 2.55403,-0.647018 1.22594,0 1.94105,0.612962 0.71513,0.578919 1.05568,1.566466 0.34054,0.987561 0.34054,2.145386 v 15.664723 h -4.6313 V 86.495966 q 0,-0.885393 -0.27243,-1.362145 -0.27244,-0.476753 -1.05566,-0.476753 -0.47677,0 -1.05568,0.272432 -0.54486,0.272432 -1.08972,0.681073 v 15.630667 z"
         style="font-style:normal;font-variant:normal;font-weight:500;font-stretch:normal;font-size:239.129px;line-height:1;font-family:Oswald;-inkscape-font-specification:'Oswald Medium';text-align:end;letter-spacing:0px;word-spacing:0px;text-anchor:end;fill:#082a87;fill-opacity:1;stroke:none;stroke-width:0.142407"
         id="path96835" />
      <path
         inkscape:connector-curvature="0"
         d="m 371.79205,107.71145 q -2.00918,0 -3.54159,-0.40864 -1.53243,-0.40866 -2.38376,-1.25999 -0.85134,-0.85136 -0.85134,-2.2135 0,-0.91945 0.37458,-1.66863 0.40865,-0.71513 1.08972,-1.25998 0.68108,-0.54487 1.46431,-0.919466 -1.12377,-0.306474 -1.73673,-0.987547 -0.57892,-0.681087 -0.57892,-1.634578 0,-1.157839 0.57892,-1.975121 0.57891,-0.817296 1.60051,-1.736745 -1.05566,-0.851338 -1.60051,-2.11133 -0.51082,-1.294035 -0.51082,-3.371323 0,-2.247539 0.71513,-3.779964 0.74919,-1.566466 2.1454,-2.349706 1.43025,-0.783227 3.47346,-0.783227 1.56649,0 2.62215,0.476753 1.05567,0.442697 1.73673,1.362146 0.27243,-0.408655 0.95352,-1.021617 0.68106,-0.612961 1.56647,-1.021616 l 0.61296,-0.272418 1.12378,2.485915 q -0.37461,0.102181 -1.02161,0.340544 -0.61297,0.238376 -1.22594,0.510794 -0.61298,0.272432 -0.95352,0.476753 0.3065,0.681086 0.51082,1.702689 0.20431,1.021616 0.20431,1.941065 0,2.077275 -0.647,3.609699 -0.64704,1.532411 -2.00918,2.383763 -1.32809,0.817282 -3.47349,0.817282 -0.71512,0 -1.3962,-0.102181 -0.68106,-0.136196 -1.25998,-0.306488 -0.20432,0.306488 -0.40864,0.647017 -0.17027,0.340544 -0.17027,0.715129 0,0.374599 0.40863,0.612975 0.40865,0.238376 1.36216,0.34053 l 4.15455,0.408655 q 2.41782,0.238362 3.57566,1.53241 1.15782,1.259988 1.15782,3.439418 0,1.7708 -0.81729,2.96268 -0.78324,1.19189 -2.48593,1.80485 -1.66864,0.61297 -4.35887,0.61297 z m 0.5108,-3.47349 q 1.90701,0 2.86052,-0.37459 0.95349,-0.37458 0.95349,-1.36214 0,-0.54487 -0.23838,-0.88541 -0.23837,-0.34053 -0.85133,-0.54485 -0.61297,-0.23837 -1.73675,-0.34054 l -3.37132,-0.30648 q -0.37459,0.30648 -0.68106,0.64702 -0.27243,0.30649 -0.4427,0.68107 -0.17028,0.37459 -0.17028,0.78324 0,0.85134 0.81729,1.25998 0.81729,0.4427 2.86052,0.4427 z m -0.27244,-12.157173 q 0.61299,0 0.98757,-0.204321 0.37459,-0.238376 0.57892,-0.715129 0.20431,-0.510808 0.27242,-1.259992 0.0682,-0.749184 0.0682,-1.736745 0,-0.987547 -0.0682,-1.736731 -0.0682,-0.749185 -0.27242,-1.259993 -0.17028,-0.510808 -0.54487,-0.749184 -0.37459,-0.238376 -1.02162,-0.238376 -0.61296,0 -1.02159,0.238376 -0.37461,0.238376 -0.57892,0.749184 -0.17028,0.476753 -0.27245,1.225937 -0.0682,0.749184 -0.0682,1.770787 0,0.953505 0.0682,1.702689 0.0682,0.715129 0.27245,1.225937 0.20431,0.476752 0.57892,0.749184 0.40863,0.238377 1.02159,0.238377 z"
         style="font-style:normal;font-variant:normal;font-weight:500;font-stretch:normal;font-size:239.129px;line-height:1;font-family:Oswald;-inkscape-font-specification:'Oswald Medium';text-align:end;letter-spacing:0px;word-spacing:0px;text-anchor:end;fill:#082a87;fill-opacity:1;stroke:none;stroke-width:0.142407"
         id="path96837" />
      <path
         inkscape:connector-curvature="0"
         d="m 387.86538,101.54772 q -2.2135,0 -3.6097,-0.81729 -1.39622,-0.85134 -2.07729,-2.451862 -0.64702,-1.634578 -0.64702,-3.916186 v -5.92535 q 0,-2.349707 0.64702,-3.950229 0.68107,-1.600522 2.07729,-2.417818 1.43024,-0.817282 3.6097,-0.817282 2.34971,0 3.64374,0.885394 1.32809,0.885393 1.87295,2.588083 0.57892,1.668633 0.57892,4.086451 v 2.792403 h -7.83236 v 3.882117 q 0,0.953505 0.17027,1.56648 0.20432,0.612962 0.61297,0.885394 0.40864,0.272432 0.98755,0.272432 0.61296,0 0.98756,-0.272432 0.3746,-0.306488 0.54487,-0.851338 0.17027,-0.578919 0.17027,-1.430257 v -1.634578 h 4.3248 v 1.32809 q 0,2.996724 -1.49834,4.59726 -1.49837,1.600518 -4.5632,1.600518 z m -1.73675,-12.225295 h 3.47349 v -1.872954 q 0,-1.021602 -0.17027,-1.634578 -0.17027,-0.647017 -0.54487,-0.919449 -0.3746,-0.306487 -1.05567,-0.306487 -0.61296,0 -0.98755,0.306487 -0.3746,0.306488 -0.54486,1.021617 -0.17027,0.715128 -0.17027,2.043218 z"
         style="font-style:normal;font-variant:normal;font-weight:500;font-stretch:normal;font-size:239.129px;line-height:1;font-family:Oswald;-inkscape-font-specification:'Oswald Medium';text-align:end;letter-spacing:0px;word-spacing:0px;text-anchor:end;fill:#082a87;fill-opacity:1;stroke:none;stroke-width:0.142407"
         id="path96839" />
      <path
         inkscape:connector-curvature="0"
         d="M 397.0939,101.24124 V 81.558177 h 4.63131 v 1.975121 q 1.05568,-1.021616 2.2135,-1.634577 1.19188,-0.647018 2.55401,-0.647018 1.22596,0 1.94108,0.612962 0.71512,0.578919 1.05566,1.566466 0.34055,0.987561 0.34055,2.145386 v 15.664723 h -4.63132 V 86.495966 q 0,-0.885393 -0.27243,-1.362145 -0.27242,-0.476753 -1.05566,-0.476753 -0.47675,0 -1.05567,0.272432 -0.54487,0.272432 -1.08972,0.681073 v 15.630667 z"
         style="font-style:normal;font-variant:normal;font-weight:500;font-stretch:normal;font-size:239.129px;line-height:1;font-family:Oswald;-inkscape-font-specification:'Oswald Medium';text-align:end;letter-spacing:0px;word-spacing:0px;text-anchor:end;fill:#082a87;fill-opacity:1;stroke:none;stroke-width:0.142407"
         id="path96841" />
      <path
         inkscape:connector-curvature="0"
         d="M 413.37157,101.24124 V 81.558177 h 4.6313 v 19.683063 z m 0,-22.815996 v -3.848075 h 4.6313 v 3.848075 z"
         style="font-style:normal;font-variant:normal;font-weight:500;font-stretch:normal;font-size:239.129px;line-height:1;font-family:Oswald;-inkscape-font-specification:'Oswald Medium';text-align:end;letter-spacing:0px;word-spacing:0px;text-anchor:end;fill:#082a87;fill-opacity:1;stroke:none;stroke-width:0.142407"
         id="path96843" />
      <path
         inkscape:connector-curvature="0"
         d="m 427.64004,101.54772 q -2.2135,0 -3.6097,-0.81729 -1.3962,-0.85134 -2.07727,-2.451862 -0.64703,-1.634578 -0.64703,-3.916186 v -5.92535 q 0,-2.349707 0.64703,-3.950229 0.68107,-1.600522 2.07727,-2.417818 1.43027,-0.817282 3.6097,-0.817282 2.34971,0 3.64374,0.885394 1.32809,0.885393 1.87296,2.588083 0.57892,1.668633 0.57892,4.086451 v 2.792403 h -7.83236 v 3.882117 q 0,0.953505 0.17027,1.56648 0.20431,0.612962 0.61297,0.885394 0.40864,0.272432 0.98754,0.272432 0.61299,0 0.98758,-0.272432 0.37458,-0.306488 0.54485,-0.851338 0.17028,-0.578919 0.17028,-1.430257 v -1.634578 h 4.32482 v 1.32809 q 0,2.996724 -1.49836,4.59726 -1.49837,1.600518 -4.56321,1.600518 z M 425.9033,89.322425 h 3.47349 v -1.872954 q 0,-1.021602 -0.17028,-1.634578 -0.17027,-0.647017 -0.54485,-0.919449 -0.37459,-0.306487 -1.05567,-0.306487 -0.61297,0 -0.98756,0.306487 -0.37459,0.306488 -0.54486,1.021617 -0.17027,0.715128 -0.17027,2.043218 z"
         style="font-style:normal;font-variant:normal;font-weight:500;font-stretch:normal;font-size:239.129px;line-height:1;font-family:Oswald;-inkscape-font-specification:'Oswald Medium';text-align:end;letter-spacing:0px;word-spacing:0px;text-anchor:end;fill:#082a87;fill-opacity:1;stroke:none;stroke-width:0.142407"
         id="path96845" />
      <path
         inkscape:connector-curvature="0"
         d="M 436.97074,101.24124 V 81.558177 h 4.6313 v 3.03078 q 1.02162,-1.736732 2.04324,-2.485916 1.0216,-0.78324 2.24754,-0.78324 0.20433,0 0.34054,0.03401 0.17026,0 0.37458,0.03401 v 4.80158 q -0.40865,-0.170279 -0.91945,-0.272432 -0.47675,-0.136195 -0.98756,-0.136195 -0.91944,0 -1.66863,0.44271 -0.74918,0.442697 -1.43026,1.464299 v 13.553387 z"
         style="font-style:normal;font-variant:normal;font-weight:500;font-stretch:normal;font-size:239.129px;line-height:1;font-family:Oswald;-inkscape-font-specification:'Oswald Medium';text-align:end;letter-spacing:0px;word-spacing:0px;text-anchor:end;fill:#082a87;fill-opacity:1;stroke:none;stroke-width:0.142407"
         id="path96847" />
      <path
         inkscape:connector-curvature="0"
         d="M 449.16193,101.24124 V 81.558177 h 4.6313 v 19.683063 z m 0.91945,-21.590072 2.07727,-6.810744 h 4.66537 l -4.05241,6.810744 z"
         style="font-style:normal;font-variant:normal;font-weight:500;font-stretch:normal;font-size:239.129px;line-height:1;font-family:Oswald;-inkscape-font-specification:'Oswald Medium';text-align:end;letter-spacing:0px;word-spacing:0px;text-anchor:end;fill:#082a87;fill-opacity:1;stroke:none;stroke-width:0.142407"
         id="path96849" />
      <path
         inkscape:connector-curvature="0"
         d="m 461.31905,101.54772 q -1.32809,0 -2.28161,-0.68107 -0.95349,-0.71513 -1.4643,-1.7708 -0.51079,-1.089714 -0.51079,-2.247539 0,-1.838912 0.68105,-3.098891 0.68108,-1.259992 1.80486,-2.11133 1.12377,-0.851352 2.55403,-1.464313 1.43026,-0.647017 2.89457,-1.157826 v -1.702689 q 0,-0.851338 -0.1362,-1.430257 -0.10218,-0.57892 -0.44269,-0.885394 -0.30648,-0.306487 -0.98755,-0.306487 -0.57892,0 -0.95351,0.272432 -0.34054,0.272432 -0.51082,0.78324 -0.13619,0.476752 -0.17026,1.123769 l -0.0682,1.191882 -4.39292,-0.170265 q 0.10218,-3.405379 1.66863,-5.005901 1.60054,-1.634578 4.83562,-1.634578 2.9627,0 4.29079,1.634578 1.36213,1.634578 1.36213,4.426981 v 9.092352 q 0,1.089714 0.034,1.975108 0.0682,0.885393 0.1362,1.600522 0.10218,0.715126 0.17026,1.259996 h -4.15455 q -0.10218,-0.68108 -0.27243,-1.532414 -0.13619,-0.885408 -0.20432,-1.294049 -0.34054,1.191881 -1.29405,2.179443 -0.95349,0.9535 -2.58808,0.9535 z m 1.70269,-3.43943 q 0.44269,0 0.81728,-0.204321 0.40865,-0.238376 0.71513,-0.54485 0.30649,-0.306488 0.44271,-0.544864 v -5.482653 q -0.74919,0.442697 -1.43026,0.885394 -0.64703,0.442696 -1.15782,0.98756 -0.47676,0.510808 -0.74919,1.12377 -0.23837,0.612975 -0.23837,1.430257 0,1.089728 0.40864,1.736745 0.44269,0.612962 1.19188,0.612962 z"
         style="font-style:normal;font-variant:normal;font-weight:500;font-stretch:normal;font-size:239.129px;line-height:1;font-family:Oswald;-inkscape-font-specification:'Oswald Medium';text-align:end;letter-spacing:0px;word-spacing:0px;text-anchor:end;fill:#082a87;fill-opacity:1;stroke:none;stroke-width:0.142407"
         id="path96851" />
      <path
         inkscape:connector-curvature="0"
         d="m 354.09054,127.38795 q -1.79929,0 -2.73805,-1.39786 -0.91269,-1.39786 -0.91269,-4.47886 v -5.04942 q 0,-1.71167 0.33899,-3.081 0.36507,-1.36933 1.14737,-2.16811 0.78231,-0.82731 2.11222,-0.82731 0.80838,0 1.48638,0.37086 0.70407,0.34233 1.27775,0.91289 v -7.64544 h 3.54645 v 23.10749 h -3.54645 v -1.16962 q -0.59976,0.65613 -1.27775,1.05552 -0.678,0.37086 -1.43422,0.37086 z m 1.30384,-2.68161 q 0.28684,0 0.65192,-0.14264 0.36505,-0.14264 0.75621,-0.39939 V 113.5805 q -0.31291,-0.22822 -0.67799,-0.37086 -0.36509,-0.17116 -0.75624,-0.17116 -0.7562,0 -1.06914,0.77025 -0.28683,0.74172 -0.28683,1.82578 v 6.162 q 0,0.82729 0.10438,1.48344 0.10425,0.65613 0.39115,1.05552 0.31291,0.37087 0.88661,0.37087 z"
         style="font-style:normal;font-variant:normal;font-weight:500;font-stretch:normal;font-size:153.12px;line-height:1;font-family:Oswald;-inkscape-font-specification:'Oswald Medium';text-align:end;letter-spacing:0px;word-spacing:0px;text-anchor:end;fill:#082a87;fill-opacity:1;stroke:none;stroke-width:0.178127"
         id="path96864" />
      <path
         inkscape:connector-curvature="0"
         d="m 367.59828,127.38795 q -1.69498,0 -2.76415,-0.68466 -1.06914,-0.7132 -1.59067,-2.054 -0.49547,-1.36934 -0.49547,-3.2807 v -4.96383 q 0,-1.96843 0.49547,-3.30923 0.52153,-1.3408 1.59067,-2.02547 1.09524,-0.68467 2.76415,-0.68467 1.79928,0 2.79021,0.74173 1.01699,0.74172 1.43421,2.1681 0.4433,1.39787 0.4433,3.42334 v 2.33928 h -5.99764 V 122.31 q 0,0.79878 0.13041,1.31228 0.15646,0.5135 0.46938,0.74172 0.31292,0.22823 0.75624,0.22823 0.46937,0 0.75622,-0.22823 0.28684,-0.25674 0.41722,-0.7132 0.13041,-0.48496 0.13041,-1.19816 v -1.36933 h 3.31175 v 1.11259 q 0,2.51044 -1.14739,3.85124 -1.14736,1.34081 -3.49427,1.34081 z m -1.32992,-10.24147 h 2.65983 v -1.56903 q 0,-0.85584 -0.13042,-1.36933 -0.13041,-0.54203 -0.41722,-0.77026 -0.28685,-0.25674 -0.80838,-0.25674 -0.46937,0 -0.75622,0.25674 -0.28685,0.25675 -0.41724,0.85584 -0.13041,0.59908 -0.13041,1.71166 z"
         style="font-style:normal;font-variant:normal;font-weight:500;font-stretch:normal;font-size:153.12px;line-height:1;font-family:Oswald;-inkscape-font-specification:'Oswald Medium';text-align:end;letter-spacing:0px;word-spacing:0px;text-anchor:end;fill:#082a87;fill-opacity:1;stroke:none;stroke-width:0.178127"
         id="path96866" />
      <path
         inkscape:connector-curvature="0"
         d="m 386.55599,127.44501 q -1.90361,0 -3.18137,-0.79878 -1.27775,-0.8273 -1.92966,-2.39633 -0.65192,-1.56903 -0.73017,-3.85126 l 3.31175,-0.71319 q 0.0522,1.34081 0.28685,2.36781 0.26077,1.027 0.75621,1.59754 0.52154,0.54203 1.35601,0.54203 0.93875,0 1.3299,-0.59908 0.39116,-0.62761 0.39116,-1.56903 0,-1.51197 -0.62584,-2.48191 -0.62585,-0.96994 -1.66892,-1.93989 l -2.65982,-2.5675 q -1.12131,-1.05553 -1.79929,-2.33928 -0.65192,-1.31228 -0.65192,-3.22364 0,-2.73867 1.46029,-4.22211 1.4603,-1.48344 3.98975,-1.48344 1.48636,0 2.47728,0.51349 0.99092,0.48498 1.56461,1.36934 0.59977,0.88436 0.8866,2.02547 0.28685,1.11258 0.36509,2.36781 l -3.28568,0.62762 q -0.0522,-1.08407 -0.23468,-1.9399 -0.15648,-0.85583 -0.59978,-1.3408 -0.41722,-0.48497 -1.25169,-0.48497 -0.86052,0 -1.3299,0.62761 -0.44331,0.59908 -0.44331,1.51196 0,1.16964 0.44331,1.9399 0.44331,0.74172 1.27777,1.54049 l 2.63373,2.53897 q 1.30384,1.19818 2.21653,2.82426 0.93875,1.59755 0.93875,3.87978 0,1.65461 -0.67799,2.93836 -0.65192,1.28375 -1.85144,2.02547 -1.17345,0.7132 -2.76413,0.7132 z"
         style="font-style:normal;font-variant:normal;font-weight:500;font-stretch:normal;font-size:153.12px;line-height:1;font-family:Oswald;-inkscape-font-specification:'Oswald Medium';text-align:end;letter-spacing:0px;word-spacing:0px;text-anchor:end;fill:#082a87;fill-opacity:1;stroke:none;stroke-width:0.178127"
         id="path96868" />
      <path
         inkscape:connector-curvature="0"
         d="m 393.77919,127.13119 v -16.48905 h 3.54645 v 16.48905 z m 0,-19.11361 v -3.22363 h 3.54645 v 3.22363 z"
         style="font-style:normal;font-variant:normal;font-weight:500;font-stretch:normal;font-size:153.12px;line-height:1;font-family:Oswald;-inkscape-font-specification:'Oswald Medium';text-align:end;letter-spacing:0px;word-spacing:0px;text-anchor:end;fill:#082a87;fill-opacity:1;stroke:none;stroke-width:0.178127"
         id="path96870" />
      <path
         inkscape:connector-curvature="0"
         d="m 404.23593,127.38795 q -1.90358,0 -3.1292,-1.11258 -1.22561,-1.11259 -1.74713,-3.25217 l 2.63374,-1.11258 q 0.31293,1.3408 0.83446,2.054 0.52154,0.71318 1.35599,0.71318 0.62584,0 0.93876,-0.34233 0.31293,-0.34233 0.31293,-0.94141 0,-0.68467 -0.39115,-1.2267 -0.36508,-0.57054 -1.27776,-1.39785 l -1.82537,-1.68315 q -0.99092,-0.94141 -1.61677,-1.91136 -0.59976,-0.99847 -0.59976,-2.48191 0,-1.34081 0.54761,-2.28223 0.57368,-0.96994 1.53853,-1.48344 0.99091,-0.54203 2.19045,-0.54203 1.82537,0 2.92058,1.19817 1.12132,1.16964 1.43423,3.081 l -2.32083,1.08405 q -0.13041,-0.68467 -0.39115,-1.25521 -0.2347,-0.5991 -0.62586,-0.96995 -0.39115,-0.37087 -0.91267,-0.37087 -0.54762,0 -0.8866,0.37087 -0.31294,0.37085 -0.31294,0.94141 0,0.48498 0.36509,0.99847 0.39115,0.51351 1.0952,1.16964 l 1.85148,1.82578 q 0.59975,0.57056 1.14736,1.2267 0.54763,0.65614 0.91268,1.48345 0.36507,0.79877 0.36507,1.8543 0,1.42639 -0.59974,2.39634 -0.5737,0.96993 -1.5907,1.48344 -0.99091,0.48497 -2.21653,0.48497 z"
         style="font-style:normal;font-variant:normal;font-weight:500;font-stretch:normal;font-size:153.12px;line-height:1;font-family:Oswald;-inkscape-font-specification:'Oswald Medium';text-align:end;letter-spacing:0px;word-spacing:0px;text-anchor:end;fill:#082a87;fill-opacity:1;stroke:none;stroke-width:0.178127"
         id="path96872" />
      <path
         inkscape:connector-curvature="0"
         d="m 414.9274,127.3309 q -1.43422,0 -2.26869,-0.51351 -0.80837,-0.51349 -1.14737,-1.48344 -0.33899,-0.96995 -0.33899,-2.31075 v -9.81356 h -1.51246 v -2.5675 h 1.51246 v -4.93531 h 3.5725 v 4.93531 h 2.29476 v 2.5675 h -2.29476 v 9.47123 q 0,0.85583 0.339,1.22669 0.33899,0.34234 1.01701,0.34234 0.28683,0 0.5476,-0.0285 0.28684,-0.0285 0.5476,-0.057 v 2.96688 q -0.44328,0.057 -1.04307,0.11416 -0.57367,0.0857 -1.22559,0.0857 z"
         style="font-style:normal;font-variant:normal;font-weight:500;font-stretch:normal;font-size:153.12px;line-height:1;font-family:Oswald;-inkscape-font-specification:'Oswald Medium';text-align:end;letter-spacing:0px;word-spacing:0px;text-anchor:end;fill:#082a87;fill-opacity:1;stroke:none;stroke-width:0.178127"
         id="path96874" />
      <path
         inkscape:connector-curvature="0"
         d="m 423.79345,127.38795 q -1.69499,0 -2.76413,-0.68466 -1.06914,-0.7132 -1.59067,-2.054 -0.49547,-1.36934 -0.49547,-3.2807 v -4.96383 q 0,-1.96843 0.49547,-3.30923 0.52153,-1.3408 1.59067,-2.02547 1.09522,-0.68467 2.76413,-0.68467 1.7993,0 2.7902,0.74173 1.01701,0.74172 1.43423,2.1681 0.44331,1.39787 0.44331,3.42334 v 2.33928 h -5.99764 V 122.31 q 0,0.79878 0.13041,1.31228 0.15645,0.5135 0.46937,0.74172 0.31293,0.22823 0.75622,0.22823 0.4694,0 0.75623,-0.22823 0.28684,-0.25674 0.41722,-0.7132 0.13042,-0.48496 0.13042,-1.19816 v -1.36933 h 3.31176 v 1.11259 q 0,2.51044 -1.14739,3.85124 -1.14737,1.34081 -3.49428,1.34081 z m -1.3299,-10.24147 h 2.65981 v -1.56903 q 0,-0.85584 -0.13041,-1.36933 -0.13041,-0.54203 -0.41722,-0.77026 -0.28684,-0.25674 -0.80837,-0.25674 -0.4694,0 -0.75624,0.25674 -0.28683,0.25675 -0.41722,0.85584 -0.13041,0.59908 -0.13041,1.71166 z"
         style="font-style:normal;font-variant:normal;font-weight:500;font-stretch:normal;font-size:153.12px;line-height:1;font-family:Oswald;-inkscape-font-specification:'Oswald Medium';text-align:end;letter-spacing:0px;word-spacing:0px;text-anchor:end;fill:#082a87;fill-opacity:1;stroke:none;stroke-width:0.178127"
         id="path96876" />
      <path
         inkscape:connector-curvature="0"
         d="m 430.86023,127.13119 v -16.48905 h 3.41605 v 1.42639 q 0.7823,-0.9129 1.69499,-1.31228 0.91267,-0.42791 1.85144,-0.42791 0.88661,0 1.53853,0.48496 0.67799,0.48498 0.99092,1.54051 0.86052,-1.08405 1.82537,-1.54051 0.96484,-0.48496 1.98183,-0.48496 0.80837,0 1.43423,0.45644 0.62583,0.42792 0.9909,1.31228 0.36507,0.85583 0.36507,2.16811 v 12.86602 h -3.38997 V 114.6075 q 0,-0.94141 -0.28685,-1.28374 -0.28683,-0.37087 -0.80837,-0.37087 -0.41722,0 -0.93876,0.25675 -0.49546,0.25676 -0.91268,0.7132 0,0.0857 0,0.17116 0,0.057 0,0.17117 v 12.86602 h -3.3639 V 114.6075 q 0,-0.94141 -0.31294,-1.28374 -0.28683,-0.37087 -0.80837,-0.37087 -0.41722,0 -0.91269,0.25675 -0.49545,0.25676 -0.93875,0.7132 v 13.20835 z"
         style="font-style:normal;font-variant:normal;font-weight:500;font-stretch:normal;font-size:153.12px;line-height:1;font-family:Oswald;-inkscape-font-specification:'Oswald Medium';text-align:end;letter-spacing:0px;word-spacing:0px;text-anchor:end;fill:#082a87;fill-opacity:1;stroke:none;stroke-width:0.178127"
         id="path96878" />
      <path
         inkscape:connector-curvature="0"
         d="m 452.50387,127.38795 q -1.01699,0 -1.74713,-0.57056 -0.73017,-0.59908 -1.12132,-1.48344 -0.39114,-0.91289 -0.39114,-1.88284 0,-1.54049 0.52152,-2.59603 0.52154,-1.05552 1.38209,-1.76872 0.86051,-0.71319 1.95574,-1.22669 1.09523,-0.54203 2.21653,-0.96995 v -1.42639 q 0,-0.71319 -0.10425,-1.19816 -0.0782,-0.48497 -0.339,-0.74172 -0.23467,-0.25675 -0.7562,-0.25675 -0.44332,0 -0.73016,0.22822 -0.26076,0.22822 -0.39115,0.65614 -0.10425,0.39939 -0.13041,0.94142 l -0.0522,0.99847 -3.3639,-0.14264 q 0.0782,-2.85278 1.27775,-4.19358 1.22561,-1.36934 3.70289,-1.36934 2.26868,0 3.28567,1.36934 1.04307,1.36933 1.04307,3.7086 v 7.61693 q 0,0.91288 0.026,1.65461 0.0522,0.74172 0.10424,1.3408 0.0782,0.59908 0.13042,1.05552 h -3.18136 q -0.0782,-0.57054 -0.20861,-1.28374 -0.10439,-0.74172 -0.15647,-1.08406 -0.26077,0.99848 -0.99092,1.82578 -0.73014,0.79878 -1.98183,0.79878 z m 1.30383,-2.88131 q 0.33901,0 0.62584,-0.17117 0.31292,-0.19969 0.54762,-0.45644 0.23469,-0.25675 0.339,-0.45644 v -4.59298 q -0.5737,0.37087 -1.09524,0.74172 -0.49543,0.37087 -0.88659,0.82731 -0.36508,0.42792 -0.5737,0.94142 -0.18253,0.5135 -0.18253,1.19817 0,0.91288 0.31292,1.45491 0.339,0.5135 0.91268,0.5135 z"
         style="font-style:normal;font-variant:normal;font-weight:500;font-stretch:normal;font-size:153.12px;line-height:1;font-family:Oswald;-inkscape-font-specification:'Oswald Medium';text-align:end;letter-spacing:0px;word-spacing:0px;text-anchor:end;fill:#082a87;fill-opacity:1;stroke:none;stroke-width:0.178127"
         id="path96880" />
      <path
         inkscape:connector-curvature="0"
         d="m 465.464,127.38795 q -1.9036,0 -3.12922,-1.11258 -1.22559,-1.11259 -1.74712,-3.25217 l 2.63374,-1.11258 q 0.31291,1.3408 0.83444,2.054 0.52154,0.71318 1.35601,0.71318 0.62585,0 0.93875,-0.34233 0.31292,-0.34233 0.31292,-0.94141 0,-0.68467 -0.39115,-1.2267 -0.36505,-0.57054 -1.27774,-1.39785 l -1.82538,-1.68315 q -0.99092,-0.94141 -1.61677,-1.91136 -0.59975,-0.99847 -0.59975,-2.48191 0,-1.34081 0.54761,-2.28223 0.57368,-0.96994 1.53853,-1.48344 0.99091,-0.54203 2.19043,-0.54203 1.82537,0 2.92061,1.19817 1.12128,1.16964 1.43421,3.081 l -2.32083,1.08405 q -0.13041,-0.68467 -0.39115,-1.25521 -0.23469,-0.5991 -0.62584,-0.96995 -0.39115,-0.37087 -0.91269,-0.37087 -0.54761,0 -0.88661,0.37087 -0.31291,0.37085 -0.31291,0.94141 0,0.48498 0.36507,0.99847 0.39115,0.51351 1.09522,1.16964 l 1.85145,1.82578 q 0.59977,0.57056 1.14737,1.2267 0.54762,0.65614 0.91269,1.48345 0.36508,0.79877 0.36508,1.8543 0,1.42639 -0.59978,2.39634 -0.57368,0.96993 -1.59068,1.48344 -0.99091,0.48497 -2.21651,0.48497 z"
         style="font-style:normal;font-variant:normal;font-weight:500;font-stretch:normal;font-size:153.12px;line-height:1;font-family:Oswald;-inkscape-font-specification:'Oswald Medium';text-align:end;letter-spacing:0px;word-spacing:0px;text-anchor:end;fill:#082a87;fill-opacity:1;stroke:none;stroke-width:0.178127"
         id="path96882" />
      <g
         id="g3163">
        <text
           xml:space="preserve"
           style="font-style:normal;font-variant:normal;font-weight:bold;font-stretch:normal;font-size:202.24px;line-height:1.25;font-family:sans-serif;-inkscape-font-specification:'sans-serif Bold';letter-spacing:0px;word-spacing:0px;fill:#429c63;fill-opacity:1;stroke:none;stroke-width:1.05333"
           x="304.54901"
           y="125.75971"
           id="text6008-4-3-1-6"><tspan
             sodipodi:role="line"
             id="tspan6006-0-1-8-0"
             x="304.54901"
             y="125.75971"
             style="font-style:normal;font-variant:normal;font-weight:bold;font-stretch:normal;font-size:67.413px;font-family:Oswald;-inkscape-font-specification:'Oswald Bold';fill:#429c63;fill-opacity:1;stroke-width:1.05333">&gt;</tspan></text>
        <text
           xml:space="preserve"
           style="font-style:normal;font-variant:normal;font-weight:bold;font-stretch:normal;font-size:202.24px;line-height:1.25;font-family:sans-serif;-inkscape-font-specification:'sans-serif Bold';letter-spacing:0px;word-spacing:0px;fill:#007fb2;fill-opacity:1;stroke:none;stroke-width:1.05333"
           x="265.31079"
           y="125.75971"
           id="text6012-7-5-9-1"><tspan
             sodipodi:role="line"
             id="tspan6010-6-1-3-6"
             x="265.31079"
             y="125.75971"
             style="font-style:normal;font-variant:normal;font-weight:bold;font-stretch:normal;font-size:67.413px;font-family:Oswald;-inkscape-font-specification:'Oswald Bold';fill:#007fb2;fill-opacity:1;stroke-width:1.05333">&lt;</tspan></text>
        <text
           xml:space="preserve"
           style="font-style:normal;font-variant:normal;font-weight:bold;font-stretch:normal;font-size:202.24px;line-height:1.25;font-family:sans-serif;-inkscape-font-specification:'sans-serif Bold';letter-spacing:0px;word-spacing:0px;fill:#f3d417;fill-opacity:1;stroke:none;stroke-width:1.05333"
           x="284.01978"
           y="127.44507"
           id="text6016-2-4-2-7"><tspan
             sodipodi:role="line"
             id="tspan6014-6-8-4-9"
             x="284.01978"
             y="127.44507"
             style="font-style:normal;font-variant:normal;font-weight:bold;font-stretch:normal;font-size:67.413px;font-family:Oswald;-inkscape-font-specification:'Oswald Bold';fill:#f3d417;fill-opacity:1;stroke-width:1.05333">/</tspan></text>
      </g>
      <rect
         ry="0"
         y="80.961815"
         x="478.17038"
         height="7.8450394"
         width="7.8450394"
         id="rect6018-5-0-5-8"
         style="fill:#f3d417;fill-opacity:1;stroke:none;stroke-width:3.42811;stroke-linecap:round;stroke-miterlimit:4;stroke-dasharray:none;stroke-dashoffset:0;stroke-opacity:1" />
      <rect
         ry="0"
         y="93.613258"
         x="478.17038"
         height="7.8450394"
         width="7.8450394"
         id="rect6020-0-1-0-2"
         style="fill:#429c63;fill-opacity:1;stroke:none;stroke-width:3.42811;stroke-linecap:round;stroke-miterlimit:4;stroke-dasharray:none;stroke-dashoffset:0;stroke-opacity:1" />
      <rect
         ry="0"
         y="106.26466"
         x="478.17038"
         height="7.8450394"
         width="7.8450394"
         id="rect6022-2-5-6-9"
         style="fill:#007fb2;fill-opacity:1;stroke:none;stroke-width:3.42811;stroke-linecap:round;stroke-miterlimit:4;stroke-dasharray:none;stroke-dashoffset:0;stroke-opacity:1" />
      <rect
         ry="0"
         y="118.91613"
         x="478.17038"
         height="7.8450394"
         width="7.8450394"
         id="rect6024-2-3-1-2"
         style="fill:#00b29e;fill-opacity:1;stroke:none;stroke-width:3.42811;stroke-linecap:round;stroke-miterlimit:4;stroke-dasharray:none;stroke-dashoffset:0;stroke-opacity:1" />
      <path
         inkscape:connector-curvature="0"
         d="m 387.77277,138.19309 q -0.60672,0 -0.9775,-0.19381 -0.36234,-0.20225 -0.5393,-0.65728 -0.16853,-0.45504 -0.16853,-1.25557 v -3.87627 h 0.7584 v 3.87627 q 0,0.90164 0.22751,1.25557 0.22753,0.34549 0.69942,0.34549 0.47189,0 0.69941,-0.34549 0.22753,-0.35393 0.22753,-1.25557 v -3.87627 h 0.7584 v 3.87627 q 0,0.80053 -0.17696,1.25557 -0.16854,0.45503 -0.53932,0.65728 -0.36234,0.19381 -0.96906,0.19381 z"
         style="font-style:normal;font-variant:normal;font-weight:normal;font-stretch:normal;font-size:6.11913px;line-height:1.25;font-family:Cuprum;-inkscape-font-specification:Cuprum;letter-spacing:0px;word-spacing:0px;fill:#171219;fill-opacity:1;stroke:none;stroke-width:0.26061"
         id="path96895" />
      <path
         inkscape:connector-curvature="0"
         d="m 390.55356,138.10882 v -5.89866 h 0.84266 l 1.72747,4.1712 h 0.0421 v -4.1712 h 0.75839 v 5.89866 h -0.84266 l -1.72747,-4.17119 h -0.0421 v 4.17119 z"
         style="font-style:normal;font-variant:normal;font-weight:normal;font-stretch:normal;font-size:6.11913px;line-height:1.25;font-family:Cuprum;-inkscape-font-specification:Cuprum;letter-spacing:0px;word-spacing:0px;fill:#171219;fill-opacity:1;stroke:none;stroke-width:0.26061"
         id="path96897" />
      <path
         inkscape:connector-curvature="0"
         d="m 395.10395,138.10882 v -5.89866 h 0.75839 v 5.89866 z"
         style="font-style:normal;font-variant:normal;font-weight:normal;font-stretch:normal;font-size:6.11913px;line-height:1.25;font-family:Cuprum;-inkscape-font-specification:Cuprum;letter-spacing:0px;word-spacing:0px;fill:#171219;fill-opacity:1;stroke:none;stroke-width:0.26061"
         id="path96899" />
      <path
         inkscape:connector-curvature="0"
         d="m 397.96901,138.10882 -1.34827,-5.89866 h 0.7584 l 1.12075,5.09813 h 0.0337 l 1.12075,-5.09813 h 0.7584 l -1.34826,5.89866 z"
         style="font-style:normal;font-variant:normal;font-weight:normal;font-stretch:normal;font-size:6.11913px;line-height:1.25;font-family:Cuprum;-inkscape-font-specification:Cuprum;letter-spacing:0px;word-spacing:0px;fill:#171219;fill-opacity:1;stroke:none;stroke-width:0.26061"
         id="path96901" />
      <path
         inkscape:connector-curvature="0"
         d="m 401.17114,138.10882 v -5.89866 h 2.86506 v 0.58987 h -2.10667 v 1.93813 h 1.85387 v 0.58987 h -1.85387 v 2.19093 h 2.10667 v 0.58986 z"
         style="font-style:normal;font-variant:normal;font-weight:normal;font-stretch:normal;font-size:6.11913px;line-height:1.25;font-family:Cuprum;-inkscape-font-specification:Cuprum;letter-spacing:0px;word-spacing:0px;fill:#171219;fill-opacity:1;stroke:none;stroke-width:0.26061"
         id="path96903" />
      <path
         inkscape:connector-curvature="0"
         d="m 404.96312,132.29443 q 0.56459,-0.16853 1.34827,-0.16853 0.69099,0 1.08704,0.19381 0.40448,0.18539 0.58144,0.62357 0.18539,0.43819 0.18539,1.20501 0,0.82581 -0.21067,1.264 -0.20224,0.42976 -0.632,0.58987 l 1.01119,2.10666 h -0.84266 l -0.92692,-1.93813 h -0.84268 v 1.93813 h -0.7584 z m 1.34827,3.28639 q 0.58144,0 0.83425,-0.31178 0.26122,-0.32021 0.26122,-1.12075 0,-0.56458 -0.11802,-0.8848 -0.10948,-0.32021 -0.34549,-0.45503 -0.23595,-0.13482 -0.632,-0.13482 h -0.58987 v 2.9072 z"
         style="font-style:normal;font-variant:normal;font-weight:normal;font-stretch:normal;font-size:6.11913px;line-height:1.25;font-family:Cuprum;-inkscape-font-specification:Cuprum;letter-spacing:0px;word-spacing:0px;fill:#171219;fill-opacity:1;stroke:none;stroke-width:0.26061"
         id="path96905" />
      <path
         inkscape:connector-curvature="0"
         d="m 410.18765,138.19309 q -0.35393,0 -0.70784,-0.0505 -0.35392,-0.0505 -0.55616,-0.11802 v -0.3792 h 1.09546 q 0.70784,0 1.00278,-0.2528 0.30336,-0.2528 0.30336,-0.80053 0,-0.31179 -0.13482,-0.51403 -0.13482,-0.21067 -0.33706,-0.33707 -0.20224,-0.12642 -0.56458,-0.29494 -0.4382,-0.19381 -0.71628,-0.37919 -0.26965,-0.18539 -0.46346,-0.53088 -0.18538,-0.3455 -0.18538,-0.89323 0,-0.76682 0.38762,-1.13759 0.39606,-0.3792 1.21344,-0.3792 0.35392,0 0.70784,0.0505 0.35391,0.0505 0.55616,0.11802 v 0.3792 h -1.09546 q -0.5056,0 -0.75841,0.24436 -0.2528,0.24438 -0.2528,0.7247 0,0.33708 0.14325,0.56459 0.14326,0.21909 0.35393,0.35393 0.21909,0.13481 0.58144,0.30334 0.43818,0.21067 0.69099,0.38763 0.26122,0.17697 0.4466,0.5056 0.18539,0.32022 0.18539,0.83425 0,0.83423 -0.43818,1.22186 -0.42977,0.3792 -1.45781,0.3792 z"
         style="font-style:normal;font-variant:normal;font-weight:normal;font-stretch:normal;font-size:6.11913px;line-height:1.25;font-family:Cuprum;-inkscape-font-specification:Cuprum;letter-spacing:0px;word-spacing:0px;fill:#171219;fill-opacity:1;stroke:none;stroke-width:0.26061"
         id="path96907" />
      <path
         inkscape:connector-curvature="0"
         d="m 412.96845,138.10882 v -5.89866 h 0.75839 v 5.89866 z"
         style="font-style:normal;font-variant:normal;font-weight:normal;font-stretch:normal;font-size:6.11913px;line-height:1.25;font-family:Cuprum;-inkscape-font-specification:Cuprum;letter-spacing:0px;word-spacing:0px;fill:#171219;fill-opacity:1;stroke:none;stroke-width:0.26061"
         id="path96909" />
      <path
         inkscape:connector-curvature="0"
         d="m 416.25484,138.19309 q -0.78368,0 -1.34828,-0.16853 v -5.73013 q 0.5646,-0.16853 1.34828,-0.16853 0.70783,0 1.14603,0.27808 0.43818,0.26965 0.65727,0.93535 0.2191,0.65728 0.2191,1.82016 0,1.16288 -0.2191,1.82858 -0.21909,0.65729 -0.65727,0.93537 -0.4382,0.26965 -1.14603,0.26965 z m 0,-0.54773 q 0.40447,0 0.68256,-0.2191 0.27808,-0.21909 0.42976,-0.76682 0.15168,-0.54773 0.15168,-1.49995 0,-0.95221 -0.15168,-1.49994 -0.15168,-0.54774 -0.42976,-0.76683 -0.27809,-0.21909 -0.68256,-0.21909 h -0.58986 v 4.97173 z"
         style="font-style:normal;font-variant:normal;font-weight:normal;font-stretch:normal;font-size:6.11913px;line-height:1.25;font-family:Cuprum;-inkscape-font-specification:Cuprum;letter-spacing:0px;word-spacing:0px;fill:#171219;fill-opacity:1;stroke:none;stroke-width:0.26061"
         id="path96911" />
      <path
         inkscape:connector-curvature="0"
         d="m 418.69855,138.10882 1.43253,-5.89866 h 1.09547 l 1.43253,5.89866 h -0.7584 l -0.3792,-1.51679 h -1.68533 l -0.3792,1.51679 z m 1.264,-2.10666 h 1.43253 l -0.6994,-2.94934 h -0.0337 z"
         style="font-style:normal;font-variant:normal;font-weight:normal;font-stretch:normal;font-size:6.11913px;line-height:1.25;font-family:Cuprum;-inkscape-font-specification:Cuprum;letter-spacing:0px;word-spacing:0px;fill:#171219;fill-opacity:1;stroke:none;stroke-width:0.26061"
         id="path96913" />
      <path
         inkscape:connector-curvature="0"
         d="m 424.76574,138.19309 q -0.78368,0 -1.34828,-0.16853 v -5.73013 q 0.5646,-0.16853 1.34828,-0.16853 0.70783,0 1.14603,0.27808 0.43818,0.26965 0.65727,0.93535 0.2191,0.65728 0.2191,1.82016 0,1.16288 -0.2191,1.82858 -0.21909,0.65729 -0.65727,0.93537 -0.4382,0.26965 -1.14603,0.26965 z m 0,-0.54773 q 0.40447,0 0.68255,-0.2191 0.27809,-0.21909 0.42976,-0.76682 0.15168,-0.54773 0.15168,-1.49995 0,-0.95221 -0.15168,-1.49994 -0.15167,-0.54774 -0.42976,-0.76683 -0.27808,-0.21909 -0.68255,-0.21909 h -0.58987 v 4.97173 z"
         style="font-style:normal;font-variant:normal;font-weight:normal;font-stretch:normal;font-size:6.11913px;line-height:1.25;font-family:Cuprum;-inkscape-font-specification:Cuprum;letter-spacing:0px;word-spacing:0px;fill:#171219;fill-opacity:1;stroke:none;stroke-width:0.26061"
         id="path96915" />
      <path
         inkscape:connector-curvature="0"
         d="m 431.25424,138.19309 q -0.78368,0 -1.34828,-0.16853 v -5.73013 q 0.5646,-0.16853 1.34828,-0.16853 0.70783,0 1.14603,0.27808 0.43818,0.26965 0.65727,0.93535 0.2191,0.65728 0.2191,1.82016 0,1.16288 -0.2191,1.82858 -0.21909,0.65729 -0.65727,0.93537 -0.4382,0.26965 -1.14603,0.26965 z m 0,-0.54773 q 0.40447,0 0.68255,-0.2191 0.27809,-0.21909 0.42977,-0.76682 0.15167,-0.54773 0.15167,-1.49995 0,-0.95221 -0.15167,-1.49994 -0.15168,-0.54774 -0.42977,-0.76683 -0.27808,-0.21909 -0.68255,-0.21909 h -0.58986 v 4.97173 z"
         style="font-style:normal;font-variant:normal;font-weight:normal;font-stretch:normal;font-size:6.11913px;line-height:1.25;font-family:Cuprum;-inkscape-font-specification:Cuprum;letter-spacing:0px;word-spacing:0px;fill:#171219;fill-opacity:1;stroke:none;stroke-width:0.26061"
         id="path96917" />
      <path
         inkscape:connector-curvature="0"
         d="m 434.28782,138.10882 v -5.89866 h 2.86507 v 0.58987 h -2.10666 v 1.93813 h 1.85387 v 0.58987 h -1.85387 v 2.19093 h 2.10666 v 0.58986 z"
         style="font-style:normal;font-variant:normal;font-weight:normal;font-stretch:normal;font-size:6.11913px;line-height:1.25;font-family:Cuprum;-inkscape-font-specification:Cuprum;letter-spacing:0px;word-spacing:0px;fill:#171219;fill-opacity:1;stroke:none;stroke-width:0.26061"
         id="path96919" />
      <path
         inkscape:connector-curvature="0"
         d="m 438.07982,138.10882 v -5.89866 h 0.7584 v 5.3088 h 2.10666 v 0.58986 z"
         style="font-style:normal;font-variant:normal;font-weight:normal;font-stretch:normal;font-size:6.11913px;line-height:1.25;font-family:Cuprum;-inkscape-font-specification:Cuprum;letter-spacing:0px;word-spacing:0px;fill:#171219;fill-opacity:1;stroke:none;stroke-width:0.26061"
         id="path96921" />
      <path
         inkscape:connector-curvature="0"
         d="m 443.72564,132.29443 q 0.56459,-0.16853 1.34827,-0.16853 0.69099,0 1.08704,0.19381 0.40448,0.19381 0.58144,0.64885 0.18539,0.45504 0.18539,1.264 0,0.81738 -0.16853,1.28928 -0.16855,0.46347 -0.52246,0.66571 -0.3455,0.19381 -0.91009,0.19381 -0.18538,0 -0.42975,-0.0253 -0.24438,-0.0253 -0.41291,-0.0589 v 1.81173 h -0.7584 z m 1.34827,3.49706 q 0.39605,0 0.63199,-0.13481 0.23595,-0.14325 0.3455,-0.48032 0.11802,-0.33706 0.11802,-0.94379 0,-0.60672 -0.11802,-0.94378 -0.10961,-0.33707 -0.3455,-0.47189 -0.23594,-0.14326 -0.63199,-0.14326 h -0.58987 v 3.11787 z"
         style="font-style:normal;font-variant:normal;font-weight:normal;font-stretch:normal;font-size:6.11913px;line-height:1.25;font-family:Cuprum;-inkscape-font-specification:Cuprum;letter-spacing:0px;word-spacing:0px;fill:#171219;fill-opacity:1;stroke:none;stroke-width:0.26061"
         id="path96923" />
      <path
         inkscape:connector-curvature="0"
         d="m 447.18057,138.10882 1.43253,-5.89866 h 1.09547 l 1.43253,5.89866 h -0.7584 l -0.3792,-1.51679 h -1.68533 l -0.3792,1.51679 z m 1.264,-2.10666 h 1.43253 l -0.69942,-2.94934 h -0.0337 z"
         style="font-style:normal;font-variant:normal;font-weight:normal;font-stretch:normal;font-size:6.11913px;line-height:1.25;font-family:Cuprum;-inkscape-font-specification:Cuprum;letter-spacing:0px;word-spacing:0px;fill:#171219;fill-opacity:1;stroke:none;stroke-width:0.26061"
         id="path96925" />
      <path
         inkscape:connector-curvature="0"
         d="m 453.41628,138.19309 q -0.62358,0 -1.02805,-0.26965 -0.40448,-0.27808 -0.61515,-0.94378 -0.21067,-0.66572 -0.21067,-1.82017 0,-1.14603 0.21067,-1.81173 0.21067,-0.66571 0.58987,-0.94378 0.38762,-0.27808 0.96906,-0.27808 0.35392,0 0.70785,0.0505 0.35391,0.0505 0.55615,0.11802 v 0.37919 h -1.09547 q -0.56458,0 -0.87637,0.54773 -0.30336,0.54774 -0.30336,1.93813 0,0.95223 0.15168,1.49996 0.15168,0.54772 0.42976,0.76682 0.27807,0.2191 0.68256,0.2191 h 1.09547 v 0.3792 q -0.20224,0.0675 -0.55616,0.11801 -0.3455,0.0505 -0.70784,0.0505 z"
         style="font-style:normal;font-variant:normal;font-weight:normal;font-stretch:normal;font-size:6.11913px;line-height:1.25;font-family:Cuprum;-inkscape-font-specification:Cuprum;letter-spacing:0px;word-spacing:0px;fill:#171219;fill-opacity:1;stroke:none;stroke-width:0.26061"
         id="path96927" />
      <path
         inkscape:connector-curvature="0"
         d="m 455.52294,131.78882 0.29493,-1.09547 h 0.80054 l -0.58987,1.09547 z m -0.12642,6.32 v -5.89866 h 0.75841 v 5.89866 z"
         style="font-style:normal;font-variant:normal;font-weight:normal;font-stretch:normal;font-size:6.11913px;line-height:1.25;font-family:Cuprum;-inkscape-font-specification:Cuprum;letter-spacing:0px;word-spacing:0px;fill:#171219;fill-opacity:1;stroke:none;stroke-width:0.26061"
         id="path96929" />
      <path
         inkscape:connector-curvature="0"
         d="m 457.33467,138.10882 v -5.89866 h 2.86506 v 0.58987 h -2.10667 v 2.06452 h 1.76961 v 0.58987 h -1.76961 v 2.6544 z"
         style="font-style:normal;font-variant:normal;font-weight:normal;font-stretch:normal;font-size:6.11913px;line-height:1.25;font-family:Cuprum;-inkscape-font-specification:Cuprum;letter-spacing:0px;word-spacing:0px;fill:#171219;fill-opacity:1;stroke:none;stroke-width:0.26061"
         id="path96931" />
      <path
         inkscape:connector-curvature="0"
         d="m 460.95812,138.10882 v -5.89866 h 0.7584 v 5.89866 z"
         style="font-style:normal;font-variant:normal;font-weight:normal;font-stretch:normal;font-size:6.11913px;line-height:1.25;font-family:Cuprum;-inkscape-font-specification:Cuprum;letter-spacing:0px;word-spacing:0px;fill:#171219;fill-opacity:1;stroke:none;stroke-width:0.26061"
         id="path96933" />
      <path
         inkscape:connector-curvature="0"
         d="m 464.58158,138.19309 q -0.62358,0 -1.02805,-0.26965 -0.40448,-0.27808 -0.61515,-0.94378 -0.21067,-0.66572 -0.21067,-1.82017 0,-1.14603 0.21067,-1.81173 0.21067,-0.66571 0.58987,-0.94378 0.38763,-0.27808 0.96906,-0.27808 0.35392,0 0.70785,0.0505 0.35391,0.0505 0.55615,0.11802 v 0.37919 h -1.09547 q -0.56458,0 -0.87637,0.54773 -0.30336,0.54774 -0.30336,1.93813 0,0.95223 0.15169,1.49996 0.15167,0.54772 0.42975,0.76682 0.27808,0.2191 0.68256,0.2191 h 1.09547 v 0.3792 q -0.20224,0.0675 -0.55616,0.11801 -0.3455,0.0505 -0.70784,0.0505 z"
         style="font-style:normal;font-variant:normal;font-weight:normal;font-stretch:normal;font-size:6.11913px;line-height:1.25;font-family:Cuprum;-inkscape-font-specification:Cuprum;letter-spacing:0px;word-spacing:0px;fill:#171219;fill-opacity:1;stroke:none;stroke-width:0.26061"
         id="path96935" />
      <path
         inkscape:connector-curvature="0"
         d="m 468.03651,138.19309 q -0.5983,0 -0.99435,-0.26965 -0.39606,-0.27808 -0.60673,-0.94378 -0.21067,-0.67414 -0.21067,-1.82017 0,-1.14603 0.21067,-1.81173 0.21067,-0.67413 0.60673,-0.94378 0.39605,-0.27808 0.99435,-0.27808 0.59829,0 0.99433,0.27808 0.39606,0.26965 0.60673,0.94378 0.21066,0.6657 0.21066,1.81173 0,1.14603 -0.21066,1.82017 -0.21067,0.6657 -0.60673,0.94378 -0.39604,0.26965 -0.99433,0.26965 z m 0,-0.5056 q 1.05333,0 1.05333,-2.528 0,-2.528 -1.05333,-2.528 -1.05333,0 -1.05333,2.528 0,2.528 1.05333,2.528 z"
         style="font-style:normal;font-variant:normal;font-weight:normal;font-stretch:normal;font-size:6.11913px;line-height:1.25;font-family:Cuprum;-inkscape-font-specification:Cuprum;letter-spacing:0px;word-spacing:0px;fill:#171219;fill-opacity:1;stroke:none;stroke-width:0.26061"
         id="path96937" />
    </g>
  </g>
</svg>
