<?xml version="1.0" encoding="UTF-8" standalone="no"?>
<!-- Created with Inkscape (http://www.inkscape.org/) -->

<svg
   width="800"
   height="800"
   viewBox="0 0 211.66666 211.66667"
   version="1.1"
   id="svg5374"
   xmlns:xlink="http://www.w3.org/1999/xlink"
   xmlns="http://www.w3.org/2000/svg"
   xmlns:svg="http://www.w3.org/2000/svg">
  <defs
     id="defs5371">
    <radialGradient
       xlink:href="#linearGradient147578"
       id="radialGradient147580"
       cx="230.65123"
       cy="38.24025"
       fx="230.65123"
       fy="38.24025"
       r="27.410254"
       gradientUnits="userSpaceOnUse"
       gradientTransform="matrix(0.96616642,1.5913331,-1.7602171,1.0687035,-49.604881,-302.49825)" />
    <linearGradient
       id="linearGradient147578">
      <stop
         style="stop-color:#00041e;stop-opacity:0.58936173;"
         offset="0"
         id="stop147574" />
      <stop
         style="stop-color:#00041e;stop-opacity:1;"
         offset="1"
         id="stop147576" />
    </linearGradient>
    <radialGradient
       xlink:href="#linearGradient101919"
       id="radialGradient101921"
       cx="223.15341"
       cy="55.722904"
       fx="223.15341"
       fy="55.722904"
       r="17.131414"
       gradientTransform="matrix(-3.0822201,6.0264769,-3.4604446,-1.7698323,979.94293,-1136.4595)"
       gradientUnits="userSpaceOnUse" />
    <linearGradient
       id="linearGradient101919">
      <stop
         style="stop-color:#991515;stop-opacity:1;"
         offset="0"
         id="stop101915" />
      <stop
         style="stop-color:#06071d;stop-opacity:1;"
         offset="1"
         id="stop101917" />
    </linearGradient>
    <rect
       x="859.11908"
       y="-150.27496"
       width="62.378273"
       height="19.847641"
       id="rect63530" />
    <rect
       x="859.11908"
       y="-150.27496"
       width="62.378273"
       height="19.847641"
       id="rect63530-3" />
    <rect
       x="859.11908"
       y="-150.27496"
       width="75.410217"
       height="18.845184"
       id="rect63530-1" />
    <rect
       x="859.11908"
       y="-150.27496"
       width="134.55518"
       height="39.896782"
       id="rect63530-3-7" />
    <rect
       x="859.11908"
       y="-150.27496"
       width="134.55518"
       height="39.896782"
       id="rect63530-3-7-8" />
    <rect
       x="859.11908"
       y="-150.27496"
       width="134.55518"
       height="39.896782"
       id="rect63530-3-7-8-7" />
    <rect
       x="859.11908"
       y="-150.27496"
       width="62.378273"
       height="19.847641"
       id="rect63530-5" />
    <rect
       x="859.11908"
       y="-150.27496"
       width="62.378273"
       height="19.847641"
       id="rect63530-3-0" />
    <rect
       x="859.11908"
       y="-150.27496"
       width="62.378273"
       height="19.847641"
       id="rect63530-1-1" />
    <rect
       x="859.11908"
       y="-150.27496"
       width="134.55518"
       height="39.896782"
       id="rect63530-3-7-4" />
    <rect
       x="859.11908"
       y="-150.27496"
       width="90.447067"
       height="19.847641"
       id="rect63530-7" />
    <rect
       x="859.11908"
       y="-150.27496"
       width="93.454437"
       height="21.852554"
       id="rect63530-3-2" />
    <rect
       x="859.11908"
       y="-150.27496"
       width="84.432327"
       height="20.850098"
       id="rect63530-1-9" />
    <rect
       x="859.11908"
       y="-150.27496"
       width="134.55518"
       height="39.896782"
       id="rect63530-3-7-2" />
    <rect
       x="859.11908"
       y="-150.27496"
       width="134.55518"
       height="39.896782"
       id="rect63530-3-7-8-4" />
    <rect
       x="859.11908"
       y="-150.27496"
       width="134.55518"
       height="39.896782"
       id="rect63530-3-7-8-7-7" />
    <rect
       x="859.11908"
       y="-150.27496"
       width="134.55518"
       height="39.896782"
       id="rect63530-3-7-8-7-7-85" />
    <rect
       x="859.11908"
       y="-150.27496"
       width="134.55518"
       height="39.896782"
       id="rect63530-3-7-8-7-7-85-4" />
    <rect
       x="859.11908"
       y="-150.27496"
       width="134.55518"
       height="39.896782"
       id="rect63530-3-7-8-7-7-85-1" />
    <rect
       x="859.11908"
       y="-150.27496"
       width="134.55518"
       height="39.896782"
       id="rect63530-3-7-8-7-7-85-5" />
    <rect
       x="859.11908"
       y="-150.27496"
       width="90.447067"
       height="19.847641"
       id="rect63530-7-6" />
    <rect
       x="859.11908"
       y="-150.27496"
       width="93.454437"
       height="21.852554"
       id="rect63530-3-2-0" />
    <rect
       x="859.11908"
       y="-150.27496"
       width="84.432327"
       height="20.850098"
       id="rect63530-1-9-62" />
    <rect
       x="859.11908"
       y="-150.27496"
       width="134.55518"
       height="39.896782"
       id="rect63530-3-7-2-6" />
    <rect
       x="859.11908"
       y="-150.27496"
       width="134.55518"
       height="39.896782"
       id="rect63530-3-7-8-4-3" />
    <rect
       x="859.11908"
       y="-150.27496"
       width="134.55518"
       height="39.896782"
       id="rect63530-3-7-8-7-7-6" />
    <rect
       x="859.11908"
       y="-150.27496"
       width="90.447067"
       height="19.847641"
       id="rect63530-7-0" />
    <rect
       x="859.11908"
       y="-150.27496"
       width="93.454437"
       height="21.852554"
       id="rect63530-3-2-7" />
    <rect
       x="859.11908"
       y="-150.27496"
       width="84.432327"
       height="20.850098"
       id="rect63530-1-9-6" />
    <rect
       x="859.11908"
       y="-150.27496"
       width="134.55518"
       height="39.896782"
       id="rect63530-3-7-2-2" />
    <rect
       x="859.11908"
       y="-150.27496"
       width="134.55518"
       height="39.896782"
       id="rect63530-3-7-8-4-5" />
    <rect
       x="859.11908"
       y="-150.27496"
       width="90.447067"
       height="19.847641"
       id="rect63530-7-0-9" />
    <rect
       x="859.11908"
       y="-150.27496"
       width="93.454437"
       height="21.852554"
       id="rect63530-3-2-7-9" />
    <rect
       x="859.11908"
       y="-150.27496"
       width="84.432327"
       height="20.850098"
       id="rect63530-1-9-6-8" />
    <rect
       x="859.11908"
       y="-150.27496"
       width="134.55518"
       height="39.896782"
       id="rect63530-3-7-2-2-1" />
    <rect
       x="859.11908"
       y="-150.27496"
       width="90.447067"
       height="19.847641"
       id="rect63530-7-0-86" />
    <rect
       x="859.11908"
       y="-150.27496"
       width="93.454437"
       height="21.852554"
       id="rect63530-3-2-7-8" />
    <rect
       x="859.11908"
       y="-150.27496"
       width="84.432327"
       height="20.850098"
       id="rect63530-1-9-6-7" />
    <rect
       x="859.11908"
       y="-150.27496"
       width="134.55518"
       height="39.896782"
       id="rect63530-3-7-8-4-5-1" />
    <rect
       x="859.11908"
       y="-150.27496"
       width="134.55518"
       height="39.896782"
       id="rect63530-3-7-8-7-7-8-2" />
    <rect
       x="859.11908"
       y="-150.27496"
       width="90.447067"
       height="19.847641"
       id="rect63530-7-0-8" />
    <rect
       x="859.11908"
       y="-150.27496"
       width="93.454437"
       height="21.852554"
       id="rect63530-3-2-7-0" />
    <rect
       x="859.11908"
       y="-150.27496"
       width="84.432327"
       height="20.850098"
       id="rect63530-1-9-6-1" />
    <rect
       x="859.11908"
       y="-150.27496"
       width="134.55518"
       height="39.896782"
       id="rect63530-3-7-2-2-3" />
    <rect
       x="859.11908"
       y="-150.27496"
       width="134.55518"
       height="39.896782"
       id="rect63530-3-7-8-4-5-7" />
    <rect
       x="859.11908"
       y="-150.27496"
       width="134.55518"
       height="39.896782"
       id="rect63530-3-7-8-7-7-8-4" />
    <rect
       x="859.11908"
       y="-150.27496"
       width="84.432327"
       height="20.850098"
       id="rect63530-1-9-6-1-2" />
    <rect
       x="859.11908"
       y="-150.27496"
       width="134.55518"
       height="39.896782"
       id="rect63530-3-7-2-2-3-2" />
    <rect
       x="859.11908"
       y="-150.27496"
       width="134.55518"
       height="39.896782"
       id="rect63530-3-7-8-4-5-7-6" />
    <rect
       x="859.11908"
       y="-150.27496"
       width="90.447067"
       height="19.847641"
       id="rect63530-7-0-8-9" />
    <rect
       x="859.11908"
       y="-150.27496"
       width="84.432327"
       height="20.850098"
       id="rect63530-1-9-6-1-5" />
    <rect
       x="859.11908"
       y="-150.27496"
       width="90.447067"
       height="19.847641"
       id="rect63530-7-0-8-5" />
    <rect
       x="859.11908"
       y="-150.27496"
       width="93.454437"
       height="21.852554"
       id="rect63530-3-2-7-0-2" />
    <rect
       x="859.11908"
       y="-150.27496"
       width="84.432327"
       height="20.850098"
       id="rect63530-1-9-6-1-7" />
    <rect
       x="859.11908"
       y="-150.27496"
       width="134.55518"
       height="39.896782"
       id="rect63530-3-7-2-2-3-6" />
    <rect
       x="859.11908"
       y="-150.27496"
       width="134.55518"
       height="39.896782"
       id="rect63530-3-7-8-4-5-7-3" />
    <rect
       x="859.11908"
       y="-150.27496"
       width="134.55518"
       height="39.896782"
       id="rect63530-3-7-8-7-7-8-4-9" />
    <rect
       x="859.11908"
       y="-150.27496"
       width="90.447067"
       height="19.847641"
       id="rect63530-7-0-8-5-8" />
    <rect
       x="859.11908"
       y="-150.27496"
       width="93.454437"
       height="21.852554"
       id="rect63530-3-2-7-0-2-2" />
    <rect
       x="859.11908"
       y="-150.27496"
       width="84.432327"
       height="20.850098"
       id="rect63530-1-9-6-1-7-2" />
    <rect
       x="859.11908"
       y="-150.27496"
       width="134.55518"
       height="39.896782"
       id="rect63530-3-7-2-2-3-6-9" />
    <rect
       x="859.11908"
       y="-150.27496"
       width="134.55518"
       height="39.896782"
       id="rect63530-3-7-2-2-3-6-1" />
    <rect
       x="859.11908"
       y="-150.27496"
       width="134.55518"
       height="39.896782"
       id="rect63530-3-7-8-7-7-8-4-9-5" />
    <rect
       x="859.11908"
       y="-150.27496"
       width="62.378273"
       height="19.847641"
       id="rect63530-6" />
    <rect
       x="859.11908"
       y="-150.27496"
       width="62.378273"
       height="19.847641"
       id="rect63530-3-3" />
    <rect
       x="859.11908"
       y="-150.27496"
       width="62.378273"
       height="19.847641"
       id="rect63530-1-6" />
    <rect
       x="859.11908"
       y="-150.27496"
       width="134.55518"
       height="39.896782"
       id="rect63530-3-7-9" />
    <rect
       x="859.11908"
       y="-150.27496"
       width="134.55518"
       height="39.896782"
       id="rect63530-3-7-8-9" />
    <rect
       x="859.11908"
       y="-150.27496"
       width="134.55518"
       height="39.896782"
       id="rect63530-3-7-8-7-3" />
    <rect
       x="859.11908"
       y="-150.27496"
       width="134.55518"
       height="39.896782"
       id="rect63530-3-7-8-7-3-6" />
    <rect
       x="859.11908"
       y="-150.27496"
       width="134.55518"
       height="39.896782"
       id="rect63530-3-7-8-7-3-6-6" />
    <rect
       x="859.11908"
       y="-150.27496"
       width="134.55518"
       height="39.896782"
       id="rect63530-3-7-8-7-3-6-6-0" />
    <rect
       x="859.11908"
       y="-150.27496"
       width="62.378273"
       height="19.847641"
       id="rect63530-6-9" />
    <rect
       x="859.11908"
       y="-150.27496"
       width="62.378273"
       height="19.847641"
       id="rect63530-3-3-8" />
    <rect
       x="859.11908"
       y="-150.27496"
       width="134.55518"
       height="39.896782"
       id="rect63530-3-7-8-9-5" />
    <rect
       x="168.31396"
       y="100.47639"
       width="93.113869"
       height="62.768761"
       id="rect79151-09-3-4-4-3-3-4" />
  </defs>
  <g
     id="layer1">
    <path
       style="fill:#ff1582;fill-opacity:1;stroke:none;stroke-width:19.2;stroke-dasharray:none;stroke-opacity:1"
       id="path78186"
       d="M 14.805856,52.592748 A 105.83332,105.83332 0 0 1 105.40083,0.74819054 l 0.4325,105.83243946 z" />
    <path
       style="display:inline;fill:#b578de;fill-opacity:1;stroke:none;stroke-width:19.2;stroke-dasharray:none;stroke-opacity:1"
       id="path78186-0"
       d="M -130.31772,92.35764 A 105.83332,105.83332 0 0 1 -38.67674,39.987123 L -38.98061,145.82001 Z"
       transform="rotate(-59.999999)" />
    <path
       style="display:inline;fill:#ffc107;fill-opacity:1;stroke:none;stroke-width:19.2;stroke-dasharray:none;stroke-opacity:1"
       id="path78186-0-0"
       d="m -235.84863,-90.90069 a 105.83332,105.83332 0 0 1 91.4307,-53.16356 l 0.36611,105.832686 z"
       transform="matrix(-0.50000002,-0.86602539,-0.86602539,0.50000002,0,0)" />
    <path
       style="display:inline;fill:#ff8300;fill-opacity:1;stroke:none;stroke-width:19.2;stroke-dasharray:none;stroke-opacity:1"
       id="path78186-5"
       d="M -197.29018,52.97834 A 105.83332,105.83332 0 0 1 -105.84629,0.74747528 L -106.03512,106.58063 Z"
       transform="scale(-1,1)" />
    <path
       style="display:inline;fill:#03a9f4;fill-opacity:1;stroke:none;stroke-width:19.2;stroke-dasharray:none;stroke-opacity:1"
       id="path78186-2"
       d="m 14.806656,-159.24618 a 105.83332,105.83332 0 0 1 91.114614,-51.67418 l -0.18883,105.83315 z"
       transform="scale(1,-1)" />
    <path
       style="display:inline;fill:#4caf50;fill-opacity:1;stroke:none;stroke-width:19.2;stroke-dasharray:none;stroke-opacity:1"
       id="path78186-5-2"
       d="m -197.02842,-158.96244 a 105.83332,105.83332 0 0 1 91.28302,-51.95792 l -0.18883,105.83315 z"
       transform="scale(-1)" />
    <circle
       style="display:inline;fill:none;fill-opacity:1;stroke:#000216;stroke-width:2.83068;stroke-dasharray:none;stroke-opacity:1"
       id="path14745-7-5"
       cx="105.83333"
       cy="105.83393"
       r="104.41799" />
    <circle
       style="display:inline;fill:url(#radialGradient147580);fill-opacity:1;stroke:#000416;stroke-width:2.79732;stroke-dasharray:none;stroke-opacity:1"
       id="path14745-7"
       cx="105.83333"
       cy="105.83393"
       r="55.045776" />
    <path
       style="fill:#ffffff;fill-opacity:1;stroke:#000000;stroke-width:1.41111;stroke-dasharray:none;stroke-opacity:1"
       d="M 105.45129,0.00254667 106.2154,211.66529"
       id="path14536" />
    <path
       style="display:inline;fill:#ffffff;fill-opacity:1;stroke:#000000;stroke-width:1.41111;stroke-dasharray:none;stroke-opacity:1"
       d="M 197.29497,52.58737 14.371712,159.08047"
       id="path14536-9" />
    <path
       style="display:inline;fill:#ffffff;fill-opacity:1;stroke:#000000;stroke-width:1.41111;stroke-dasharray:none;stroke-opacity:1"
       d="M 14.371712,52.58737 197.29497,159.08047"
       id="path14536-9-9" />
    <circle
       style="fill:url(#radialGradient101921);fill-opacity:1;stroke:#000319;stroke-width:2.75603;stroke-dasharray:none;stroke-opacity:1"
       id="path14745"
       cx="105.83333"
       cy="105.83393"
       r="33.899765" />
    <path
       d="m 119.51303,65.905665 q -0.61252,-0.157553 -0.97071,-0.512602 -0.34818,-0.360957 -0.40336,-1.036686 -0.0451,-0.681637 0.24128,-1.795322 0.28648,-1.113685 0.6529,-1.680966 0.36846,-0.575237 0.82966,-0.719532 0.47117,-0.1502 1.04393,-0.0029 0.42161,0.10844 0.74343,0.242116 0.32978,0.135704 0.48841,0.244367 l -0.11264,0.437521 -0.95459,-0.245541 q -0.33409,-0.08593 -0.64775,0.04547 -0.31162,0.12339 -0.58962,0.577721 -0.26802,0.44842 -0.49923,1.347322 -0.22917,0.890946 -0.20489,1.423029 0.0243,0.53208 0.25155,0.802568 0.2293,0.262533 0.6032,0.358702 l 0.95458,0.24554 -0.11264,0.437518 q -0.18924,0.01071 -0.54368,-0.02959 -0.34843,-0.03025 -0.77003,-0.13869 z"
       id="path35004"
       style="font-weight:bold;font-size:5.82083px;line-height:6.30593px;font-family:Cuprum;-inkscape-font-specification:'Cuprum Bold';text-align:center;white-space:pre;shape-padding:1.91993;fill:#ff8300;fill-opacity:1;stroke-width:5.33334" />
    <path
       d="m 121.47228,66.374808 2.05667,-5.281208 q 0.32365,0.02907 0.64173,0.117686 0.32871,0.08393 0.75732,0.250857 0.63528,0.2474 0.95111,0.590763 0.32647,0.33869 0.35219,0.815885 0.0333,0.480175 -0.21999,1.130758 -0.19974,0.512814 -0.438,0.807856 -0.23533,0.287389 -0.50419,0.411875 -0.25821,0.119806 -0.5555,0.13626 l 0.28811,2.315874 -1.03327,-0.402393 -0.20955,-2.064912 -0.49751,-0.193755 -0.67066,1.722133 z m 1.82758,-1.976762 0.42097,0.163937 q 0.42861,0.166922 0.7549,-0.01462 0.33693,-0.186114 0.61712,-0.90559 0.1878,-0.482197 0.19563,-0.796487 0.008,-0.31429 -0.14642,-0.506597 -0.14662,-0.189327 -0.43749,-0.302592 l -0.42097,-0.163936 z"
       id="path35006"
       style="font-weight:bold;font-size:5.82083px;line-height:6.30593px;font-family:Cuprum;-inkscape-font-specification:'Cuprum Bold';text-align:center;white-space:pre;shape-padding:1.91993;fill:#ff8300;fill-opacity:1;stroke-width:5.33334" />
    <path
       d="m 125.53608,68.049409 2.72862,-5.060972 2.63895,1.422789 -0.31185,0.578396 -1.77135,-0.955022 -0.83807,1.554442 1.55444,0.83808 -0.31185,0.578396 -1.55444,-0.83808 -0.95502,1.771341 1.77134,0.955022 -0.31185,0.578396 z"
       id="path35008"
       style="font-weight:bold;font-size:5.82083px;line-height:6.30593px;font-family:Cuprum;-inkscape-font-specification:'Cuprum Bold';text-align:center;white-space:pre;shape-padding:1.91993;fill:#ff8300;fill-opacity:1;stroke-width:5.33334" />
    <path
       d="m 128.57779,69.688474 4.53757,-3.828238 1.00396,0.714166 -2.12801,5.542241 -0.83664,-0.59514 0.5387,-1.380798 -1.15123,-0.818913 -1.1277,0.961822 z m 2.45233,-0.825959 0.93035,0.661796 0.90848,-2.226557 -0.0267,-0.01894 z"
       id="path35010"
       style="font-weight:bold;font-size:5.82083px;line-height:6.30593px;font-family:Cuprum;-inkscape-font-specification:'Cuprum Bold';text-align:center;white-space:pre;shape-padding:1.91993;fill:#ff8300;fill-opacity:1;stroke-width:5.33334" />
    <path
       d="m 132.51669,72.584876 3.85857,-4.151197 q 0.29015,0.14633 0.55316,0.345945 0.27462,0.199191 0.61153,0.512357 0.49935,0.46415 0.66638,0.899754 0.17853,0.435182 0.0266,0.888253 -0.146,0.458665 -0.62132,0.970043 -0.37468,0.403087 -0.70494,0.589511 -0.3247,0.18041 -0.62049,0.197028 -0.2842,0.01627 -0.56662,-0.07811 l -0.58584,2.259001 -0.8122,-0.75494 0.56637,-1.996752 -0.39105,-0.36349 -1.25824,1.353651 z m 2.42756,-1.163891 0.33089,0.307569 q 0.33691,0.313159 0.7071,0.264763 0.3818,-0.04882 0.90747,-0.614345 0.35231,-0.37902 0.47541,-0.668303 0.12315,-0.289283 0.0507,-0.524922 -0.0665,-0.230047 -0.29514,-0.442548 l -0.33089,-0.307569 z"
       id="path35012"
       style="font-weight:bold;font-size:5.82083px;line-height:6.30593px;font-family:Cuprum;-inkscape-font-specification:'Cuprum Bold';text-align:center;white-space:pre;shape-padding:1.91993;fill:#ff8300;fill-opacity:1;stroke-width:5.33334" />
    <path
       d="m 73.047128,78.787375 -4.621914,-3.420044 1.783307,-2.410001 0.528217,0.390861 -1.19702,1.617673 1.419583,1.050445 1.050441,-1.419593 0.528238,0.390867 -1.050442,1.419585 1.617661,1.197015 1.19702,-1.617674 0.528215,0.390867 z"
       id="path35053"
       style="font-weight:bold;font-size:5.82083px;line-height:6.30593px;font-family:Cuprum;-inkscape-font-specification:'Cuprum Bold';text-align:center;white-space:pre;shape-padding:1.91993;fill:#ff1582;fill-opacity:1;stroke-width:5.33334" />
    <path
       d="m 76.065567,74.999353 -5.151796,-2.909923 0.701667,-0.749559 3.930462,2.351671 0.02244,-0.02397 -2.605707,-3.766841 0.701667,-0.749561 3.243269,4.948725 z"
       id="path35055"
       style="font-weight:bold;font-size:5.82083px;line-height:6.30593px;font-family:Cuprum;-inkscape-font-specification:'Cuprum Bold';text-align:center;white-space:pre;shape-padding:1.91993;fill:#ff1582;fill-opacity:1;stroke-width:5.33334" />
    <path
       d="m 77.809463,73.136499 -2.541377,-5.365277 0.947044,-0.788108 4.814289,3.473821 -0.7892,0.656757 -1.197267,-0.873711 -1.085948,0.903695 0.641667,1.336068 z m -0.17174,-2.581979 0.877607,-0.730311 -1.92043,-1.447367 -0.02533,0.02101 z"
       id="path35057"
       style="font-weight:bold;font-size:5.82083px;line-height:6.30593px;font-family:Cuprum;-inkscape-font-specification:'Cuprum Bold';text-align:center;white-space:pre;shape-padding:1.91993;fill:#ff1582;fill-opacity:1;stroke-width:5.33334" />
    <path
       d="m 81.626545,70.084491 -3.133208,-4.820979 0.82646,-0.537121 2.775118,4.27001 1.687348,-1.096629 0.358082,0.55097 z"
       id="path35059"
       style="font-weight:bold;font-size:5.82083px;line-height:6.30593px;font-family:Cuprum;-inkscape-font-specification:'Cuprum Bold';text-align:center;white-space:pre;shape-padding:1.91993;fill:#ff1582;fill-opacity:1;stroke-width:5.33334" />
    <path
       d="m 86.123293,67.542139 q -0.52986,0.26268 -0.974311,0.253823 -0.444445,-0.0089 -0.821719,-0.326053 -0.369904,-0.320841 -0.698266,-0.983162 l -1.67823,-3.385201 0.883111,-0.437798 1.678222,3.385199 q 0.255385,0.515139 0.485985,0.758367 0.237941,0.239577 0.450867,0.280708 0.220259,0.03748 0.418956,-0.06101 0.206066,-0.102159 0.302237,-0.296513 0.09616,-0.194372 0.04222,-0.525149 -0.04652,-0.334433 -0.302008,-0.849572 l -1.678229,-3.385201 0.883089,-0.4378 1.678244,3.385202 q 0.328348,0.66232 0.352378,1.154633 0.03133,0.488665 -0.230637,0.847762 -0.254667,0.355451 -0.791882,0.621777 z"
       id="path35061"
       style="font-weight:bold;font-size:5.82083px;line-height:6.30593px;font-family:Cuprum;-inkscape-font-specification:'Cuprum Bold';text-align:center;white-space:pre;shape-padding:1.91993;fill:#ff1582;fill-opacity:1;stroke-width:5.33334" />
    <path
       d="m 88.08473,66.493714 -0.469511,-5.918142 1.165266,-0.400243 3.266082,4.957561 -0.971037,0.333534 -0.808748,-1.242057 -1.336156,0.458944 0.1252,1.476866 z m 0.756726,-2.474565 1.079785,-0.370891 -1.280934,-2.035207 -0.03111,0.01071 z"
       id="path35063"
       style="font-weight:bold;font-size:5.82083px;line-height:6.30593px;font-family:Cuprum;-inkscape-font-specification:'Cuprum Bold';text-align:center;white-space:pre;shape-padding:1.91993;fill:#ff1582;fill-opacity:1;stroke-width:5.33334" />
    <path
       d="M 92.732856,64.97766 91.59953,59.424581 q 0.287755,-0.150942 0.603111,-0.248832 0.321733,-0.107596 0.772422,-0.199562 0.667978,-0.136322 1.119489,-0.01895 0.457911,0.10774 0.738118,0.494861 0.288252,0.385477 0.427867,1.069552 0.109963,0.539213 0.06963,0.916317 -0.042,0.369055 -0.200571,0.619365 -0.152178,0.240619 -0.393022,0.415541 l 1.497089,1.790245 -1.086482,0.221739 -1.295074,-1.621896 -0.523111,0.106771 0.369571,1.810787 z m 0.464792,-2.651721 0.442637,-0.09034 q 0.450682,-0.09199 0.626585,-0.421289 0.182245,-0.339001 0.028,-1.095508 -0.103377,-0.50702 -0.267229,-0.775393 -0.163711,-0.268373 -0.397645,-0.346387 -0.225837,-0.07965 -0.531674,-0.01709 l -0.442637,0.09034 z"
       id="path35065"
       style="font-weight:bold;font-size:5.82083px;line-height:6.30593px;font-family:Cuprum;-inkscape-font-specification:'Cuprum Bold';text-align:center;white-space:pre;shape-padding:1.91993;fill:#ff1582;fill-opacity:1;stroke-width:5.33334" />
    <path
       d="m 66.284546,120.65607 -5.8706,0.88364 -0.481018,-1.1343 4.716124,-3.60594 0.400852,0.94525 -1.182233,0.89392 0.551569,1.30065 1.464453,-0.22846 z m -2.521567,-0.58122 -0.445744,-1.05111 -1.940303,1.4206 0.01236,0.0302 z"
       id="path35071"
       style="font-weight:bold;font-size:5.82083px;line-height:6.30593px;font-family:Cuprum;-inkscape-font-specification:'Cuprum Bold';text-align:center;white-space:pre;shape-padding:1.91993;fill:#b578de;fill-opacity:1;stroke-width:5.33334" />
    <path
       d="m 64.438391,116.12824 -5.546289,1.51572 -0.259835,-0.9508 3.233303,-2.50147 -0.0103,-0.0396 -3.6447,0.99604 -0.249024,-0.91118 5.546309,-1.51571 0.259836,0.95079 -3.233303,2.50147 0.0103,0.0396 3.644721,-0.99604 z"
       id="path35073"
       style="font-weight:bold;font-size:5.82083px;line-height:6.30593px;font-family:Cuprum;-inkscape-font-specification:'Cuprum Bold';text-align:center;white-space:pre;shape-padding:1.91993;fill:#b578de;fill-opacity:1;stroke-width:5.33334" />
    <path
       d="m 63.346167,112.03585 -5.893807,-0.71262 -0.161444,-1.22146 5.506483,-2.21888 0.134469,1.01788 -1.377697,0.54657 0.185126,1.40061 1.472382,0.17002 z m -2.275528,-1.23211 -0.1495,-1.13189 -2.248697,0.85221 0.0041,0.0326 z"
       id="path35075"
       style="font-weight:bold;font-size:5.82083px;line-height:6.30593px;font-family:Cuprum;-inkscape-font-specification:'Cuprum Bold';text-align:center;white-space:pre;shape-padding:1.91993;fill:#b578de;fill-opacity:1;stroke-width:5.33334" />
    <path
       d="m 62.798038,107.17928 -5.74931,0.065 -0.0103,-0.98559 5.092246,-0.0576 -0.02265,-2.01226 0.657064,-0.007 z"
       id="path35077"
       style="font-weight:bold;font-size:5.82083px;line-height:6.30593px;font-family:Cuprum;-inkscape-font-specification:'Cuprum Bold';text-align:center;white-space:pre;shape-padding:1.91993;fill:#b578de;fill-opacity:1;stroke-width:5.33334" />
    <path
       d="m 62.838625,103.52512 -5.733803,-0.42693 0.0731,-0.98294 5.733805,0.42694 z"
       id="path35079"
       style="font-weight:bold;font-size:5.82083px;line-height:6.30593px;font-family:Cuprum;-inkscape-font-specification:'Cuprum Bold';text-align:center;white-space:pre;shape-padding:1.91993;fill:#b578de;fill-opacity:1;stroke-width:5.33334" />
    <path
       d="m 62.95073,101.80139 -0.608321,-0.0972 -4.083669,-2.814946 -0.330364,2.068306 -0.648889,-0.10364 0.505277,-3.163296 0.608321,0.09718 4.083669,2.814946 0.330365,-2.068309 0.648888,0.103644 z"
       id="path35081"
       style="font-weight:bold;font-size:5.82083px;line-height:6.30593px;font-family:Cuprum;-inkscape-font-specification:'Cuprum Bold';text-align:center;white-space:pre;shape-padding:1.91993;fill:#b578de;fill-opacity:1;stroke-width:5.33334" />
    <path
       d="m 63.498387,98.306797 -5.129313,-2.989141 0.335699,-1.185459 5.934992,0.144045 -0.279769,0.987881 -1.481503,-0.04393 -0.384935,1.359334 1.284578,0.739377 z m -1.601269,-2.032755 0.31109,-1.098526 -2.402315,-0.108311 -0.0082,0.03163 z"
       id="path35083"
       style="font-weight:bold;font-size:5.82083px;line-height:6.30593px;font-family:Cuprum;-inkscape-font-specification:'Cuprum Bold';text-align:center;white-space:pre;shape-padding:1.91993;fill:#b578de;fill-opacity:1;stroke-width:5.33334" />
    <path
       d="m 64.90339,93.623879 -5.208099,-2.235363 q 0.04016,-0.322459 0.13941,-0.637333 0.09514,-0.325667 0.276515,-0.748356 0.268897,-0.626474 0.62282,-0.93043 0.349597,-0.31474 0.827404,-0.324192 0.481019,-0.01711 1.122598,0.25837 0.50573,0.217059 0.79248,0.465274 0.279213,0.244978 0.394469,0.517911 0.110993,0.262141 0.117171,0.559815 l 2.324332,-0.209059 -0.437343,1.018978 -2.070859,0.139103 -0.210578,0.490615 1.6983,0.728926 z m -1.913369,-1.893845 0.178125,-0.41514 q 0.181419,-0.422689 0.0103,-0.754963 -0.174624,-0.343067 -0.884034,-0.6476 -0.475521,-0.204089 -0.789371,-0.2226 -0.313849,-0.01852 -0.511289,0.129155 -0.194187,0.140111 -0.317309,0.426926 l -0.178126,0.415141 z"
       id="path35085"
       style="font-weight:bold;font-size:5.82083px;line-height:6.30593px;font-family:Cuprum;-inkscape-font-specification:'Cuprum Bold';text-align:center;white-space:pre;shape-padding:1.91993;fill:#b578de;fill-opacity:1;stroke-width:5.33334" />
    <path
       d="m 97.853048,147.05663 -2.538474,5.36665 -1.209874,-0.23285 -0.365222,-5.92549 1.008222,0.19405 0.0832,1.47982 1.387311,0.267 0.626563,-1.34321 z m -1.888022,1.7696 -1.121156,-0.21577 0.09802,2.40277 0.0323,0.006 z"
       id="path35091"
       style="font-weight:bold;font-size:5.82083px;line-height:6.30593px;font-family:Cuprum;-inkscape-font-specification:'Cuprum Bold';text-align:center;white-space:pre;shape-padding:1.91993;fill:#03a9f4;fill-opacity:1;stroke-width:5.33334" />
    <path
       d="m 93.068056,146.05513 -1.77066,5.38384 q -0.32474,-0.0118 -0.647118,-0.0831 -0.332734,-0.0662 -0.769682,-0.2099 -0.647614,-0.213 -0.9814,-0.53894 -0.341585,-0.32851 -0.387711,-0.81925 -0.05393,-0.4933 0.177097,-1.19554 0.243792,-0.74125 0.569525,-1.12698 0.325726,-0.38573 0.751378,-0.47056 0.415267,-0.0796 0.945852,0.0949 0.08587,0.0282 0.296615,0.1235 0.203037,0.0927 0.340948,0.17266 l 0.538904,-1.63856 z m -1.654845,1.87681 -0.429148,-0.14114 q -0.296489,-0.0975 -0.532622,-0.0368 -0.243941,0.0581 -0.445459,0.32906 -0.2016,0.27095 -0.381149,0.81713 -0.174414,0.53059 -0.170503,0.86045 0.0044,0.32986 0.168244,0.51362 0.15403,0.189 0.450496,0.28652 l 0.429149,0.14114 z"
       id="path35093"
       style="font-weight:bold;font-size:5.82083px;line-height:6.30593px;font-family:Cuprum;-inkscape-font-specification:'Cuprum Bold';text-align:center;white-space:pre;shape-padding:1.91993;fill:#03a9f4;fill-opacity:1;stroke-width:5.33334" />
    <path
       d="m 89.076396,144.65384 -2.422103,5.21462 -0.893941,-0.41521 2.145281,-4.61867 -1.825111,-0.84773 0.276808,-0.59596 z"
       id="path35095"
       style="font-weight:bold;font-size:5.82083px;line-height:6.30593px;font-family:Cuprum;-inkscape-font-specification:'Cuprum Bold';text-align:center;white-space:pre;shape-padding:1.91993;fill:#03a9f4;fill-opacity:1;stroke-width:5.33334" />
    <path
       d="m 85.797604,143.0403 -2.861237,4.98721 -0.854941,-0.49051 2.861245,-4.9872 z"
       id="path35097"
       style="font-weight:bold;font-size:5.82083px;line-height:6.30593px;font-family:Cuprum;-inkscape-font-specification:'Cuprum Bold';text-align:center;white-space:pre;shape-padding:1.91993;fill:#03a9f4;fill-opacity:1;stroke-width:5.33334" />
    <path
       d="m 82.582774,140.91103 q 0.519178,0.36122 0.731089,0.81886 0.200571,0.4597 0.01645,1.11227 -0.195215,0.65462 -0.852074,1.59855 -0.656771,0.94394 -1.197986,1.34787 -0.545903,0.41068 -1.028444,0.38513 -0.493978,-0.0235 -0.979444,-0.36125 -0.357341,-0.24864 -0.612378,-0.48612 -0.261771,-0.24218 -0.372578,-0.39932 l 0.258022,-0.37083 0.809082,0.56294 q 0.283185,0.19703 0.622963,0.18327 0.335081,-0.007 0.754052,-0.3359 0.407525,-0.32684 0.937637,-1.08874 0.525392,-0.75514 0.688155,-1.2623 0.162682,-0.50717 0.04407,-0.83992 -0.123348,-0.32601 -0.440281,-0.54649 l -0.809104,-0.56295 0.25803,-0.37083 q 0.181207,0.056 0.499237,0.21728 0.316014,0.14983 0.673355,0.39846 z"
       id="path35099"
       style="font-weight:bold;font-size:5.82083px;line-height:6.30593px;font-family:Cuprum;-inkscape-font-specification:'Cuprum Bold';text-align:center;white-space:pre;shape-padding:1.91993;fill:#03a9f4;fill-opacity:1;stroke-width:5.33334" />
    <path
       d="m 81.247271,140.08863 -4.930926,3.30618 -0.91937,-0.82022 2.724422,-5.27469 0.76614,0.68351 -0.687229,1.31321 1.054207,0.94051 1.226615,-0.83201 z m -2.52826,0.55134 -0.851948,-0.76006 -1.147763,2.11318 0.02452,0.0219 z"
       id="path35101"
       style="font-weight:bold;font-size:5.82083px;line-height:6.30593px;font-family:Cuprum;-inkscape-font-specification:'Cuprum Bold';text-align:center;white-space:pre;shape-padding:1.91993;fill:#03a9f4;fill-opacity:1;stroke-width:5.33334" />
    <path
       d="m 77.650263,136.77728 -4.288214,3.70571 q -0.272459,-0.1771 -0.512134,-0.40419 -0.25127,-0.22796 -0.552023,-0.57599 -0.445764,-0.51583 -0.564294,-0.96705 -0.130145,-0.45207 0.07042,-0.88586 0.195216,-0.44002 0.723372,-0.89651 0.4164,-0.35984 0.76503,-0.50913 0.342432,-0.14395 0.638284,-0.12819 0.284254,0.0148 0.554713,0.13943 l 0.828681,-2.18164 0.725023,0.839 -0.780726,1.92308 0.349111,0.40396 1.398326,-1.20838 z m -2.539977,0.89226 -0.2954,-0.34182 q -0.300748,-0.34803 -0.674008,-0.34029 -0.384855,0.007 -0.969042,0.51174 -0.391545,0.33834 -0.545453,0.61247 -0.153825,0.27414 -0.107492,0.51628 0.04098,0.23593 0.245112,0.4721 l 0.295398,0.34181 z"
       id="path35103"
       style="font-weight:bold;font-size:5.82083px;line-height:6.30593px;font-family:Cuprum;-inkscape-font-specification:'Cuprum Bold';text-align:center;white-space:pre;shape-padding:1.91993;fill:#03a9f4;fill-opacity:1;stroke-width:5.33334" />
    <path
       d="m 140.18326,131.87134 4.6276,3.41235 -1.77929,2.41297 -0.52888,-0.38999 1.19433,-1.61966 -1.42134,-1.04808 -1.04807,1.42134 -0.52887,-0.38999 1.04807,-1.42134 -1.61966,-1.19431 -1.19433,1.61966 -0.52887,-0.38998 z"
       id="path35109"
       style="font-weight:bold;font-size:5.82083px;line-height:6.30593px;font-family:Cuprum;-inkscape-font-specification:'Cuprum Bold';text-align:center;white-space:pre;shape-padding:1.91993;fill:#4caf50;fill-opacity:1;stroke-width:5.33334" />
    <path
       d="m 137.82806,134.98566 4.16085,3.96815 -0.68025,0.71329 -3.81133,-1.47827 -0.0284,0.0297 2.73426,2.60764 -0.65189,0.68357 -4.16085,-3.96816 0.68025,-0.71329 3.81134,1.47828 0.0284,-0.0297 -2.73426,-2.60764 z"
       id="path35111"
       style="font-weight:bold;font-size:5.82083px;line-height:6.30593px;font-family:Cuprum;-inkscape-font-specification:'Cuprum Bold';text-align:center;white-space:pre;shape-padding:1.91993;fill:#4caf50;fill-opacity:1;stroke-width:5.33334" />
    <path
       d="m 133.91931,138.79625 3.22086,3.94465 0.98617,-0.80522 0.4156,0.50899 -2.73581,2.23384 -0.41559,-0.509 0.98614,-0.80521 -3.22086,-3.94466 z"
       id="path35113"
       style="font-weight:bold;font-size:5.82083px;line-height:6.30593px;font-family:Cuprum;-inkscape-font-specification:'Cuprum Bold';text-align:center;white-space:pre;shape-padding:1.91993;fill:#4caf50;fill-opacity:1;stroke-width:5.33334" />
    <path
       d="m 131.62261,140.59495 3.11187,4.83479 -2.52101,1.62262 -0.35563,-0.55255 1.69216,-1.08915 -0.95578,-1.48498 -1.48498,0.95579 -0.35563,-0.55255 1.48496,-0.95578 -1.08915,-1.69218 -1.69217,1.08915 -0.35565,-0.55254 z"
       id="path35115"
       style="font-weight:bold;font-size:5.82083px;line-height:6.30593px;font-family:Cuprum;-inkscape-font-specification:'Cuprum Bold';text-align:center;white-space:pre;shape-padding:1.91993;fill:#4caf50;fill-opacity:1;stroke-width:5.33334" />
    <path
       d="m 128.31317,142.66697 2.47472,5.18986 -0.88969,0.42424 -3.03492,-2.73877 -0.037,0.0177 1.62624,3.41048 -0.85263,0.40657 -2.47472,-5.18986 0.8897,-0.42425 3.03492,2.73878 0.037,-0.0177 -1.62626,-3.41048 z"
       id="path35117"
       style="font-weight:bold;font-size:5.82083px;line-height:6.30593px;font-family:Cuprum;-inkscape-font-specification:'Cuprum Bold';text-align:center;white-space:pre;shape-padding:1.91993;fill:#4caf50;fill-opacity:1;stroke-width:5.33334" />
    <path
       d="m 122.65548,144.96652 q 0.43803,-0.14042 0.77125,-0.20409 0.32289,-0.069 0.6477,-0.0782 l 1.70497,5.31882 q -0.26964,0.18131 -0.57249,0.3129 -0.30815,0.14193 -0.74617,0.28232 -0.64922,0.2081 -1.17247,0.0826 -0.5311,-0.12303 -0.95601,-0.66824 -0.43021,-0.53488 -0.76872,-1.59082 -0.33847,-1.05595 -0.3019,-1.74909 0.0288,-0.69063 0.38934,-1.09949 0.35528,-0.39853 1.0045,-0.60664 z m 0.61825,0.44874 -0.43022,0.13791 q -0.31286,0.10028 -0.48734,0.36323 -0.17977,0.27327 -0.15732,0.80084 0.0224,0.52758 0.3033,1.40362 0.28331,0.88386 0.56924,1.31837 0.28841,0.44233 0.59106,0.55232 0.29736,0.12033 0.61022,0.02 l 0.43019,-0.13791 z"
       id="path35119"
       style="font-weight:bold;font-size:5.82083px;line-height:6.30593px;font-family:Cuprum;-inkscape-font-specification:'Cuprum Bold';text-align:center;white-space:pre;shape-padding:1.91993;fill:#4caf50;fill-opacity:1;stroke-width:5.33334" />
    <path
       d="m 119.75957,145.88814 1.07084,5.64909 -2.9456,0.55836 -0.12233,-0.64562 1.97719,-0.37479 -0.3289,-1.73507 -1.73508,0.32889 -0.12232,-0.6456 1.73508,-0.3289 -0.37478,-1.97719 -1.97719,0.3748 -0.12231,-0.64561 z"
       id="path35121"
       style="font-weight:bold;font-size:5.82083px;line-height:6.30593px;font-family:Cuprum;-inkscape-font-specification:'Cuprum Bold';text-align:center;white-space:pre;shape-padding:1.91993;fill:#4caf50;fill-opacity:1;stroke-width:5.33334" />
    <path
       d="m 115.91419,146.56106 0.37153,5.65535 q -0.30553,0.11062 -0.63124,0.16494 -0.33333,0.063 -0.79234,0.0932 -0.68027,0.0447 -1.11174,-0.13276 -0.43912,-0.16872 -0.66435,-0.59018 -0.23346,-0.42094 -0.27922,-1.11762 -0.0361,-0.54914 0.055,-0.91731 0.0916,-0.35997 0.28251,-0.58653 0.18327,-0.21783 0.44564,-0.35854 l -1.24109,-1.97636 1.10648,-0.0727 1.0637,1.78221 0.53276,-0.035 -0.12108,-1.84414 z m -0.81931,2.56444 -0.45079,0.0296 q -0.45898,0.0301 -0.67784,0.33264 -0.2265,0.31121 -0.17586,1.08165 0.034,0.51636 0.1598,0.80442 0.12581,0.28807 0.3471,0.39701 0.21299,0.10949 0.52443,0.089 l 0.45079,-0.0296 z"
       id="path35123"
       style="font-weight:bold;font-size:5.82083px;line-height:6.30593px;font-family:Cuprum;-inkscape-font-specification:'Cuprum Bold';text-align:center;white-space:pre;shape-padding:1.91993;fill:#4caf50;fill-opacity:1;stroke-width:5.33334" />
    <path
       d="m 145.88167,91.214516 5.18184,-2.295548 q 0.20903,0.248785 0.37215,0.535874 0.17401,0.291274 0.36026,0.711829 0.27613,0.623326 0.25804,1.089504 -0.008,0.470356 -0.32542,0.826919 -0.31486,0.364074 -0.9532,0.646859 -0.50315,0.222904 -0.88016,0.264148 -0.36951,0.03793 -0.64794,-0.06333 -0.2676,-0.09707 -0.49004,-0.294993 l -1.42835,1.845563 -0.44913,-1.013844 1.30715,-1.612186 -0.21624,-0.488148 -1.68974,0.748548 z m 2.68975,-0.11357 0.18306,0.413044 q 0.18636,0.420555 0.54562,0.521904 0.37017,0.105518 1.07609,-0.207193 0.47314,-0.209593 0.70026,-0.426993 0.22709,-0.217392 0.25324,-0.462555 0.0295,-0.237652 -0.097,-0.52303 l -0.18307,-0.413044 z"
       id="path35129"
       style="font-weight:bold;font-size:5.82083px;line-height:6.30593px;font-family:Cuprum;-inkscape-font-specification:'Cuprum Bold';text-align:center;white-space:pre;shape-padding:1.91993;fill:#ffc107;fill-opacity:1;stroke-width:5.33334" />
    <path
       d="m 147.58423,95.266486 5.50151,-1.671037 0.87132,2.868637 -0.62875,0.19097 -0.58486,-1.925525 -1.68974,0.513251 0.51325,1.689749 -0.62875,0.19097 -0.51325,-1.689748 -1.92551,0.584874 0.58486,1.925518 -0.62875,0.190978 z"
       id="path35131"
       style="font-weight:bold;font-size:5.82083px;line-height:6.30593px;font-family:Cuprum;-inkscape-font-specification:'Cuprum Bold';text-align:center;white-space:pre;shape-padding:1.91993;fill:#ffc107;fill-opacity:1;stroke-width:5.33334" />
    <path
       d="m 148.88312,100.73135 q -0.11573,-0.6218 0.055,-1.09636 0.18039,-0.467985 0.7696,-0.803193 0.59889,-0.328629 1.72944,-0.538941 1.13055,-0.210303 1.79947,-0.117518 0.67702,0.09129 1.00246,0.448481 0.33502,0.363771 0.44317,0.945193 0.0797,0.427993 0.0943,0.776158 0.0164,0.35626 -0.0145,0.54593 l -0.44415,0.0826 -0.18019,-0.96903 q -0.063,-0.339167 -0.31455,-0.5681 -0.24338,-0.23043 -0.77259,-0.290726 -0.51965,-0.0537 -1.43214,0.116015 -0.90445,0.168244 -1.37656,0.414814 -0.47213,0.246571 -0.62145,0.566767 -0.14126,0.31869 -0.0706,0.69822 l 0.18018,0.96904 -0.44414,0.0826 q -0.0896,-0.16716 -0.20263,-0.50537 -0.11963,-0.32865 -0.19933,-0.75664 z"
       id="path35133"
       style="font-weight:bold;font-size:5.82083px;line-height:6.30593px;font-family:Cuprum;-inkscape-font-specification:'Cuprum Bold';text-align:center;white-space:pre;shape-padding:1.91993;fill:#ffc107;fill-opacity:1;stroke-width:5.33334" />
    <path
       d="m 149.28727,104.22888 q -0.0367,-0.5738 0.20664,-1.01733 0.25203,-0.43584 0.88443,-0.71491 0.63291,-0.27086 1.73953,-0.34151 1.10661,-0.0707 1.76065,0.11804 0.66275,0.19637 0.96813,0.59663 0.30593,0.40846 0.34256,0.98226 0.0367,0.5738 -0.21538,1.00965 -0.25149,0.44404 -0.8844,0.7149 -0.6242,0.27854 -1.73082,0.34919 -1.10662,0.0707 -1.76936,-0.12571 -0.66223,-0.18817 -0.96816,-0.59663 -0.29718,-0.40079 -0.33382,-0.97459 z m 0.57378,-0.0366 q 0.0103,0.17213 0.12748,0.32108 0.1252,0.15663 0.39539,0.26283 0.27067,0.1144 0.73443,0.15886 0.47247,0.0522 1.17741,0.007 0.70497,-0.045 1.15878,-0.1563 0.46253,-0.1036 0.71645,-0.2515 0.25446,-0.1397 0.35055,-0.31045 0.10482,-0.16307 0.0939,-0.33522 -0.0103,-0.17213 -0.13612,-0.32875 -0.11656,-0.14895 -0.38718,-0.26335 -0.27016,-0.10621 -0.74263,-0.15835 -0.46376,-0.0444 -1.1687,5.3e-4 -0.70497,0.045 -1.16749,0.14862 -0.45379,0.11128 -0.70826,0.25099 -0.25394,0.14788 -0.35876,0.31097 -0.0962,0.17074 -0.0851,0.34289 z"
       id="path35135"
       style="font-weight:bold;font-size:5.82083px;line-height:6.30593px;font-family:Cuprum;-inkscape-font-specification:'Cuprum Bold';text-align:center;white-space:pre;shape-padding:1.91993;fill:#ffc107;fill-opacity:1;stroke-width:5.33334" />
    <path
       d="m 149.46957,107.05792 5.65442,0.38545 q 0.069,0.31755 0.0793,0.64758 0.0185,0.33878 -0.0124,0.79769 -0.0463,0.68017 -0.27973,1.08414 -0.22572,0.41273 -0.67346,0.57979 -0.4483,0.17526 -1.14486,0.1278 -0.54904,-0.0374 -0.9018,-0.17674 -0.34455,-0.13876 -0.54364,-0.35815 -0.19151,-0.21064 -0.29596,-0.48945 l -2.12413,0.96664 0.0754,-1.1063 1.90806,-0.81671 0.0362,-0.53266 -1.84382,-0.1257 z m 2.43239,1.15376 -0.0307,0.45072 q -0.0313,0.45891 0.23933,0.71611 0.27826,0.26595 1.04857,0.31846 0.51629,0.0352 0.81855,-0.0512 0.30228,-0.0864 0.43973,-0.29111 0.13694,-0.19649 0.15815,-0.50789 l 0.0307,-0.45072 z"
       id="path35137"
       style="font-weight:bold;font-size:5.82083px;line-height:6.30593px;font-family:Cuprum;-inkscape-font-specification:'Cuprum Bold';text-align:center;white-space:pre;shape-padding:1.91993;fill:#ffc107;fill-opacity:1;stroke-width:5.33334" />
    <path
       d="m 148.73329,112.83191 q 0.0896,-0.45116 0.19563,-0.77346 0.0962,-0.31585 0.24571,-0.60438 l 5.47829,1.08862 q 0.0278,0.32374 -0.004,0.6524 -0.0253,0.33831 -0.11491,0.78947 -0.13282,0.66867 -0.49642,1.06539 -0.36517,0.40479 -1.04805,0.51195 -0.67642,0.11682 -1.76402,-0.0993 -1.0876,-0.21612 -1.67603,-0.58428 -0.59002,-0.36011 -0.77268,-0.87375 -0.17626,-0.50398 -0.0433,-1.17265 z m 0.69228,-0.32303 -0.0881,0.44309 q -0.0641,0.32226 0.0813,0.60237 0.15177,0.28977 0.62405,0.52598 0.47227,0.23622 1.3746,0.41551 0.91034,0.18091 1.429,0.1416 0.5267,-0.0377 0.76969,-0.24903 0.24944,-0.20166 0.31348,-0.52391 l 0.0881,-0.4431 z"
       id="path35139"
       style="font-weight:bold;font-size:5.82083px;line-height:6.30593px;font-family:Cuprum;-inkscape-font-specification:'Cuprum Bold';text-align:center;white-space:pre;shape-padding:1.91993;fill:#ffc107;fill-opacity:1;stroke-width:5.33334" />
    <path
       d="m 148.32851,115.2273 4.97834,3.2343 -0.39276,1.16779 -5.92103,-0.4316 0.32732,-0.97316 1.47763,0.11569 0.45038,-1.33906 -1.2472,-0.8008 z m 1.50081,2.10799 -0.36397,1.08216 2.39424,0.22466 0.0103,-0.0311 z"
       id="path35141"
       style="font-weight:bold;font-size:5.82083px;line-height:6.30593px;font-family:Cuprum;-inkscape-font-specification:'Cuprum Bold';text-align:center;white-space:pre;shape-padding:1.91993;fill:#ffc107;fill-opacity:1;stroke-width:5.33334" />
    <path
       d="m 146.69818,119.83663 5.09334,2.48577 q -0.0558,0.32013 -0.1703,0.6298 -0.11079,0.32066 -0.31254,0.73403 -0.29902,0.61268 -0.66729,0.89908 -0.36449,0.29739 -0.84217,0.28361 -0.48129,-0.007 -1.10874,-0.31261 -0.49457,-0.24137 -0.76892,-0.50323 -0.26699,-0.25825 -0.36883,-0.53646 -0.098,-0.26722 -0.09,-0.56486 l -2.33175,0.0959 0.48633,-0.99652 2.07516,-0.0383 0.23418,-0.47981 -1.66086,-0.81058 z m 1.8191,1.98458 -0.1981,0.40599 q -0.20181,0.41337 -0.0478,0.75353 0.15774,0.35114 0.85154,0.68978 0.46504,0.22696 0.77761,0.26069 0.31258,0.0337 0.51698,-0.10415 0.20078,-0.1305 0.33767,-0.41101 l 0.1981,-0.40598 z"
       id="path35143"
       style="font-weight:bold;font-size:5.82083px;line-height:6.30593px;font-family:Cuprum;-inkscape-font-specification:'Cuprum Bold';text-align:center;white-space:pre;shape-padding:1.91993;fill:#ffc107;fill-opacity:1;stroke-width:5.33334" />
    <g
       aria-label="Taxonomía
de Bloom"
       transform="matrix(0.65658357,0,0,0.65658357,-39.812325,29.247482)"
       id="text79149-57-07-4-0-4-1"
       style="font-weight:bold;font-size:18.1963px;line-height:18.1963px;font-family:Oswald;-inkscape-font-specification:'Oswald, Bold';text-align:end;white-space:pre;shape-inside:url(#rect79151-09-3-4-4-3-3-4);display:inline;fill:#ffffff;stroke-width:3.77953">
      <path
         d="m 185.09424,115.12446 v -12.31889 h -2.21995 v -2.42011 h 7.69703 v 2.42011 h -2.20175 v 12.31889 z"
         id="path22848" />
      <path
         d="m 193.64651,115.30642 q -0.80064,0 -1.34653,-0.38212 -0.54589,-0.38212 -0.81883,-0.9644 -0.27295,-0.60048 -0.27295,-1.21915 0,-0.9826 0.38212,-1.65587 0.40032,-0.67326 1.03719,-1.12817 0.63687,-0.45491 1.40112,-0.76424 0.76424,-0.32754 1.51029,-0.58228 v -1.05539 q 0,-0.27294 -0.0546,-0.4731 -0.0546,-0.21836 -0.18196,-0.32754 -0.12737,-0.12737 -0.38212,-0.12737 -0.25475,0 -0.40032,0.10918 -0.12738,0.10917 -0.18196,0.30933 -0.0546,0.18197 -0.0728,0.41852 l -0.0728,0.76424 -2.76584,-0.10917 q 0.091,-1.89242 1.00079,-2.78404 0.92802,-0.90981 2.76584,-0.90981 1.60128,0 2.38372,0.89162 0.80063,0.87342 0.80063,2.27453 v 4.913 q 0,0.65507 0.0182,1.14637 0.0364,0.4913 0.0728,0.85523 0.0546,0.36392 0.091,0.61867 h -2.65666 q -0.0546,-0.41851 -0.12738,-0.90981 -0.0728,-0.4913 -0.10917,-0.58229 -0.18197,0.65507 -0.69146,1.16457 -0.4913,0.50949 -1.32833,0.50949 z m 1.05538,-2.00159 q 0.18196,0 0.32754,-0.0728 0.16376,-0.0728 0.29114,-0.20016 0.12737,-0.12738 0.21835,-0.25475 v -2.87502 q -0.36392,0.21836 -0.67326,0.45491 -0.30934,0.21836 -0.52769,0.4913 -0.21836,0.27295 -0.34573,0.60048 -0.10918,0.30934 -0.10918,0.70965 0,0.5277 0.21835,0.83703 0.21836,0.30934 0.60048,0.30934 z"
         id="path22850" />
      <path
         d="m 199.41473,115.12446 2.23814,-5.76823 -2.12896,-4.74923 h 2.98419 l 1.12817,2.52929 1.0008,-2.52929 h 2.27454 l -2.07438,5.18595 2.38371,5.33151 h -3.02058 l -1.27374,-2.89321 -1.05539,2.89321 z"
         id="path22852" />
      <path
         d="m 211.55167,115.30642 q -1.12817,0 -1.9652,-0.38212 -0.81884,-0.38212 -1.27374,-1.14636 -0.43671,-0.76425 -0.43671,-1.91062 v -4.00318 q 0,-1.14637 0.43671,-1.91061 0.4549,-0.76425 1.27374,-1.14637 0.83703,-0.38212 1.9652,-0.38212 1.12817,0 1.947,0.38212 0.83703,0.38212 1.29194,1.14637 0.45491,0.76424 0.45491,1.91061 v 4.00318 q 0,1.14637 -0.45491,1.91062 -0.45491,0.76424 -1.29194,1.14636 -0.81883,0.38212 -1.947,0.38212 z m 0.0182,-1.9652 q 0.29114,0 0.4549,-0.14557 0.16377,-0.16376 0.21836,-0.43671 0.0728,-0.29114 0.0728,-0.69146 v -4.4035 q 0,-0.40032 -0.0728,-0.67326 -0.0546,-0.29115 -0.21836,-0.43672 -0.16376,-0.16376 -0.4549,-0.16376 -0.29115,0 -0.45491,0.16376 -0.16377,0.14557 -0.23655,0.43672 -0.0728,0.27294 -0.0728,0.67326 v 4.4035 q 0,0.40032 0.0728,0.69146 0.0728,0.27295 0.23655,0.43671 0.16376,0.14557 0.45491,0.14557 z"
         id="path22854" />
      <path
         d="M 216.88318,115.12446 V 104.607 h 2.966 v 1.05539 q 0.58228,-0.58229 1.20096,-0.90982 0.63687,-0.32753 1.32833,-0.32753 0.65506,0 1.07358,0.32753 0.43671,0.30934 0.65506,0.87342 0.21836,0.54589 0.21836,1.25555 v 8.24292 h -2.9478 v -7.82441 q 0,-0.38212 -0.12738,-0.58228 -0.12737,-0.20016 -0.4731,-0.20016 -0.18196,0 -0.43671,0.10918 -0.23655,0.091 -0.4913,0.27294 v 8.22473 z"
         id="path22856" />
      <path
         d="m 229.566,115.30642 q -1.12817,0 -1.9652,-0.38212 -0.81883,-0.38212 -1.27374,-1.14636 -0.43671,-0.76425 -0.43671,-1.91062 v -4.00318 q 0,-1.14637 0.43671,-1.91061 0.45491,-0.76425 1.27374,-1.14637 0.83703,-0.38212 1.9652,-0.38212 1.12817,0 1.947,0.38212 0.83703,0.38212 1.29194,1.14637 0.45491,0.76424 0.45491,1.91061 v 4.00318 q 0,1.14637 -0.45491,1.91062 -0.45491,0.76424 -1.29194,1.14636 -0.81883,0.38212 -1.947,0.38212 z m 0.0182,-1.9652 q 0.29114,0 0.4549,-0.14557 0.16377,-0.16376 0.21836,-0.43671 0.0728,-0.29114 0.0728,-0.69146 v -4.4035 q 0,-0.40032 -0.0728,-0.67326 -0.0546,-0.29115 -0.21836,-0.43672 -0.16376,-0.16376 -0.4549,-0.16376 -0.29114,0 -0.45491,0.16376 -0.16377,0.14557 -0.23655,0.43672 -0.0728,0.27294 -0.0728,0.67326 v 4.4035 q 0,0.40032 0.0728,0.69146 0.0728,0.27295 0.23655,0.43671 0.16377,0.14557 0.45491,0.14557 z"
         id="path22858" />
      <path
         d="M 234.89751,115.12446 V 104.607 h 2.91141 v 0.83703 q 0.58228,-0.56409 1.20096,-0.80064 0.63687,-0.23655 1.29194,-0.23655 0.63687,0 1.09177,0.32753 0.47311,0.30934 0.70966,0.92802 0.61867,-0.69146 1.29194,-0.96441 0.69146,-0.29114 1.38292,-0.29114 0.61867,0 1.07358,0.30934 0.4549,0.29114 0.70965,0.87342 0.25475,0.56409 0.25475,1.36472 v 8.17014 h -2.91141 v -7.8608 q 0,-0.43671 -0.16376,-0.61867 -0.14557,-0.20016 -0.45491,-0.20016 -0.18196,0 -0.45491,0.10917 -0.27294,0.091 -0.52769,0.27295 0,0.0364 0,0.0728 0,0.0182 0,0.0546 v 8.17014 h -2.87502 v -7.8608 q 0,-0.43671 -0.16376,-0.61867 -0.16377,-0.20016 -0.47311,-0.20016 -0.20016,0 -0.4731,0.10917 -0.25475,0.091 -0.5095,0.27295 v 8.29751 z"
         id="path22860" />
      <path
         d="M 248.7449,115.12446 V 104.607 h 2.966 v 10.51746 z m 0.5095,-11.68202 1.14636,-3.65746 h 3.02059 l -2.29273,3.65746 z"
         id="path22862" />
      <path
         d="m 255.85967,115.30642 q -0.80064,0 -1.34653,-0.38212 -0.54589,-0.38212 -0.81883,-0.9644 -0.27295,-0.60048 -0.27295,-1.21915 0,-0.9826 0.38213,-1.65587 0.40032,-0.67326 1.03719,-1.12817 0.63687,-0.45491 1.40111,-0.76424 0.76425,-0.32754 1.51029,-0.58228 v -1.05539 q 0,-0.27294 -0.0546,-0.4731 -0.0546,-0.21836 -0.18197,-0.32754 -0.12737,-0.12737 -0.38212,-0.12737 -0.25475,0 -0.40032,0.10918 -0.12737,0.10917 -0.18196,0.30933 -0.0546,0.18197 -0.0728,0.41852 l -0.0728,0.76424 -2.76584,-0.10917 q 0.091,-1.89242 1.0008,-2.78404 0.92801,-0.90981 2.76583,-0.90981 1.60128,0 2.38372,0.89162 0.80064,0.87342 0.80064,2.27453 v 4.913 q 0,0.65507 0.0182,1.14637 0.0364,0.4913 0.0728,0.85523 0.0546,0.36392 0.091,0.61867 h -2.65666 q -0.0546,-0.41851 -0.12737,-0.90981 -0.0728,-0.4913 -0.10918,-0.58229 -0.18196,0.65507 -0.69146,1.16457 -0.4913,0.50949 -1.32833,0.50949 z m 1.05538,-2.00159 q 0.18197,0 0.32754,-0.0728 0.16376,-0.0728 0.29114,-0.20016 0.12737,-0.12738 0.21835,-0.25475 v -2.87502 q -0.36392,0.21836 -0.67326,0.45491 -0.30934,0.21836 -0.52769,0.4913 -0.21836,0.27295 -0.34573,0.60048 -0.10918,0.30934 -0.10918,0.70965 0,0.5277 0.21836,0.83703 0.21835,0.30934 0.60047,0.30934 z"
         id="path22864" />
      <path
         d="m 195.30239,133.50273 q -1.16457,0 -1.80144,-0.81883 -0.63687,-0.81884 -0.63687,-2.42011 v -4.34892 q 0,-0.9826 0.27295,-1.71045 0.27294,-0.74605 0.81883,-1.16456 0.54589,-0.41852 1.34653,-0.41852 0.58228,0 1.10997,0.23655 0.5277,0.21836 0.96441,0.60048 v -4.87661 h 2.96599 v 14.73901 h -2.96599 v -0.81884 q -0.4913,0.47311 -1.019,0.74605 -0.52769,0.25475 -1.05538,0.25475 z m 1.29194,-1.89242 q 0.14557,0 0.34573,-0.0728 0.21835,-0.0728 0.43671,-0.20016 v -6.64165 q -0.18197,-0.091 -0.38213,-0.16377 -0.20016,-0.0728 -0.38212,-0.0728 -0.40032,0 -0.58228,0.34573 -0.18196,0.32753 -0.18196,0.80063 v 4.84022 q 0,0.32753 0.0728,0.60048 0.0728,0.25475 0.23655,0.41851 0.16377,0.14557 0.43672,0.14557 z"
         id="path22866" />
      <path
         d="m 205.6197,133.50273 q -1.14637,0 -1.9652,-0.40032 -0.81884,-0.41851 -1.25555,-1.20096 -0.43671,-0.80063 -0.43671,-1.91061 v -3.85761 q 0,-1.12817 0.43671,-1.91061 0.43671,-0.78245 1.25555,-1.18276 0.83702,-0.41852 1.9652,-0.41852 1.16456,0 1.9288,0.40032 0.78244,0.40032 1.16457,1.18276 0.40032,0.78244 0.40032,1.92881 v 2.11077 h -4.22155 v 2.01979 q 0,0.40032 0.091,0.65506 0.091,0.25475 0.25474,0.36393 0.16377,0.10918 0.38213,0.10918 0.21835,0 0.38212,-0.091 0.18196,-0.10918 0.27294,-0.32754 0.10918,-0.21835 0.10918,-0.60047 v -1.10998 h 2.72945 v 1.01899 q 0,1.60128 -0.92802,2.42011 -0.92801,0.80064 -2.56567,0.80064 z m -0.72786,-6.64165 h 1.4921 v -1.05539 q 0,-0.41851 -0.10918,-0.65506 -0.091,-0.23655 -0.27294,-0.32754 -0.16377,-0.091 -0.40032,-0.091 -0.21836,0 -0.38212,0.10918 -0.14557,0.10918 -0.23655,0.38212 -0.091,0.25475 -0.091,0.74605 z"
         id="path22868" />
      <path
         d="m 215.55487,133.32077 v -14.73901 h 3.83942 q 0.94621,0 1.78324,0.14557 0.85522,0.14557 1.51029,0.56409 0.65507,0.40032 1.01899,1.16456 0.38213,0.74605 0.38213,1.9834 0,0.89162 -0.27295,1.51029 -0.25475,0.60048 -0.74605,0.96441 -0.4731,0.36392 -1.14636,0.4913 0.85522,0.10917 1.4375,0.56408 0.58229,0.43671 0.87343,1.18276 0.30933,0.74605 0.30933,1.80143 0,1.14637 -0.30933,1.9834 -0.29114,0.81883 -0.85523,1.34653 -0.56408,0.52769 -1.40111,0.78244 -0.81884,0.25475 -1.89242,0.25475 z m 3.25714,-2.27454 h 0.69146 q 1.07358,0 1.4739,-0.54589 0.41851,-0.54589 0.41851,-1.60128 0,-0.83702 -0.18196,-1.32833 -0.18196,-0.4913 -0.60048,-0.70965 -0.41851,-0.23655 -1.12817,-0.23655 h -0.67326 z m 0,-6.56887 h 0.63687 q 0.74605,0 1.12817,-0.21835 0.38212,-0.23655 0.5095,-0.67326 0.14557,-0.43672 0.14557,-1.05539 0,-0.58228 -0.21836,-0.9644 -0.20016,-0.40032 -0.61867,-0.60048 -0.40032,-0.20016 -1.019,-0.20016 h -0.56408 z"
         id="path22870" />
      <path
         d="m 226.21789,133.32077 v -14.73901 h 2.9478 v 14.73901 z"
         id="path22872" />
      <path
         d="m 234.53361,133.50273 q -1.12817,0 -1.9652,-0.38212 -0.81884,-0.38213 -1.27375,-1.14637 -0.43671,-0.76424 -0.43671,-1.91061 v -4.00319 q 0,-1.14636 0.43671,-1.91061 0.45491,-0.76424 1.27375,-1.14637 0.83703,-0.38212 1.9652,-0.38212 1.12817,0 1.947,0.38212 0.83703,0.38213 1.29194,1.14637 0.4549,0.76425 0.4549,1.91061 v 4.00319 q 0,1.14637 -0.4549,1.91061 -0.45491,0.76424 -1.29194,1.14637 -0.81883,0.38212 -1.947,0.38212 z m 0.0182,-1.9652 q 0.29114,0 0.45491,-0.14557 0.16377,-0.16377 0.21836,-0.43671 0.0728,-0.29114 0.0728,-0.69146 v -4.40351 q 0,-0.40032 -0.0728,-0.67326 -0.0546,-0.29114 -0.21836,-0.43671 -0.16377,-0.16377 -0.45491,-0.16377 -0.29114,0 -0.45491,0.16377 -0.16376,0.14557 -0.23655,0.43671 -0.0728,0.27294 -0.0728,0.67326 v 4.40351 q 0,0.40032 0.0728,0.69146 0.0728,0.27294 0.23655,0.43671 0.16377,0.14557 0.45491,0.14557 z"
         id="path22874" />
      <path
         d="m 243.32241,133.50273 q -1.12817,0 -1.9652,-0.38212 -0.81883,-0.38213 -1.27374,-1.14637 -0.43671,-0.76424 -0.43671,-1.91061 v -4.00319 q 0,-1.14636 0.43671,-1.91061 0.45491,-0.76424 1.27374,-1.14637 0.83703,-0.38212 1.9652,-0.38212 1.12817,0 1.94701,0.38212 0.83703,0.38213 1.29193,1.14637 0.45491,0.76425 0.45491,1.91061 v 4.00319 q 0,1.14637 -0.45491,1.91061 -0.4549,0.76424 -1.29193,1.14637 -0.81884,0.38212 -1.94701,0.38212 z m 0.0182,-1.9652 q 0.29114,0 0.45491,-0.14557 0.16376,-0.16377 0.21835,-0.43671 0.0728,-0.29114 0.0728,-0.69146 v -4.40351 q 0,-0.40032 -0.0728,-0.67326 -0.0546,-0.29114 -0.21835,-0.43671 -0.16377,-0.16377 -0.45491,-0.16377 -0.29114,0 -0.45491,0.16377 -0.16377,0.14557 -0.23655,0.43671 -0.0728,0.27294 -0.0728,0.67326 v 4.40351 q 0,0.40032 0.0728,0.69146 0.0728,0.27294 0.23655,0.43671 0.16377,0.14557 0.45491,0.14557 z"
         id="path22876" />
      <path
         d="M 248.65393,133.32077 V 122.8033 h 2.9114 v 0.83703 q 0.58229,-0.56408 1.20096,-0.80063 0.63687,-0.23656 1.29194,-0.23656 0.63687,0 1.09178,0.32754 0.4731,0.30934 0.70965,0.92801 0.61868,-0.69146 1.29194,-0.9644 0.69146,-0.29115 1.38292,-0.29115 0.61867,0 1.07358,0.30934 0.45491,0.29114 0.70965,0.87342 0.25475,0.56409 0.25475,1.36473 v 8.17014 h -2.91141 v -7.86081 q 0,-0.43671 -0.16376,-0.61867 -0.14557,-0.20016 -0.45491,-0.20016 -0.18196,0 -0.45491,0.10918 -0.27294,0.091 -0.52769,0.27294 0,0.0364 0,0.0728 0,0.0182 0,0.0546 v 8.17014 h -2.87501 v -7.86081 q 0,-0.43671 -0.16377,-0.61867 -0.16377,-0.20016 -0.47311,-0.20016 -0.20015,0 -0.4731,0.10918 -0.25475,0.091 -0.5095,0.27294 v 8.29752 z"
         id="path22878" />
    </g>
    <path
       d="m 103.8924,120.33982 q -0.20325,0 -0.32763,-0.065 -0.12149,-0.0678 -0.1808,-0.22031 -0.0564,-0.15253 -0.0564,-0.42084 v -1.29925 h 0.25421 v 1.29925 q 0,0.30221 0.0762,0.42084 0.0762,0.11581 0.23443,0.11581 0.15815,0 0.23442,-0.11581 0.0762,-0.11863 0.0762,-0.42084 v -1.29925 h 0.25422 v 1.29925 q 0,0.26832 -0.0593,0.42084 -0.0564,0.15253 -0.1808,0.22031 -0.1215,0.065 -0.3248,0.065 z"
       style="font-style:normal;font-variant:normal;font-weight:normal;font-stretch:normal;font-size:11.124px;line-height:1.25;font-family:Cuprum;-inkscape-font-specification:Cuprum;letter-spacing:0px;word-spacing:0px;fill:#e6e6e6;fill-opacity:1;stroke:none;stroke-width:0.0873519"
       id="path13836-4-2" />
    <path
       d="m 104.82316,120.31157 v -1.97711 h 0.28244 l 0.579,1.39811 h 0.0144 v -1.39811 h 0.25421 v 1.97711 h -0.28245 l -0.57901,-1.3981 h -0.0145 v 1.3981 z"
       style="font-style:normal;font-variant:normal;font-weight:normal;font-stretch:normal;font-size:11.124px;line-height:1.25;font-family:Cuprum;-inkscape-font-specification:Cuprum;letter-spacing:0px;word-spacing:0px;fill:#e6e6e6;fill-opacity:1;stroke:none;stroke-width:0.0873519"
       id="path13838-1-7" />
    <path
       d="m 106.3457,120.31157 v -1.97711 h 0.25421 v 1.97711 z"
       style="font-style:normal;font-variant:normal;font-weight:normal;font-stretch:normal;font-size:11.124px;line-height:1.25;font-family:Cuprum;-inkscape-font-specification:Cuprum;letter-spacing:0px;word-spacing:0px;fill:#e6e6e6;fill-opacity:1;stroke:none;stroke-width:0.0873519"
       id="path13840-2-4" />
    <path
       d="m 107.30735,120.31157 -0.45192,-1.97711 h 0.25421 l 0.37565,1.70879 h 0.0103 l 0.37564,-1.70879 h 0.25422 l -0.45193,1.97711 z"
       style="font-style:normal;font-variant:normal;font-weight:normal;font-stretch:normal;font-size:11.124px;line-height:1.25;font-family:Cuprum;-inkscape-font-specification:Cuprum;letter-spacing:0px;word-spacing:0px;fill:#e6e6e6;fill-opacity:1;stroke:none;stroke-width:0.0873519"
       id="path13842-9-8" />
    <path
       d="m 108.38128,120.31157 v -1.97711 h 0.96034 v 0.19771 h -0.70612 v 0.64962 h 0.62138 v 0.19771 h -0.62138 v 0.73436 h 0.70612 v 0.19771 z"
       style="font-style:normal;font-variant:normal;font-weight:normal;font-stretch:normal;font-size:11.124px;line-height:1.25;font-family:Cuprum;-inkscape-font-specification:Cuprum;letter-spacing:0px;word-spacing:0px;fill:#e6e6e6;fill-opacity:1;stroke:none;stroke-width:0.0873519"
       id="path13844-9-7" />
    <path
       d="m 109.65009,118.3627 q 0.18925,-0.0564 0.45192,-0.0564 0.23161,0 0.36435,0.065 0.1355,0.0622 0.1948,0.20901 0.0622,0.14686 0.0622,0.40389 0,0.2768 -0.0707,0.42367 -0.0678,0.14404 -0.21183,0.19771 l 0.33893,0.70611 h -0.28244 l -0.31068,-0.64962 h -0.28245 v 0.64962 h -0.25421 z m 0.45192,1.10154 q 0.19481,0 0.27961,-0.10451 0.0875,-0.10733 0.0875,-0.37565 0,-0.18925 -0.0396,-0.29656 -0.0367,-0.10733 -0.11572,-0.15253 -0.0791,-0.0452 -0.21184,-0.0452 h -0.19769 v 0.97443 z"
       style="font-style:normal;font-variant:normal;font-weight:normal;font-stretch:normal;font-size:11.124px;line-height:1.25;font-family:Cuprum;-inkscape-font-specification:Cuprum;letter-spacing:0px;word-spacing:0px;fill:#e6e6e6;fill-opacity:1;stroke:none;stroke-width:0.0873519"
       id="path13846-2-8" />
    <path
       d="m 111.40368,120.33982 q -0.11861,0 -0.23726,-0.0169 -0.11862,-0.0169 -0.18636,-0.0396 v -0.12709 h 0.36716 q 0.23726,0 0.33611,-0.0847 0.10172,-0.0847 0.10172,-0.26833 0,-0.1045 -0.0453,-0.17229 -0.0451,-0.0706 -0.11305,-0.11298 -0.0678,-0.0424 -0.18924,-0.0988 -0.14683,-0.065 -0.24007,-0.1271 -0.0904,-0.0622 -0.15527,-0.17794 -0.0622,-0.11582 -0.0622,-0.29939 0,-0.25703 0.12994,-0.38131 0.13282,-0.12709 0.40672,-0.12709 0.11861,0 0.23727,0.0169 0.11861,0.0169 0.18636,0.0396 v 0.1271 H 111.573 q -0.16948,0 -0.25422,0.0819 -0.0846,0.0819 -0.0846,0.2429 0,0.11297 0.048,0.18924 0.048,0.0734 0.11861,0.11864 0.0736,0.0452 0.19481,0.10168 0.14682,0.0706 0.23161,0.12992 0.0875,0.0593 0.1497,0.16948 0.0622,0.10733 0.0622,0.27962 0,0.27962 -0.14683,0.40954 -0.14394,0.1271 -0.48861,0.1271 z"
       style="font-style:normal;font-variant:normal;font-weight:normal;font-stretch:normal;font-size:11.124px;line-height:1.25;font-family:Cuprum;-inkscape-font-specification:Cuprum;letter-spacing:0px;word-spacing:0px;fill:#e6e6e6;fill-opacity:1;stroke:none;stroke-width:0.0873519"
       id="path13848-2-8" />
    <path
       d="m 112.33663,120.31157 v -1.97711 h 0.25421 v 1.97711 z"
       style="font-style:normal;font-variant:normal;font-weight:normal;font-stretch:normal;font-size:11.124px;line-height:1.25;font-family:Cuprum;-inkscape-font-specification:Cuprum;letter-spacing:0px;word-spacing:0px;fill:#e6e6e6;fill-opacity:1;stroke:none;stroke-width:0.0873519"
       id="path13850-3-3" />
    <path
       d="m 113.43949,120.33982 q -0.26267,0 -0.45192,-0.0565 v -1.92062 q 0.18925,-0.0564 0.45192,-0.0564 0.23725,0 0.38411,0.0932 0.14683,0.0904 0.22032,0.31351 0.0735,0.22031 0.0735,0.61009 0,0.38977 -0.0735,0.6129 -0.0735,0.22031 -0.22032,0.31352 -0.14682,0.0904 -0.38411,0.0904 z m 0,-0.18359 q 0.1355,0 0.22879,-0.0734 0.0933,-0.0734 0.14415,-0.25703 0.0509,-0.18358 0.0509,-0.50275 0,-0.31916 -0.0509,-0.50275 -0.0509,-0.18358 -0.14415,-0.25703 -0.0933,-0.0734 -0.22879,-0.0734 h -0.19769 v 1.66643 z"
       style="font-style:normal;font-variant:normal;font-weight:normal;font-stretch:normal;font-size:11.124px;line-height:1.25;font-family:Cuprum;-inkscape-font-specification:Cuprum;letter-spacing:0px;word-spacing:0px;fill:#e6e6e6;fill-opacity:1;stroke:none;stroke-width:0.0873519"
       id="path13852-8-1" />
    <path
       d="m 114.25858,120.31157 0.48016,-1.97711 h 0.36717 l 0.48016,1.97711 h -0.25419 l -0.12705,-0.5084 h -0.5649 l -0.12705,0.5084 z m 0.42367,-0.70611 h 0.48015 l -0.23442,-0.98855 h -0.0124 z"
       style="font-style:normal;font-variant:normal;font-weight:normal;font-stretch:normal;font-size:11.124px;line-height:1.25;font-family:Cuprum;-inkscape-font-specification:Cuprum;letter-spacing:0px;word-spacing:0px;fill:#e6e6e6;fill-opacity:1;stroke:none;stroke-width:0.0873519"
       id="path13854-8-9" />
    <path
       d="m 116.29153,120.33982 q -0.26268,0 -0.45193,-0.0565 v -1.92062 q 0.18925,-0.0564 0.45193,-0.0564 0.23724,0 0.38411,0.0932 0.14682,0.0904 0.22032,0.31351 0.0735,0.22031 0.0735,0.61009 0,0.38977 -0.0735,0.6129 -0.0736,0.22031 -0.22032,0.31352 -0.14682,0.0904 -0.38411,0.0904 z m 0,-0.18359 q 0.1355,0 0.22878,-0.0734 0.0933,-0.0734 0.14394,-0.25703 0.0509,-0.18358 0.0509,-0.50275 0,-0.31916 -0.0509,-0.50275 -0.0509,-0.18358 -0.14394,-0.25703 -0.0933,-0.0734 -0.22878,-0.0734 h -0.19769 v 1.66643 z"
       style="font-style:normal;font-variant:normal;font-weight:normal;font-stretch:normal;font-size:11.124px;line-height:1.25;font-family:Cuprum;-inkscape-font-specification:Cuprum;letter-spacing:0px;word-spacing:0px;fill:#e6e6e6;fill-opacity:1;stroke:none;stroke-width:0.0873519"
       id="path13856-2-9" />
    <path
       d="m 118.46502,120.33982 q -0.26268,0 -0.4519,-0.0565 v -1.92062 q 0.18925,-0.0564 0.4519,-0.0564 0.23726,0 0.38413,0.0932 0.14682,0.0904 0.2203,0.31351 0.0735,0.22031 0.0735,0.61009 0,0.38977 -0.0735,0.6129 -0.0735,0.22031 -0.2203,0.31352 -0.14682,0.0904 -0.38413,0.0904 z m 0,-0.18359 q 0.1355,0 0.22878,-0.0734 0.0933,-0.0734 0.14415,-0.25703 0.0509,-0.18358 0.0509,-0.50275 0,-0.31916 -0.0509,-0.50275 -0.0509,-0.18358 -0.14415,-0.25703 -0.0933,-0.0734 -0.22878,-0.0734 h -0.19769 v 1.66643 z"
       style="font-style:normal;font-variant:normal;font-weight:normal;font-stretch:normal;font-size:11.124px;line-height:1.25;font-family:Cuprum;-inkscape-font-specification:Cuprum;letter-spacing:0px;word-spacing:0px;fill:#e6e6e6;fill-opacity:1;stroke:none;stroke-width:0.0873519"
       id="path13858-3-9" />
    <path
       d="m 119.4805,120.31157 v -1.97711 h 0.96033 v 0.19771 h -0.70612 v 0.64962 h 0.62137 v 0.19771 h -0.62137 v 0.73436 h 0.70612 v 0.19771 z"
       style="font-style:normal;font-variant:normal;font-weight:normal;font-stretch:normal;font-size:11.124px;line-height:1.25;font-family:Cuprum;-inkscape-font-specification:Cuprum;letter-spacing:0px;word-spacing:0px;fill:#e6e6e6;fill-opacity:1;stroke:none;stroke-width:0.0873519"
       id="path13860-2-7" />
    <path
       d="m 120.7493,120.31157 v -1.97711 h 0.25419 v 1.7794 h 0.70612 v 0.19771 z"
       style="font-style:normal;font-variant:normal;font-weight:normal;font-stretch:normal;font-size:11.124px;line-height:1.25;font-family:Cuprum;-inkscape-font-specification:Cuprum;letter-spacing:0px;word-spacing:0px;fill:#e6e6e6;fill-opacity:1;stroke:none;stroke-width:0.0873519"
       id="path13862-5-8" />
    <path
       d="m 122.64145,118.3627 q 0.18925,-0.0564 0.45193,-0.0564 0.2316,0 0.36434,0.065 0.1355,0.065 0.19481,0.21748 0.0622,0.15253 0.0622,0.42367 0,0.27397 -0.0564,0.43214 -0.0564,0.15535 -0.17504,0.22313 -0.11573,0.065 -0.30504,0.065 -0.0622,0 -0.14414,-0.008 -0.082,-0.008 -0.13838,-0.0198 v 0.60726 h -0.2542 z m 0.45193,1.17215 q 0.13282,0 0.21184,-0.0452 0.0791,-0.048 0.11572,-0.16099 0.0396,-0.11297 0.0396,-0.31633 0,-0.20336 -0.0396,-0.31634 -0.0367,-0.11297 -0.11572,-0.15817 -0.0791,-0.048 -0.21184,-0.048 h -0.19769 v 1.04504 z"
       style="font-style:normal;font-variant:normal;font-weight:normal;font-stretch:normal;font-size:11.124px;line-height:1.25;font-family:Cuprum;-inkscape-font-specification:Cuprum;letter-spacing:0px;word-spacing:0px;fill:#e6e6e6;fill-opacity:1;stroke:none;stroke-width:0.0873519"
       id="path13864-8-2" />
    <path
       d="m 123.80213,120.31157 0.48015,-1.97711 h 0.36719 l 0.48015,1.97711 h -0.25419 l -0.12706,-0.5084 h -0.56489 l -0.12705,0.5084 z m 0.42367,-0.70611 h 0.48015 l -0.23442,-0.98855 h -0.0124 z"
       style="font-style:normal;font-variant:normal;font-weight:normal;font-stretch:normal;font-size:11.124px;line-height:1.25;font-family:Cuprum;-inkscape-font-specification:Cuprum;letter-spacing:0px;word-spacing:0px;fill:#e6e6e6;fill-opacity:1;stroke:none;stroke-width:0.0873519"
       id="path13866-8-0" />
    <path
       d="m 125.89288,120.33982 q -0.20901,0 -0.34457,-0.0904 -0.1355,-0.0932 -0.2062,-0.31634 -0.0706,-0.22313 -0.0706,-0.61008 0,-0.38413 0.0706,-0.60726 0.0707,-0.22313 0.19769,-0.31634 0.12994,-0.0932 0.32483,-0.0932 0.11861,0 0.23725,0.0169 0.11861,0.0169 0.18636,0.0396 v 0.1271 h -0.36719 q -0.18924,0 -0.29375,0.18358 -0.10173,0.18358 -0.10173,0.64963 0,0.31916 0.0509,0.50275 0.0509,0.1836 0.14394,0.25702 0.0933,0.0734 0.22878,0.0734 h 0.36719 v 0.1271 q -0.0678,0.0226 -0.18636,0.0396 -0.11573,0.0169 -0.23725,0.0169 z"
       style="font-style:normal;font-variant:normal;font-weight:normal;font-stretch:normal;font-size:11.124px;line-height:1.25;font-family:Cuprum;-inkscape-font-specification:Cuprum;letter-spacing:0px;word-spacing:0px;fill:#e6e6e6;fill-opacity:1;stroke:none;stroke-width:0.0873519"
       id="path13868-0-9" />
    <path
       d="m 126.60054,118.19323 0.0988,-0.36717 h 0.26832 l -0.19769,0.36717 z m -0.0424,2.11834 v -1.97711 h 0.25419 v 1.97711 z"
       style="font-style:normal;font-variant:normal;font-weight:normal;font-stretch:normal;font-size:11.124px;line-height:1.25;font-family:Cuprum;-inkscape-font-specification:Cuprum;letter-spacing:0px;word-spacing:0px;fill:#e6e6e6;fill-opacity:1;stroke:none;stroke-width:0.0873519"
       id="path13870-6-0" />
    <path
       d="m 127.20913,120.31157 v -1.97711 h 0.96031 v 0.19771 h -0.70611 v 0.69199 h 0.59314 v 0.1977 h -0.59314 v 0.88971 z"
       style="font-style:normal;font-variant:normal;font-weight:normal;font-stretch:normal;font-size:11.124px;line-height:1.25;font-family:Cuprum;-inkscape-font-specification:Cuprum;letter-spacing:0px;word-spacing:0px;fill:#e6e6e6;fill-opacity:1;stroke:none;stroke-width:0.0873519"
       id="path13872-2-9" />
    <path
       d="m 128.42275,120.31157 v -1.97711 h 0.25421 v 1.97711 z"
       style="font-style:normal;font-variant:normal;font-weight:normal;font-stretch:normal;font-size:11.124px;line-height:1.25;font-family:Cuprum;-inkscape-font-specification:Cuprum;letter-spacing:0px;word-spacing:0px;fill:#e6e6e6;fill-opacity:1;stroke:none;stroke-width:0.0873519"
       id="path13874-4-8" />
    <path
       d="m 129.63859,120.33982 q -0.20899,0 -0.34457,-0.0904 -0.13551,-0.0932 -0.2062,-0.31634 -0.0707,-0.22313 -0.0707,-0.61008 0,-0.38413 0.0707,-0.60726 0.0706,-0.22313 0.19769,-0.31634 0.12994,-0.0932 0.32483,-0.0932 0.11861,0 0.23724,0.0169 0.11862,0.0169 0.18636,0.0396 v 0.1271 h -0.36718 q -0.18925,0 -0.29375,0.18358 -0.10173,0.18358 -0.10173,0.64963 0,0.31916 0.0509,0.50275 0.0509,0.1836 0.14394,0.25702 0.0933,0.0734 0.22879,0.0734 h 0.36718 v 0.1271 q -0.0678,0.0226 -0.18636,0.0396 -0.11573,0.0169 -0.23724,0.0169 z"
       style="font-style:normal;font-variant:normal;font-weight:normal;font-stretch:normal;font-size:11.124px;line-height:1.25;font-family:Cuprum;-inkscape-font-specification:Cuprum;letter-spacing:0px;word-spacing:0px;fill:#e6e6e6;fill-opacity:1;stroke:none;stroke-width:0.0873519"
       id="path13876-3-6" />
    <path
       d="m 130.79949,120.33982 q -0.20058,0 -0.33329,-0.0904 -0.13282,-0.0932 -0.20325,-0.31634 -0.0706,-0.22596 -0.0706,-0.61008 0,-0.38413 0.0706,-0.60726 0.0707,-0.22596 0.20325,-0.31634 0.13282,-0.0932 0.33329,-0.0932 0.20057,0 0.33328,0.0932 0.13283,0.0904 0.20325,0.31634 0.0706,0.22313 0.0706,0.60726 0,0.38412 -0.0706,0.61008 -0.0706,0.22313 -0.20325,0.31634 -0.13281,0.0904 -0.33328,0.0904 z m 0,-0.16948 q 0.35305,0 0.35305,-0.84733 0,-0.84734 -0.35305,-0.84734 -0.35306,0 -0.35306,0.84734 0,0.84733 0.35306,0.84733 z"
       style="font-style:normal;font-variant:normal;font-weight:normal;font-stretch:normal;font-size:11.124px;line-height:1.25;font-family:Cuprum;-inkscape-font-specification:Cuprum;letter-spacing:0px;word-spacing:0px;fill:#e6e6e6;fill-opacity:1;stroke:none;stroke-width:0.0873519"
       id="path13878-6-7" />
  </g>
</svg>
