<?xml version="1.0" encoding="UTF-8" standalone="no"?>
<!-- Created with Inkscape (http://www.inkscape.org/) -->

<svg
   width="90"
   height="40"
   viewBox="0 0 23.812499 10.583333"
   version="1.1"
   id="svg222344"
   inkscape:version="1.2.2 (732a01da63, 2022-12-09)"
   sodipodi:docname="CB.svg"
   xmlns:inkscape="http://www.inkscape.org/namespaces/inkscape"
   xmlns:sodipodi="http://sodipodi.sourceforge.net/DTD/sodipodi-0.dtd"
   xmlns="http://www.w3.org/2000/svg"
   xmlns:svg="http://www.w3.org/2000/svg">
  <sodipodi:namedview
     id="namedview222346"
     pagecolor="#ffffff"
     bordercolor="#000000"
     borderopacity="0.25"
     inkscape:showpageshadow="2"
     inkscape:pageopacity="0.0"
     inkscape:pagecheckerboard="0"
     inkscape:deskcolor="#d1d1d1"
     inkscape:document-units="mm"
     showgrid="false"
     inkscape:zoom="2.8284271"
     inkscape:cx="55.154329"
     inkscape:cy="94.045202"
     inkscape:window-width="1920"
     inkscape:window-height="1017"
     inkscape:window-x="1912"
     inkscape:window-y="88"
     inkscape:window-maximized="1"
     inkscape:current-layer="layer1" />
  <defs
     id="defs222341">
    <rect
       x="168.31396"
       y="100.47639"
       width="190.91032"
       height="81.24514"
       id="rect79151-8-1-0-667-2-3-0-9" />
    <clipPath
       clipPathUnits="userSpaceOnUse"
       id="clipPath830-1-8-8-1-1-9-0">
      <path
         inkscape:connector-curvature="0"
         d="m 618.997,356.172 h 1.586 v -65.755 h -1.586 z"
         id="path832-2-6-6-5-6-7-5" />
    </clipPath>
    <rect
       x="168.31396"
       y="100.47639"
       width="190.91032"
       height="81.24514"
       id="rect79151-8-1-0-667-2-3-0-9-0" />
    <clipPath
       clipPathUnits="userSpaceOnUse"
       id="clipPath830-1-8-8-1-1-2">
      <path
         inkscape:connector-curvature="0"
         d="m 618.997,356.172 h 1.586 v -65.755 h -1.586 z"
         id="path832-2-6-6-5-6-9" />
    </clipPath>
    <rect
       x="168.31396"
       y="100.47639"
       width="190.91032"
       height="81.24514"
       id="rect79151-8-1-0-667-2-3-0" />
    <clipPath
       clipPathUnits="userSpaceOnUse"
       id="clipPath830-1-8-8-1-1">
      <path
         inkscape:connector-curvature="0"
         d="m 618.997,356.172 h 1.586 v -65.755 h -1.586 z"
         id="path832-2-6-6-5-6" />
    </clipPath>
    <rect
       x="168.31396"
       y="100.47639"
       width="190.91032"
       height="81.24514"
       id="rect79151-8-1-0-667-2-3" />
    <clipPath
       clipPathUnits="userSpaceOnUse"
       id="clipPath830-1-8-8-1">
      <path
         inkscape:connector-curvature="0"
         d="m 618.997,356.172 h 1.586 v -65.755 h -1.586 z"
         id="path832-2-6-6-5" />
    </clipPath>
    <rect
       x="168.31396"
       y="100.47639"
       width="190.91032"
       height="81.24514"
       id="rect79151-8-1-0-667-2-3-0-3" />
    <clipPath
       clipPathUnits="userSpaceOnUse"
       id="clipPath830-1-8-8-1-1-9">
      <path
         inkscape:connector-curvature="0"
         d="m 618.997,356.172 h 1.586 v -65.755 h -1.586 z"
         id="path832-2-6-6-5-6-7" />
    </clipPath>
    <rect
       x="168.31396"
       y="100.47639"
       width="190.91032"
       height="81.24514"
       id="rect79151-8-1-0-667-2-3-0-9-6" />
    <clipPath
       clipPathUnits="userSpaceOnUse"
       id="clipPath830-1-8-8-1-1-2-6">
      <path
         inkscape:connector-curvature="0"
         d="m 618.997,356.172 h 1.586 v -65.755 h -1.586 z"
         id="path832-2-6-6-5-6-9-4" />
    </clipPath>
    <rect
       x="168.31396"
       y="100.47639"
       width="190.91032"
       height="81.24514"
       id="rect79151-8-1-0-667-2-3-0-9-6-1-9" />
    <clipPath
       clipPathUnits="userSpaceOnUse"
       id="clipPath830-1-8-8-1-1-2-6-4-4">
      <path
         inkscape:connector-curvature="0"
         d="m 618.997,356.172 h 1.586 v -65.755 h -1.586 z"
         id="path832-2-6-6-5-6-9-4-6-8" />
    </clipPath>
    <rect
       x="168.31396"
       y="100.47639"
       width="190.91032"
       height="81.24514"
       id="rect79151-8-1-0-667-2-3-0-3-4-6" />
    <clipPath
       clipPathUnits="userSpaceOnUse"
       id="clipPath830-1-8-8-1-1-9-2-2">
      <path
         inkscape:connector-curvature="0"
         d="m 618.997,356.172 h 1.586 v -65.755 h -1.586 z"
         id="path832-2-6-6-5-6-7-4-9" />
    </clipPath>
    <rect
       x="168.31396"
       y="100.47639"
       width="190.91032"
       height="81.24514"
       id="rect79151-8-1-0-667-2-3-0-3-4-5" />
    <clipPath
       clipPathUnits="userSpaceOnUse"
       id="clipPath830-1-8-8-1-1-9-2-8">
      <path
         inkscape:connector-curvature="0"
         d="m 618.997,356.172 h 1.586 v -65.755 h -1.586 z"
         id="path832-2-6-6-5-6-7-4-1" />
    </clipPath>
    <rect
       x="168.31396"
       y="100.47639"
       width="190.91032"
       height="81.24514"
       id="rect79151-8-1-0-667-2-3-0-3-4" />
    <clipPath
       clipPathUnits="userSpaceOnUse"
       id="clipPath830-1-8-8-1-1-9-2">
      <path
         inkscape:connector-curvature="0"
         d="m 618.997,356.172 h 1.586 v -65.755 h -1.586 z"
         id="path832-2-6-6-5-6-7-4" />
    </clipPath>
  </defs>
  <g
     inkscape:label="Capa 1"
     inkscape:groupmode="layer"
     id="layer1">
    <g
       id="g11746"
       style="display:inline"
       transform="translate(-190.41974,-308.51766)">
      <text
         xml:space="preserve"
         transform="matrix(0.10820187,0,0,0.10820187,188.31311,306.31958)"
         id="text79149-6-2-4-6-5-6-6-9"
         style="font-style:normal;font-variant:normal;font-weight:normal;font-stretch:normal;font-size:13.1498px;line-height:14.2457px;font-family:Cuprum;-inkscape-font-specification:'Cuprum, Normal';font-variant-ligatures:normal;font-variant-caps:normal;font-variant-numeric:normal;font-variant-east-asian:normal;text-align:start;white-space:pre;shape-inside:url(#rect79151-8-1-0-667-2-3-0-3-4);shape-padding:1.91993;display:inline;fill:#ffffff;fill-opacity:1;stroke-width:3.77953"
         x="-74.904991"
         y="0"><tspan
           x="170.23438"
           y="113.13411"
           id="tspan11885">Componente</tspan></text>
      <g
         id="g834-6-5-0-3-9-8"
         style="fill:#ffffff;fill-opacity:1"
         transform="matrix(0.13522488,0,0,-0.13522488,119.28208,357.27342)">
        <g
           clip-path="url(#clipPath830-1-8-8-1-1-9-2)"
           id="g836-9-2-3-0-2-1"
           style="fill:#ffffff;fill-opacity:1">
          <g
             transform="translate(619.7891,351.418)"
             id="g838-2-8-0-1-4-4"
             style="fill:#ffffff;fill-opacity:1">
            <path
               inkscape:connector-curvature="0"
               d="m 0,0 c -0.438,0 -0.792,0.354 -0.792,0.793 v 3.168 c 0,0.438 0.354,0.793 0.792,0.793 0.438,0 0.794,-0.355 0.794,-0.793 V 0.793 C 0.794,0.354 0.438,0 0,0 m 0,-8.713 c -0.438,0 -0.792,0.354 -0.792,0.791 v 3.17 c 0,0.437 0.354,0.791 0.792,0.791 0.438,0 0.794,-0.354 0.794,-0.791 v -3.17 C 0.794,-8.359 0.438,-8.713 0,-8.713 m 0,-8.716 c -0.438,0 -0.792,0.355 -0.792,0.793 v 3.168 c 0,0.44 0.354,0.793 0.792,0.793 0.438,0 0.794,-0.353 0.794,-0.793 v -3.168 c 0,-0.438 -0.356,-0.793 -0.794,-0.793 m 0,-8.714 c -0.438,0 -0.792,0.354 -0.792,0.792 v 3.169 c 0,0.438 0.354,0.792 0.792,0.792 0.438,0 0.794,-0.354 0.794,-0.792 v -3.169 c 0,-0.438 -0.356,-0.792 -0.794,-0.792 m 0,-8.714 c -0.438,0 -0.792,0.354 -0.792,0.792 v 3.169 c 0,0.438 0.354,0.792 0.792,0.792 0.438,0 0.794,-0.354 0.794,-0.792 v -3.169 c 0,-0.438 -0.356,-0.792 -0.794,-0.792 m 0,-8.714 c -0.438,0 -0.792,0.353 -0.792,0.791 v 3.17 c 0,0.436 0.354,0.792 0.792,0.792 0.438,0 0.794,-0.356 0.794,-0.792 v -3.17 c 0,-0.438 -0.356,-0.791 -0.794,-0.791 m 0,-8.715 c -0.438,0 -0.792,0.354 -0.792,0.792 v 3.169 c 0,0.438 0.354,0.792 0.792,0.792 0.438,0 0.794,-0.354 0.794,-0.792 v -3.169 c 0,-0.438 -0.356,-0.792 -0.794,-0.792 m 0,-8.715 c -0.438,0 -0.792,0.355 -0.792,0.793 v 3.169 c 0,0.437 0.354,0.792 0.792,0.792 0.438,0 0.794,-0.355 0.794,-0.792 v -3.169 c 0,-0.438 -0.356,-0.793 -0.794,-0.793"
               style="fill:#ffffff;fill-opacity:1;fill-rule:nonzero;stroke:none"
               id="path840-1-8-7-9-8-7" />
          </g>
        </g>
      </g>
      <text
         id="text244-5-4-9-3-9-6-0-7-8"
         style="font-size:10.8704px;line-height:0%;font-family:Roboto;-inkscape-font-specification:Roboto;fill:#ffffff;fill-opacity:1;stroke-width:0.177808"
         x="190.41902"
         y="317.91498"><tspan
           style="font-style:normal;font-variant:normal;font-weight:normal;font-stretch:normal;font-size:10.8704px;line-height:1.25;font-family:Oswald;-inkscape-font-specification:Oswald;writing-mode:lr-tb;fill:#ffffff;fill-opacity:1;fill-rule:nonzero;stroke:none;stroke-width:0.177808"
           sodipodi:role="line"
           id="tspan246-2-6-0-5-7-9-4-1-2"
           x="190.41902"
           y="317.91498">CB</tspan></text>
      <g
         transform="matrix(0.14051667,0,0,0.14051667,204.87523,308.79316)"
         style="display:inline;fill:#ffffff;fill-opacity:1;stroke:none"
         id="People-1">
        <g
           style="fill:#ffffff;fill-opacity:1"
           id="Icon-23-7">
          <path
             inkscape:connector-curvature="0"
             d="m 50.0303,43 c 0,-0.552 -0.448,-1 -1,-1 h -0.011 c -0.551,0 -0.994,0.448 -0.994,1 0,0.552 0.452,1 1.005,1 0.552,0 1,-0.448 1,-1 z m -23.01,1 c -0.552,0 -0.995,0.448 -0.995,1 0,0.552 0.452,1 1.005,1 0.552,0 1,-0.448 1,-1 0,-0.552 -0.448,-1 -1,-1 z m 5.01,-5 c 0,-0.552 -0.448,-1 -1,-1 h -0.011 c -0.551,0 -0.994,0.448 -0.994,1 0,0.552 0.452,1 1.005,1 0.552,0 1,-0.448 1,-1 z m 17.97,-17 c 0,1.103 0.897,2 2,2 1.102,0 2,-0.897 2,-2 0,-1.103 -0.898,-2 -2,-2 -1.103,0 -2,0.897 -2,2 z m -40,2 c 0,1.103 0.897,2 2,2 1.103,0 2,-0.897 2,-2 0,-1.103 -0.897,-2 -2,-2 -1.103,0 -2,0.897 -2,2 z m -2,-17 c 0,0.551 0.448,1 1,1 0.551,0 1,-0.449 1,-1 0,-0.551 -0.449,-1 -1,-1 -0.552,0 -1,0.449 -1,1 z m -2,0 c 0,-1.654 1.345,-3 3,-3 1.654,0 3,1.346 3,3 0,1.654 -1.346,3 -3,3 -1.655,0 -3,-1.346 -3,-3 z m 24,-3 c 0,1.103 0.897,2 2,2 1.102,0 2,-0.897 2,-2 0,-1.103 -0.898,-2 -2,-2 -1.103,0 -2,0.897 -2,2 z m -2,0 c 0,-2.206 1.794,-4 4,-4 2.206,0 4,1.794 4,4 0,2.206 -1.794,4 -4,4 -2.206,0 -4,-1.794 -4,-4 z m -15,46 c -0.553,0 -1,0.448 -1,1 0,1.103 -0.897,2 -2,2 -0.553,0 -1,0.448 -1,1 0,0.552 0.447,1 1,1 2.205,0 4,-1.794 4,-4 0,-0.552 -0.448,-1 -1,-1 z m 37,5 c 2.206,0 4,-1.794 4,-4 0,-0.552 -0.448,-1 -1,-1 -0.553,0 -1,0.448 -1,1 0,1.103 -0.898,2 -2,2 -0.553,0 -1,0.448 -1,1 0,0.552 0.447,1 1,1 z m -21,-1 c 0,0.552 0.447,1 1,1 2.206,0 4,-1.794 4,-4 0,-0.552 -0.448,-1 -1,-1 -0.553,0 -1,0.448 -1,1 0,1.103 -0.898,2 -2,2 -0.553,0 -1,0.448 -1,1 z m 31,-39 c 0,0.552 -0.448,1 -1,1 h -15 v 20 h 9 c 0.552,0 1,0.448 1,1 0,0.552 -0.448,1 -1,1 h -9 v 14 c 0,3.309 2.691,6 6,6 3.308,0 6,-2.691 6,-6 V 19 c 0,-0.552 0.447,-1 1,-1 0.552,0 1,0.448 1,1 v 33 c 0,4.411 -3.589,8 -8,8 -4.411,0 -8,-3.589 -8,-8 V 16 h -18 v 12 h 9 c 0.552,0 1,0.448 1,1 0,0.552 -0.448,1 -1,1 h -9 v 22 c 0,3.309 2.691,6 6,6 3.308,0 6,-2.691 6,-6 V 19 c 0,-0.552 0.447,-1 1,-1 0.552,0 1,0.448 1,1 v 33 c 0,4.411 -3.589,8 -8,8 -4.411,0 -8,-3.589 -8,-8 V 16 h -18 v 16 h 9 c 0.552,0 1,0.448 1,1 0,0.552 -0.448,1 -1,1 h -9 v 18 c 0,3.309 2.691,6 6,6 3.308,0 6,-2.691 6,-6 V 19 c 0,-0.552 0.447,-1 1,-1 0.552,0 1,0.448 1,1 v 33 c 0,4.411 -3.589,8 -8,8 -4.411,0 -8,-3.589 -8,-8 V 16 h -1 c -0.553,0 -1,-0.448 -1,-1 0,-0.552 0.447,-1 1,-1 h 1 V 9 c 0,-0.552 0.447,-1 1,-1 0.552,0 1,0.448 1,1 v 5 h 12 V 9 c 0,-0.552 0.447,-1 1,-1 0.552,0 1,0.448 1,1 v 5 h 4 V 9 c 0,-0.552 0.447,-1 1,-1 0.552,0 1,0.448 1,1 v 5 h 12 V 9 c 0,-0.552 0.447,-1 1,-1 0.552,0 1,0.448 1,1 v 5 h 4 V 9 c 0,-0.552 0.447,-1 1,-1 0.552,0 1,0.448 1,1 v 5 h 12 V 9 c 0,-0.552 0.447,-1 1,-1 0.552,0 1,0.448 1,1 v 5 h 1 c 0.552,0 1,0.448 1,1 z"
             id="chemistry-tubes-1"
             style="fill:#ffffff;fill-opacity:1" />
        </g>
      </g>
    </g>
  </g>
</svg>
