<?xml version="1.0" encoding="UTF-8" standalone="no"?>
<!-- Created with Inkscape (http://www.inkscape.org/) -->

<svg
   width="90"
   height="40"
   viewBox="0 0 23.812499 10.583333"
   version="1.1"
   id="svg222344"
   inkscape:version="1.2.2 (732a01da63, 2022-12-09)"
   sodipodi:docname="El.svg"
   xmlns:inkscape="http://www.inkscape.org/namespaces/inkscape"
   xmlns:sodipodi="http://sodipodi.sourceforge.net/DTD/sodipodi-0.dtd"
   xmlns="http://www.w3.org/2000/svg"
   xmlns:svg="http://www.w3.org/2000/svg">
  <sodipodi:namedview
     id="namedview222346"
     pagecolor="#ffffff"
     bordercolor="#000000"
     borderopacity="0.25"
     inkscape:showpageshadow="2"
     inkscape:pageopacity="0.0"
     inkscape:pagecheckerboard="0"
     inkscape:deskcolor="#d1d1d1"
     inkscape:document-units="mm"
     showgrid="false"
     inkscape:zoom="2.8284271"
     inkscape:cx="55.154329"
     inkscape:cy="94.045202"
     inkscape:window-width="1920"
     inkscape:window-height="1017"
     inkscape:window-x="1912"
     inkscape:window-y="88"
     inkscape:window-maximized="1"
     inkscape:current-layer="layer1" />
  <defs
     id="defs222341">
    <rect
       x="168.31396"
       y="100.47639"
       width="190.91032"
       height="81.24514"
       id="rect79151-8-1-0-667-2-3-0-9" />
    <clipPath
       clipPathUnits="userSpaceOnUse"
       id="clipPath830-1-8-8-1-1-9-0">
      <path
         inkscape:connector-curvature="0"
         d="m 618.997,356.172 h 1.586 v -65.755 h -1.586 z"
         id="path832-2-6-6-5-6-7-5" />
    </clipPath>
    <rect
       x="168.31396"
       y="100.47639"
       width="190.91032"
       height="81.24514"
       id="rect79151-8-1-0-667-2-3-0-9-0" />
    <clipPath
       clipPathUnits="userSpaceOnUse"
       id="clipPath830-1-8-8-1-1-2">
      <path
         inkscape:connector-curvature="0"
         d="m 618.997,356.172 h 1.586 v -65.755 h -1.586 z"
         id="path832-2-6-6-5-6-9" />
    </clipPath>
    <rect
       x="168.31396"
       y="100.47639"
       width="190.91032"
       height="81.24514"
       id="rect79151-8-1-0-667-2-3-0" />
    <clipPath
       clipPathUnits="userSpaceOnUse"
       id="clipPath830-1-8-8-1-1">
      <path
         inkscape:connector-curvature="0"
         d="m 618.997,356.172 h 1.586 v -65.755 h -1.586 z"
         id="path832-2-6-6-5-6" />
    </clipPath>
    <rect
       x="168.31396"
       y="100.47639"
       width="190.91032"
       height="81.24514"
       id="rect79151-8-1-0-667-2-3" />
    <clipPath
       clipPathUnits="userSpaceOnUse"
       id="clipPath830-1-8-8-1">
      <path
         inkscape:connector-curvature="0"
         d="m 618.997,356.172 h 1.586 v -65.755 h -1.586 z"
         id="path832-2-6-6-5" />
    </clipPath>
    <rect
       x="168.31396"
       y="100.47639"
       width="190.91032"
       height="81.24514"
       id="rect79151-8-1-0-667-2-3-0-3" />
    <clipPath
       clipPathUnits="userSpaceOnUse"
       id="clipPath830-1-8-8-1-1-9">
      <path
         inkscape:connector-curvature="0"
         d="m 618.997,356.172 h 1.586 v -65.755 h -1.586 z"
         id="path832-2-6-6-5-6-7" />
    </clipPath>
    <rect
       x="168.31396"
       y="100.47639"
       width="190.91032"
       height="81.24514"
       id="rect79151-8-1-0-667-2-3-0-9-6" />
    <clipPath
       clipPathUnits="userSpaceOnUse"
       id="clipPath830-1-8-8-1-1-2-6">
      <path
         inkscape:connector-curvature="0"
         d="m 618.997,356.172 h 1.586 v -65.755 h -1.586 z"
         id="path832-2-6-6-5-6-9-4" />
    </clipPath>
    <rect
       x="168.31396"
       y="100.47639"
       width="190.91032"
       height="81.24514"
       id="rect79151-8-1-0-667-2-3-0-9-6-1-9" />
    <clipPath
       clipPathUnits="userSpaceOnUse"
       id="clipPath830-1-8-8-1-1-2-6-4-4">
      <path
         inkscape:connector-curvature="0"
         d="m 618.997,356.172 h 1.586 v -65.755 h -1.586 z"
         id="path832-2-6-6-5-6-9-4-6-8" />
    </clipPath>
  </defs>
  <g
     inkscape:label="Capa 1"
     inkscape:groupmode="layer"
     id="layer1">
    <g
       id="g11272"
       style="display:inline"
       transform="translate(-101.25746,-442.75637)">
      <text
         xml:space="preserve"
         transform="matrix(0.10820187,0,0,0.10820187,99.215435,440.77671)"
         id="text79149-6-2-4-6-5-6-7-3-8-6"
         style="font-style:normal;font-variant:normal;font-weight:normal;font-stretch:normal;font-size:13.1498px;line-height:14.2457px;font-family:Cuprum;-inkscape-font-specification:'Cuprum, Normal';font-variant-ligatures:normal;font-variant-caps:normal;font-variant-numeric:normal;font-variant-east-asian:normal;text-align:start;white-space:pre;shape-inside:url(#rect79151-8-1-0-667-2-3-0-9-6-1-9);shape-padding:1.91993;display:inline;fill:#ffffff;fill-opacity:1;stroke-width:3.77953"
         x="-74.904991"
         y="0"><tspan
           x="170.23438"
           y="113.13411"
           id="tspan11396">Componente</tspan></text>
      <g
         id="g834-6-5-0-3-8-5-4-9"
         style="fill:#ffffff;fill-opacity:1"
         transform="matrix(0.13522488,0,0,-0.13522488,28.956061,491.73056)">
        <g
           clip-path="url(#clipPath830-1-8-8-1-1-2-6-4-4)"
           id="g836-9-2-3-0-3-4-7-1"
           style="fill:#ffffff;fill-opacity:1">
          <g
             transform="translate(619.7891,351.418)"
             id="g838-2-8-0-1-6-1-3-2"
             style="fill:#ffffff;fill-opacity:1">
            <path
               inkscape:connector-curvature="0"
               d="m 0,0 c -0.438,0 -0.792,0.354 -0.792,0.793 v 3.168 c 0,0.438 0.354,0.793 0.792,0.793 0.438,0 0.794,-0.355 0.794,-0.793 V 0.793 C 0.794,0.354 0.438,0 0,0 m 0,-8.713 c -0.438,0 -0.792,0.354 -0.792,0.791 v 3.17 c 0,0.437 0.354,0.791 0.792,0.791 0.438,0 0.794,-0.354 0.794,-0.791 v -3.17 C 0.794,-8.359 0.438,-8.713 0,-8.713 m 0,-8.716 c -0.438,0 -0.792,0.355 -0.792,0.793 v 3.168 c 0,0.44 0.354,0.793 0.792,0.793 0.438,0 0.794,-0.353 0.794,-0.793 v -3.168 c 0,-0.438 -0.356,-0.793 -0.794,-0.793 m 0,-8.714 c -0.438,0 -0.792,0.354 -0.792,0.792 v 3.169 c 0,0.438 0.354,0.792 0.792,0.792 0.438,0 0.794,-0.354 0.794,-0.792 v -3.169 c 0,-0.438 -0.356,-0.792 -0.794,-0.792 m 0,-8.714 c -0.438,0 -0.792,0.354 -0.792,0.792 v 3.169 c 0,0.438 0.354,0.792 0.792,0.792 0.438,0 0.794,-0.354 0.794,-0.792 v -3.169 c 0,-0.438 -0.356,-0.792 -0.794,-0.792 m 0,-8.714 c -0.438,0 -0.792,0.353 -0.792,0.791 v 3.17 c 0,0.436 0.354,0.792 0.792,0.792 0.438,0 0.794,-0.356 0.794,-0.792 v -3.17 c 0,-0.438 -0.356,-0.791 -0.794,-0.791 m 0,-8.715 c -0.438,0 -0.792,0.354 -0.792,0.792 v 3.169 c 0,0.438 0.354,0.792 0.792,0.792 0.438,0 0.794,-0.354 0.794,-0.792 v -3.169 c 0,-0.438 -0.356,-0.792 -0.794,-0.792 m 0,-8.715 c -0.438,0 -0.792,0.355 -0.792,0.793 v 3.169 c 0,0.437 0.354,0.792 0.792,0.792 0.438,0 0.794,-0.355 0.794,-0.792 v -3.169 c 0,-0.438 -0.356,-0.793 -0.794,-0.793"
               style="fill:#ffffff;fill-opacity:1;fill-rule:nonzero;stroke:none"
               id="path840-1-8-7-9-9-9-1-4" />
          </g>
        </g>
      </g>
      <text
         id="text244-5-4-9-3-9-6-0-1-6-2-7"
         style="font-size:10.8704px;line-height:0%;font-family:Roboto;-inkscape-font-specification:Roboto;fill:#ffffff;fill-opacity:1;stroke-width:0.177808"
         x="101.32133"
         y="452.37213"><tspan
           style="font-style:normal;font-variant:normal;font-weight:normal;font-stretch:normal;font-size:10.8704px;line-height:1.25;font-family:Oswald;-inkscape-font-specification:Oswald;writing-mode:lr-tb;fill:#ffffff;fill-opacity:1;fill-rule:nonzero;stroke:none;stroke-width:0.177808"
           sodipodi:role="line"
           id="tspan246-2-6-0-5-7-9-4-7-7-8-5"
           x="101.32133"
           y="452.37213">El</tspan></text>
      <g
         transform="matrix(0.01136977,0,0,0.01136977,115.79491,442.74647)"
         id="g3-7-1"
         style="display:inline;fill:#f9f9f9">
        <path
           style="fill:#f9f9f9"
           inkscape:connector-curvature="0"
           d="m 424.801,785.841 h -49.61 c -9.245,0 -16.752,-7.502 -16.752,-16.752 V 494.473 h -184.86 c -3.665,0 -7.235,-1.201 -10.152,-3.436 L 66.599,417.252 c -4.085,-3.104 -6.516,-7.908 -6.6,-13.041 -0.094,-5.132 2.188,-10.012 6.15,-13.26 l 96.848,-79.006 c 2.991,-2.445 6.73,-3.777 10.582,-3.777 H 358.438 V 258.324 H 76.751 c -9.255,0 -16.752,-7.497 -16.752,-16.752 V 88.776 c 0,-9.25 7.497,-16.752 16.752,-16.752 H 358.439 V 30.911 c 0,-9.25 7.507,-16.752 16.752,-16.752 h 49.61 c 9.246,0 16.752,7.502 16.752,16.752 v 41.113 h 184.851 c 3.87,0 7.609,1.332 10.601,3.772 l 96.828,79.006 c 3.982,3.248 6.245,8.133 6.17,13.265 -0.094,5.128 -2.523,9.946 -6.6,13.046 l -96.847,73.784 c -2.917,2.221 -6.479,3.427 -10.152,3.427 H 441.553 v 49.844 H 723.25 c 9.246,0 16.752,7.507 16.752,16.752 v 152.801 c 0,9.245 -7.506,16.752 -16.752,16.752 H 441.553 v 274.616 c 0,9.25 -7.506,16.752 -16.752,16.752 z m -32.859,-33.504 h 16.107 V 477.721 c 0,-9.255 7.497,-16.752 16.751,-16.752 H 706.497 V 341.672 H 424.801 c -9.254,0 -16.751,-7.502 -16.751,-16.752 v -83.348 c 0,-9.25 7.497,-16.752 16.751,-16.752 h 195.956 l 75.44,-57.486 -75.758,-61.806 H 424.801 c -9.254,0 -16.751,-7.502 -16.751,-16.752 V 47.663 h -16.107 v 41.113 c 0,9.25 -7.507,16.752 -16.752,16.752 H 93.503 V 224.82 H 375.19 c 9.245,0 16.752,7.502 16.752,16.752 v 83.348 c 0,9.25 -7.507,16.752 -16.752,16.752 H 179.553 l -75.758,61.811 75.449,57.486 H 375.19 c 9.245,0 16.752,7.497 16.752,16.752 z"
           id="path5-7-2" />
      </g>
    </g>
  </g>
</svg>
