<?xml version="1.0" encoding="UTF-8" standalone="no"?>
<!-- Created with Inkscape (http://www.inkscape.org/) -->

<svg
   width="90"
   height="40"
   viewBox="0 0 23.812499 10.583333"
   version="1.1"
   id="svg222344"
   inkscape:version="1.2.2 (732a01da63, 2022-12-09)"
   sodipodi:docname="LO.svg"
   xmlns:inkscape="http://www.inkscape.org/namespaces/inkscape"
   xmlns:sodipodi="http://sodipodi.sourceforge.net/DTD/sodipodi-0.dtd"
   xmlns="http://www.w3.org/2000/svg"
   xmlns:svg="http://www.w3.org/2000/svg">
  <sodipodi:namedview
     id="namedview222346"
     pagecolor="#ffffff"
     bordercolor="#000000"
     borderopacity="0.25"
     inkscape:showpageshadow="2"
     inkscape:pageopacity="0.0"
     inkscape:pagecheckerboard="0"
     inkscape:deskcolor="#d1d1d1"
     inkscape:document-units="mm"
     showgrid="false"
     inkscape:zoom="2.8284271"
     inkscape:cx="55.154329"
     inkscape:cy="94.045202"
     inkscape:window-width="1920"
     inkscape:window-height="1017"
     inkscape:window-x="1912"
     inkscape:window-y="88"
     inkscape:window-maximized="1"
     inkscape:current-layer="layer1" />
  <defs
     id="defs222341">
    <rect
       x="168.31396"
       y="100.47639"
       width="190.91032"
       height="81.24514"
       id="rect79151-8-1-0-667-2-3-0-9" />
    <clipPath
       clipPathUnits="userSpaceOnUse"
       id="clipPath830-1-8-8-1-1-9-0">
      <path
         inkscape:connector-curvature="0"
         d="m 618.997,356.172 h 1.586 v -65.755 h -1.586 z"
         id="path832-2-6-6-5-6-7-5" />
    </clipPath>
    <rect
       x="168.31396"
       y="100.47639"
       width="190.91032"
       height="81.24514"
       id="rect79151-8-1-0-667-2-3-0-9-0" />
    <clipPath
       clipPathUnits="userSpaceOnUse"
       id="clipPath830-1-8-8-1-1-2">
      <path
         inkscape:connector-curvature="0"
         d="m 618.997,356.172 h 1.586 v -65.755 h -1.586 z"
         id="path832-2-6-6-5-6-9" />
    </clipPath>
    <rect
       x="168.31396"
       y="100.47639"
       width="190.91032"
       height="81.24514"
       id="rect79151-8-1-0-667-2-3-0" />
    <clipPath
       clipPathUnits="userSpaceOnUse"
       id="clipPath830-1-8-8-1-1">
      <path
         inkscape:connector-curvature="0"
         d="m 618.997,356.172 h 1.586 v -65.755 h -1.586 z"
         id="path832-2-6-6-5-6" />
    </clipPath>
    <rect
       x="168.31396"
       y="100.47639"
       width="190.91032"
       height="81.24514"
       id="rect79151-8-1-0-667-2-3" />
    <clipPath
       clipPathUnits="userSpaceOnUse"
       id="clipPath830-1-8-8-1">
      <path
         inkscape:connector-curvature="0"
         d="m 618.997,356.172 h 1.586 v -65.755 h -1.586 z"
         id="path832-2-6-6-5" />
    </clipPath>
    <rect
       x="168.31396"
       y="100.47639"
       width="190.91032"
       height="81.24514"
       id="rect79151-8-1-0-667-2-3-0-3" />
    <clipPath
       clipPathUnits="userSpaceOnUse"
       id="clipPath830-1-8-8-1-1-9">
      <path
         inkscape:connector-curvature="0"
         d="m 618.997,356.172 h 1.586 v -65.755 h -1.586 z"
         id="path832-2-6-6-5-6-7" />
    </clipPath>
    <rect
       x="168.31396"
       y="100.47639"
       width="190.91032"
       height="81.24514"
       id="rect79151-8-1-0-667-2-3-0-9-6" />
    <clipPath
       clipPathUnits="userSpaceOnUse"
       id="clipPath830-1-8-8-1-1-2-6">
      <path
         inkscape:connector-curvature="0"
         d="m 618.997,356.172 h 1.586 v -65.755 h -1.586 z"
         id="path832-2-6-6-5-6-9-4" />
    </clipPath>
    <rect
       x="168.31396"
       y="100.47639"
       width="190.91032"
       height="81.24514"
       id="rect79151-8-1-0-667-2-3-0-9-6-1-9" />
    <clipPath
       clipPathUnits="userSpaceOnUse"
       id="clipPath830-1-8-8-1-1-2-6-4-4">
      <path
         inkscape:connector-curvature="0"
         d="m 618.997,356.172 h 1.586 v -65.755 h -1.586 z"
         id="path832-2-6-6-5-6-9-4-6-8" />
    </clipPath>
    <rect
       x="168.31396"
       y="100.47639"
       width="190.91032"
       height="81.24514"
       id="rect79151-8-1-0-667-2-3-0-3-4-6" />
    <clipPath
       clipPathUnits="userSpaceOnUse"
       id="clipPath830-1-8-8-1-1-9-2-2">
      <path
         inkscape:connector-curvature="0"
         d="m 618.997,356.172 h 1.586 v -65.755 h -1.586 z"
         id="path832-2-6-6-5-6-7-4-9" />
    </clipPath>
  </defs>
  <g
     inkscape:label="Capa 1"
     inkscape:groupmode="layer"
     id="layer1">
    <g
       id="g11410"
       style="display:inline"
       transform="matrix(0.83577995,0,0,0.83577995,-156.96437,-331.10071)">
      <text
         xml:space="preserve"
         transform="matrix(0.10820187,0,0,0.10820187,188.31311,395.95767)"
         id="text79149-6-2-4-6-5-6-6-9-4"
         style="font-style:normal;font-variant:normal;font-weight:normal;font-stretch:normal;font-size:13.1498px;line-height:14.2457px;font-family:Cuprum;-inkscape-font-specification:'Cuprum, Normal';font-variant-ligatures:normal;font-variant-caps:normal;font-variant-numeric:normal;font-variant-east-asian:normal;text-align:start;white-space:pre;shape-inside:url(#rect79151-8-1-0-667-2-3-0-3-4-6);shape-padding:1.91993;display:inline;fill:#ffffff;fill-opacity:1;stroke-width:3.77953"
         x="-74.904991"
         y="0"><tspan
           x="170.23438"
           y="113.13411"
           id="tspan11549">Componente</tspan></text>
      <g
         id="g834-6-5-0-3-9-8-9"
         style="fill:#ffffff;fill-opacity:1"
         transform="matrix(0.13522488,0,0,-0.13522488,118.05374,446.91151)">
        <g
           clip-path="url(#clipPath830-1-8-8-1-1-9-2-2)"
           id="g836-9-2-3-0-2-1-3"
           style="fill:#ffffff;fill-opacity:1">
          <g
             transform="translate(619.7891,351.418)"
             id="g838-2-8-0-1-4-4-1"
             style="fill:#ffffff;fill-opacity:1">
            <path
               inkscape:connector-curvature="0"
               d="m 0,0 c -0.438,0 -0.792,0.354 -0.792,0.793 v 3.168 c 0,0.438 0.354,0.793 0.792,0.793 0.438,0 0.794,-0.355 0.794,-0.793 V 0.793 C 0.794,0.354 0.438,0 0,0 m 0,-8.713 c -0.438,0 -0.792,0.354 -0.792,0.791 v 3.17 c 0,0.437 0.354,0.791 0.792,0.791 0.438,0 0.794,-0.354 0.794,-0.791 v -3.17 C 0.794,-8.359 0.438,-8.713 0,-8.713 m 0,-8.716 c -0.438,0 -0.792,0.355 -0.792,0.793 v 3.168 c 0,0.44 0.354,0.793 0.792,0.793 0.438,0 0.794,-0.353 0.794,-0.793 v -3.168 c 0,-0.438 -0.356,-0.793 -0.794,-0.793 m 0,-8.714 c -0.438,0 -0.792,0.354 -0.792,0.792 v 3.169 c 0,0.438 0.354,0.792 0.792,0.792 0.438,0 0.794,-0.354 0.794,-0.792 v -3.169 c 0,-0.438 -0.356,-0.792 -0.794,-0.792 m 0,-8.714 c -0.438,0 -0.792,0.354 -0.792,0.792 v 3.169 c 0,0.438 0.354,0.792 0.792,0.792 0.438,0 0.794,-0.354 0.794,-0.792 v -3.169 c 0,-0.438 -0.356,-0.792 -0.794,-0.792 m 0,-8.714 c -0.438,0 -0.792,0.353 -0.792,0.791 v 3.17 c 0,0.436 0.354,0.792 0.792,0.792 0.438,0 0.794,-0.356 0.794,-0.792 v -3.17 c 0,-0.438 -0.356,-0.791 -0.794,-0.791 m 0,-8.715 c -0.438,0 -0.792,0.354 -0.792,0.792 v 3.169 c 0,0.438 0.354,0.792 0.792,0.792 0.438,0 0.794,-0.354 0.794,-0.792 v -3.169 c 0,-0.438 -0.356,-0.792 -0.794,-0.792 m 0,-8.715 c -0.438,0 -0.792,0.355 -0.792,0.793 v 3.169 c 0,0.437 0.354,0.792 0.792,0.792 0.438,0 0.794,-0.355 0.794,-0.792 v -3.169 c 0,-0.438 -0.356,-0.793 -0.794,-0.793"
               style="fill:#ffffff;fill-opacity:1;fill-rule:nonzero;stroke:none"
               id="path840-1-8-7-9-8-7-5" />
          </g>
        </g>
      </g>
      <text
         id="text244-5-4-9-3-9-6-0-7-8-4"
         style="font-size:10.8704px;line-height:0%;font-family:Roboto;-inkscape-font-specification:Roboto;fill:#ffffff;fill-opacity:1;stroke-width:0.177808"
         x="190.41902"
         y="407.55307"><tspan
           style="font-style:normal;font-variant:normal;font-weight:normal;font-stretch:normal;font-size:10.8704px;line-height:1.25;font-family:Oswald;-inkscape-font-specification:Oswald;writing-mode:lr-tb;fill:#ffffff;fill-opacity:1;fill-rule:nonzero;stroke:none;stroke-width:0.177808"
           sodipodi:role="line"
           id="tspan246-2-6-0-5-7-9-4-1-2-3"
           x="190.41902"
           y="407.55307">Lo</tspan></text>
      <g
         transform="matrix(0.01955323,0,0,0.01955323,204.57001,396.50891)"
         id="g3-90-1"
         style="display:inline;fill:#ffffff">
        <path
           style="fill:#ffffff"
           inkscape:connector-curvature="0"
           d="m 282.419,82.49 c 11.812,-8.092 19.564,-21.676 19.564,-37.075 0,-24.806 -20.109,-44.915 -44.915,-44.915 -24.805,0 -44.916,20.109 -44.916,44.915 0,15.206 7.563,28.637 19.126,36.763 C 123.607,94.209 39.892,185.525 39.892,296.409 39.892,415.477 136.416,512 255.482,512 374.549,512 471.074,415.477 471.074,296.409 471.074,186.463 388.773,95.747 282.419,82.49 Z M 257.407,26.921 c 10.61,0 19.212,8.602 19.212,19.212 0,10.61 -8.601,19.212 -19.212,19.212 -10.61,0 -19.211,-8.602 -19.211,-19.212 0,-10.611 8.602,-19.212 19.211,-19.212 z m -1.805,447.81 c -98.576,0 -178.485,-79.91 -178.485,-178.484 0,-98.575 79.91,-178.486 178.485,-178.486 98.573,0 178.484,79.911 178.484,178.486 0,98.574 -79.911,178.484 -178.484,178.484 z"
           id="path5-8-2" />
        <path
           style="fill:#ffffff"
           inkscape:connector-curvature="0"
           d="m 361.149,169.247 -66.01,159.448 -143.979,94.351 67.121,-157.153 -0.238,-0.192 143.106,-96.454 c -0.067,-0.056 -0.133,-0.112 -0.199,-0.167 -70.563,-57.874 -174.681,-47.587 -232.555,22.977 -57.874,70.563 -47.586,174.682 22.977,232.556 70.563,57.873 174.681,47.586 232.555,-22.979 57.819,-70.495 47.603,-174.482 -22.778,-232.387 z"
           id="path7-3-4" />
        <polygon
           style="fill:#ffffff"
           points="199.508,366.644 276.355,318.029 230.589,281.188 "
           id="polygon9-3" />
      </g>
    </g>
  </g>
</svg>
