<?xml version="1.0" encoding="UTF-8" standalone="no"?>
<!-- Created with Inkscape (http://www.inkscape.org/) -->

<svg
   width="90"
   height="40"
   viewBox="0 0 23.812499 10.583333"
   version="1.1"
   id="svg222344"
   inkscape:version="1.2.2 (732a01da63, 2022-12-09)"
   sodipodi:docname="UP.svg"
   xmlns:inkscape="http://www.inkscape.org/namespaces/inkscape"
   xmlns:sodipodi="http://sodipodi.sourceforge.net/DTD/sodipodi-0.dtd"
   xmlns="http://www.w3.org/2000/svg"
   xmlns:svg="http://www.w3.org/2000/svg">
  <sodipodi:namedview
     id="namedview222346"
     pagecolor="#ffffff"
     bordercolor="#000000"
     borderopacity="0.25"
     inkscape:showpageshadow="2"
     inkscape:pageopacity="0.0"
     inkscape:pagecheckerboard="0"
     inkscape:deskcolor="#d1d1d1"
     inkscape:document-units="mm"
     showgrid="false"
     inkscape:zoom="2.8284271"
     inkscape:cx="55.154329"
     inkscape:cy="94.045202"
     inkscape:window-width="1920"
     inkscape:window-height="1017"
     inkscape:window-x="1912"
     inkscape:window-y="88"
     inkscape:window-maximized="1"
     inkscape:current-layer="layer1" />
  <defs
     id="defs222341">
    <rect
       x="168.31396"
       y="100.47639"
       width="190.91032"
       height="81.24514"
       id="rect79151-8-1-0-667-2-3-0-9" />
    <clipPath
       clipPathUnits="userSpaceOnUse"
       id="clipPath830-1-8-8-1-1-9-0">
      <path
         inkscape:connector-curvature="0"
         d="m 618.997,356.172 h 1.586 v -65.755 h -1.586 z"
         id="path832-2-6-6-5-6-7-5" />
    </clipPath>
    <rect
       x="168.31396"
       y="100.47639"
       width="190.91032"
       height="81.24514"
       id="rect79151-8-1-0-667-2-3-0-9-0" />
    <clipPath
       clipPathUnits="userSpaceOnUse"
       id="clipPath830-1-8-8-1-1-2">
      <path
         inkscape:connector-curvature="0"
         d="m 618.997,356.172 h 1.586 v -65.755 h -1.586 z"
         id="path832-2-6-6-5-6-9" />
    </clipPath>
    <rect
       x="168.31396"
       y="100.47639"
       width="190.91032"
       height="81.24514"
       id="rect79151-8-1-0-667-2-3-0" />
    <clipPath
       clipPathUnits="userSpaceOnUse"
       id="clipPath830-1-8-8-1-1">
      <path
         inkscape:connector-curvature="0"
         d="m 618.997,356.172 h 1.586 v -65.755 h -1.586 z"
         id="path832-2-6-6-5-6" />
    </clipPath>
    <rect
       x="168.31396"
       y="100.47639"
       width="190.91032"
       height="81.24514"
       id="rect79151-8-1-0-667-2-3" />
    <clipPath
       clipPathUnits="userSpaceOnUse"
       id="clipPath830-1-8-8-1">
      <path
         inkscape:connector-curvature="0"
         d="m 618.997,356.172 h 1.586 v -65.755 h -1.586 z"
         id="path832-2-6-6-5" />
    </clipPath>
  </defs>
  <g
     inkscape:label="Capa 1"
     inkscape:groupmode="layer"
     id="layer1">
    <g
       id="g10383"
       style="display:inline"
       transform="translate(-12.136639,-308.72259)">
      <text
         xml:space="preserve"
         transform="matrix(0.10820187,0,0,0.10820187,10.132652,306.31958)"
         id="text79149-6-2-4-6-5"
         style="font-style:normal;font-variant:normal;font-weight:normal;font-stretch:normal;font-size:13.1498px;line-height:14.2457px;font-family:Cuprum;-inkscape-font-specification:'Cuprum, Normal';font-variant-ligatures:normal;font-variant-caps:normal;font-variant-numeric:normal;font-variant-east-asian:normal;text-align:start;white-space:pre;shape-inside:url(#rect79151-8-1-0-667-2-3);shape-padding:1.91993;display:inline;fill:#ffffff;fill-opacity:1;stroke-width:3.77953"
         x="-74.904991"
         y="0"><tspan
           x="170.23438"
           y="113.13411"
           id="tspan10812">Componente</tspan></text>
      <g
         id="g834-6-5-0"
         style="fill:#ffffff;fill-opacity:1"
         transform="matrix(0.13522488,0,0,-0.13522488,-58.871206,357.27342)">
        <g
           clip-path="url(#clipPath830-1-8-8-1)"
           id="g836-9-2-3"
           style="fill:#ffffff;fill-opacity:1">
          <g
             transform="translate(619.7891,351.418)"
             id="g838-2-8-0"
             style="fill:#ffffff;fill-opacity:1">
            <path
               inkscape:connector-curvature="0"
               d="m 0,0 c -0.438,0 -0.792,0.354 -0.792,0.793 v 3.168 c 0,0.438 0.354,0.793 0.792,0.793 0.438,0 0.794,-0.355 0.794,-0.793 V 0.793 C 0.794,0.354 0.438,0 0,0 m 0,-8.713 c -0.438,0 -0.792,0.354 -0.792,0.791 v 3.17 c 0,0.437 0.354,0.791 0.792,0.791 0.438,0 0.794,-0.354 0.794,-0.791 v -3.17 C 0.794,-8.359 0.438,-8.713 0,-8.713 m 0,-8.716 c -0.438,0 -0.792,0.355 -0.792,0.793 v 3.168 c 0,0.44 0.354,0.793 0.792,0.793 0.438,0 0.794,-0.353 0.794,-0.793 v -3.168 c 0,-0.438 -0.356,-0.793 -0.794,-0.793 m 0,-8.714 c -0.438,0 -0.792,0.354 -0.792,0.792 v 3.169 c 0,0.438 0.354,0.792 0.792,0.792 0.438,0 0.794,-0.354 0.794,-0.792 v -3.169 c 0,-0.438 -0.356,-0.792 -0.794,-0.792 m 0,-8.714 c -0.438,0 -0.792,0.354 -0.792,0.792 v 3.169 c 0,0.438 0.354,0.792 0.792,0.792 0.438,0 0.794,-0.354 0.794,-0.792 v -3.169 c 0,-0.438 -0.356,-0.792 -0.794,-0.792 m 0,-8.714 c -0.438,0 -0.792,0.353 -0.792,0.791 v 3.17 c 0,0.436 0.354,0.792 0.792,0.792 0.438,0 0.794,-0.356 0.794,-0.792 v -3.17 c 0,-0.438 -0.356,-0.791 -0.794,-0.791 m 0,-8.715 c -0.438,0 -0.792,0.354 -0.792,0.792 v 3.169 c 0,0.438 0.354,0.792 0.792,0.792 0.438,0 0.794,-0.354 0.794,-0.792 v -3.169 c 0,-0.438 -0.356,-0.792 -0.794,-0.792 m 0,-8.715 c -0.438,0 -0.792,0.355 -0.792,0.793 v 3.169 c 0,0.437 0.354,0.792 0.792,0.792 0.438,0 0.794,-0.355 0.794,-0.792 v -3.169 c 0,-0.438 -0.356,-0.793 -0.794,-0.793"
               style="fill:#ffffff;fill-opacity:1;fill-rule:nonzero;stroke:none"
               id="path840-1-8-7" />
          </g>
        </g>
      </g>
      <text
         id="text244-5-4-9-3-9-6"
         style="font-size:10.8704px;line-height:0%;font-family:Roboto;-inkscape-font-specification:Roboto;fill:#ffffff;fill-opacity:1;stroke-width:0.177808"
         x="12.238554"
         y="317.91498"><tspan
           style="font-style:normal;font-variant:normal;font-weight:normal;font-stretch:normal;font-size:10.8704px;line-height:1.25;font-family:Oswald;-inkscape-font-specification:Oswald;writing-mode:lr-tb;fill:#ffffff;fill-opacity:1;fill-rule:nonzero;stroke:none;stroke-width:0.177808"
           sodipodi:role="line"
           id="tspan246-2-6-0-5-7-9"
           x="12.238554"
           y="317.91498">UP</tspan></text>
      <g
         id="g235137">
        <path
           d="m 29.6261,316.12163 c 0.09277,-0.18556 0.09277,-0.25978 0.343275,-0.2505 0.06494,0 0.23194,0.11133 0.204107,-0.0371 -0.03711,-0.15772 -0.213386,-0.39894 -0.111332,-0.56594 0.259776,-0.43605 0.538106,-0.24122 0.844273,-0.46388 0.157719,-0.10205 0.361829,-0.38966 0.39894,-0.54739 0.0093,-0.0557 0.27833,-0.25977 0.352551,-0.334 0.380387,-0.46388 -0.03711,-0.32471 -0.03711,-0.46388 0,-0.36183 -0.07422,0.0464 -0.194831,-0.0835 -0.0835,-0.0835 0.148444,-0.8721 0.09278,-1.13188 -0.03711,-0.12988 0.06495,-0.27833 -0.01856,-0.38966 -0.03711,-0.0742 -0.157722,-0.12061 -0.185555,-0.21339 -0.129887,-0.33399 0.222664,-0.21339 0.287608,-0.38038 0.07422,-0.19483 -0.27833,-0.43605 -0.185552,-0.64017 0.157719,-0.35254 0.120608,-0.28761 -0.09278,-0.51954 -0.03711,-0.0557 -0.194831,-0.18556 -0.194831,-0.19484 -0.03711,-0.0649 0.120611,-0.12988 0.01856,-0.26905 -0.09741,-0.13916 -0.148444,-0.18555 -0.162359,-0.22266 h 3.905909 c 0,3.13251 -0.05966,6.32559 -3.608859,7.66323 -0.667993,-0.2505 -1.215543,-0.57044 -1.660871,-0.94154 z"
           style="fill:none;stroke:#ffffff;stroke-width:0.107784;stroke-dasharray:none;stroke-opacity:1"
           id="path22"
           inkscape:connector-curvature="0" />
        <path
           d="m 29.6261,316.12163 c 0.09277,-0.18556 0.09277,-0.25978 0.343275,-0.2505 0.06494,0 0.23194,0.11133 0.204107,-0.0371 -0.03711,-0.15772 -0.213386,-0.39894 -0.111332,-0.56594 0.259776,-0.43605 0.538106,-0.24122 0.844273,-0.46388 0.157719,-0.10205 0.361829,-0.38966 0.39894,-0.54739 0.0093,-0.0557 0.27833,-0.25977 0.352551,-0.334 0.380387,-0.46388 -0.03711,-0.32471 -0.03711,-0.46388 0,-0.36183 -0.07422,0.0464 -0.194831,-0.0835 -0.0835,-0.0835 0.148444,-0.8721 0.09278,-1.13188 -0.03711,-0.12988 0.06495,-0.27833 -0.01856,-0.38966 -0.03711,-0.0742 -0.157722,-0.12061 -0.185555,-0.21339 -0.129887,-0.33399 0.222664,-0.21339 0.287608,-0.38038 0.07422,-0.19483 -0.27833,-0.43605 -0.185552,-0.64017 0.157719,-0.35254 0.120608,-0.28761 -0.09278,-0.51954 -0.03711,-0.0557 -0.194831,-0.18556 -0.194831,-0.19484 -0.03711,-0.0649 0.120611,-0.12988 0.01856,-0.26905 -0.09741,-0.13916 -0.148444,-0.18555 -0.162359,-0.22266 h -3.312139 c 0,2.11531 -0.115971,4.97748 1.948318,6.72169 z"
           style="fill:none;stroke:#ffffff;stroke-width:0.107784;stroke-dasharray:none;stroke-opacity:1"
           id="path34"
           inkscape:connector-curvature="0" />
        <path
           d="m 30.075745,315.19928 c 0.04538,-0.0988 0.0694,-0.1388 0.226887,-0.13347 0.04805,0 0.170833,0.0801 0.149479,-0.0267 1.122136,-0.7508 0.575395,-0.73476 1.252282,-1.13949 0.272266,-0.33633 -0.08073,-0.48611 -0.08971,-0.58179 -0.0084,-0.0894 -0.08697,0.15687 -0.177726,0.0608 -0.06406,-0.0587 0.006,0.0124 -0.03137,-0.17978 -0.03204,-0.0961 0.194993,-0.68988 0.130931,-0.77529 -0.02669,-0.048 1.09e-4,-0.45794 -0.01591,-0.53268 -0.101432,-0.24023 -0.266945,-0.31549 -0.224237,-0.43828 0.05873,-0.1388 0.216979,0.0305 0.286379,-0.12438 0.11211,-0.25625 0.08236,-0.2082 -0.0778,-0.37369 -0.02455,-0.0401 -0.06764,-0.22199 -0.105214,-0.2743 -0.02669,-0.0534 0.05323,-0.13147 0.11704,-0.27488 -0.04271,-0.0667 -0.304425,-0.0241 -0.448081,-0.0214 -1.35865,0.0427 -2.447707,1.15845 -2.447707,2.52511 0,1.01165 0.595245,1.88449 1.454745,2.29022 z"
           style="fill:none;stroke:#ffffff;stroke-width:0.107784;stroke-dasharray:none;stroke-opacity:1"
           id="path46"
           inkscape:connector-curvature="0"
           sodipodi:nodetypes="ccccsccccccccccscc" />
        <path
           d="m 30.722132,313.75367 c -0.01518,-0.32631 -0.288369,-0.6033 -0.629857,-0.6033 -0.330109,0 -0.61089,0.27699 -0.626068,0.6033 z"
           style="fill:none;stroke:#ffffff;stroke-width:0.107784;stroke-dasharray:none;stroke-opacity:1"
           id="path58"
           inkscape:connector-curvature="0" />
        <path
           d="m 31.80624,313.75213 h -3.04519 c 0.218876,0.64596 0.691337,1.17715 1.313274,1.44941 0.03926,-0.0855 0.667338,0.004 0.940679,-0.4932 0.225423,-0.40945 0.754267,-0.92492 0.791237,-0.95621 z"
           style="fill:none;stroke:#ffffff;stroke-width:0.107784;stroke-dasharray:none;stroke-opacity:1"
           id="path76"
           inkscape:connector-curvature="0"
           sodipodi:nodetypes="cccsc" />
        <path
           d="m 28.166222,311.92999 -0.07533,0.19941 0.239293,0.0931 c 0.04874,0.0177 0.08863,0.0222 0.124079,0.004 0.05318,-0.0222 0.09749,-0.0842 0.132941,-0.18169 0.06647,-0.16839 0.04874,-0.25702 -0.07533,-0.30576 l -0.239297,-0.0886 -0.07533,0.19941 0.22157,0.0886 c 0.04431,0.0133 0.06204,0.0266 0.04874,0.062 -0.01329,0.031 -0.03545,0.031 -0.07976,0.0133 z m 0.527334,-0.19499 0.106353,-0.17725 -0.115215,-0.0665 c -0.0089,-0.004 -0.02216,-0.0177 -0.05761,-0.031 0.02216,0 0.04431,0 0.06647,-0.004 l 0.177256,-0.0266 0.09306,-0.16396 -0.363373,-0.20828 -0.10192,0.17726 0.09306,0.0532 c 0.01772,0.0133 0.03545,0.0222 0.06204,0.0355 -0.03102,0 -0.05318,0 -0.07533,0.004 l -0.137374,0.009 -0.110785,0.18612 z m 0.332355,-0.5229 0.146235,-0.15953 -0.310196,-0.28804 -0.146235,0.15953 z m 0.26145,-0.27032 0.226002,-0.20384 -0.181688,-0.40325 -0.163961,0.14623 0.09306,0.17283 c 0.01329,0.0266 0.02659,0.0487 0.04431,0.0753 -0.02216,-0.0177 -0.04874,-0.0355 -0.0709,-0.0532 l -0.163961,-0.10635 -0.168391,0.15067 z m 0.354511,-0.31462 0.420981,-0.20385 -0.04874,-0.10192 -0.230432,0.11522 -0.01773,-0.0354 0.230432,-0.11522 -0.03988,-0.0842 -0.234865,0.11522 -0.01329,-0.0354 0.230432,-0.11522 -0.05761,-0.11964 -0.425413,0.20384 z m 0.483022,-0.24816 0.208274,-0.0576 -0.01772,-0.0665 c -0.0044,-0.0222 -0.01329,-0.0399 -0.01773,-0.062 0.01329,0.0177 0.02659,0.0266 0.03102,0.031 l 0.09749,0.0753 0.239297,-0.0665 -0.18612,-0.12852 c 0.07977,-0.031 0.115217,-0.0842 0.09306,-0.15953 -0.01773,-0.0753 -0.07977,-0.10192 -0.168394,-0.0753 l -0.385531,0.10192 z m 0.155097,-0.26588 -0.02659,-0.0842 0.04432,-0.009 c 0.04874,-0.0133 0.0709,-0.0133 0.07976,0.0133 0.0089,0.0355 -0.01329,0.0532 -0.06204,0.0665 z m 0.868551,-0.33236 c -0.0842,-0.009 -0.150667,-0.0133 -0.208276,-0.009 -0.181685,0.009 -0.265881,0.0665 -0.25702,0.17726 0,0.0798 0.04875,0.11521 0.146238,0.11964 0.03545,0.004 0.0709,-0.004 0.101921,0 0.01773,-0.004 0.02659,0.004 0.02659,0.0177 0.0044,0.0133 -0.01329,0.0177 -0.03988,0.0177 -0.05761,0 -0.128509,0 -0.212706,-0.009 l 0.0044,0.11965 c 0.07977,0.0133 0.155099,0.0133 0.226002,0.009 0.168391,-0.009 0.248155,-0.0709 0.243726,-0.17282 -0.0044,-0.0842 -0.05761,-0.11522 -0.177256,-0.11079 -0.06647,0.004 -0.09749,0.009 -0.09749,-0.0177 0,-0.0133 0.02659,-0.0177 0.07976,-0.0177 0.04875,-0.004 0.106353,0 0.168394,0 z"
           style="fill:#ffffff;fill-opacity:1;fill-rule:evenodd;stroke:none;stroke-width:0.107784;stroke-dasharray:none;stroke-opacity:1"
           id="path80"
           inkscape:connector-curvature="0" />
        <path
           d="m 31.245117,310.20343 0.217138,0.009 0.02216,-0.42098 -0.217138,-0.009 z m 0.292473,0.009 0.274743,0.0709 c 0.101924,0.0266 0.177256,0.0266 0.243726,-0.0222 0.03988,-0.0266 0.06647,-0.0709 0.07977,-0.12408 0.03545,-0.12408 -0.02659,-0.20827 -0.181685,-0.25259 l -0.310196,-0.0842 z m 0.239293,-0.0709 0.03988,-0.14623 c 0.0089,0.004 0.01329,0.009 0.01773,0.009 0.07533,0.0177 0.101921,0.0443 0.08863,0.0975 -0.01329,0.0443 -0.05761,0.062 -0.128509,0.0443 -0.0044,-0.004 -0.01329,-0.004 -0.01773,-0.004 z m 0.305765,0.22157 0.199414,0.0975 0.03988,-0.0399 0.119647,0.0576 -0.0089,0.0532 0.194982,0.0931 0.06647,-0.43427 -0.301335,-0.14624 z m 0.310196,-0.0399 0.06204,-0.062 c 0.01329,-0.0177 0.03102,-0.0354 0.04432,-0.0576 -0.0044,0.0266 -0.0089,0.0487 -0.01329,0.0709 l -0.01329,0.0842 z m 0.265885,0.31906 0.217138,0.19055 c 0.07976,0.0753 0.141802,0.11078 0.225999,0.0931 0.04874,-0.004 0.08863,-0.031 0.128512,-0.0709 0.08863,-0.0975 0.0709,-0.20384 -0.04432,-0.31019 l -0.243726,-0.21271 z m 0.252588,0.0532 0.09749,-0.11521 c 0.0044,0.004 0.01329,0.0133 0.01329,0.0177 0.05761,0.0487 0.06647,0.0842 0.03545,0.12408 -0.03545,0.0355 -0.07977,0.031 -0.137374,-0.0177 -0.0044,-0.004 -0.0089,-0.009 -0.0089,-0.009 z"
           style="fill:#ffffff;fill-opacity:1;fill-rule:evenodd;stroke:none;stroke-width:0.107784;stroke-dasharray:none;stroke-opacity:1"
           id="path82"
           inkscape:connector-curvature="0" />
        <path
           d="m 30.296624,315.95366 0.279179,0.0532 c 0.106352,0.0177 0.177256,0.0133 0.243726,-0.0399 0.03545,-0.0266 0.06204,-0.0753 0.07091,-0.12852 0.02658,-0.12851 -0.04432,-0.20827 -0.194982,-0.23929 l -0.319059,-0.0621 z m 0.234864,-0.0886 0.02659,-0.14624 c 0.0089,0.004 0.01773,0.004 0.02215,0.004 0.07534,0.0133 0.101924,0.0399 0.09306,0.0931 -0.0089,0.0443 -0.05318,0.0665 -0.128512,0.0531 -0.0045,0 -0.0089,-0.004 -0.01329,-0.004 z m 0.434276,0.19498 0.469726,-0.0177 -0.0045,-0.11079 -0.261452,0.009 v -0.0355 l 0.261452,-0.0133 -0.0045,-0.0931 -0.257019,0.009 -0.0045,-0.0399 0.261453,-0.009 -0.0089,-0.13737 -0.469729,0.0177 z m 0.593805,-0.0355 0.38996,-0.0709 -0.03102,-0.15067 -0.172826,0.0355 -0.05318,-0.26588 -0.212706,0.0399 z m 0.682434,-0.16839 0.194979,-0.0842 -0.03545,-0.0842 0.106352,-0.0488 c 0.12408,-0.0531 0.168394,-0.14624 0.12408,-0.24816 -0.03988,-0.0931 -0.119647,-0.11522 -0.230432,-0.062 l -0.332352,0.14623 z m 0.110785,-0.27474 -0.03545,-0.0798 0.03988,-0.0177 c 0.04874,-0.0222 0.07534,-0.0266 0.08863,0.004 0.01329,0.0355 -0.0089,0.0531 -0.05318,0.0753 z m 0.407687,0.0355 0.177256,-0.12851 -0.0133,-0.0531 0.106357,-0.0753 0.04431,0.0355 0.177256,-0.12852 -0.35008,-0.26588 -0.270313,0.18612 z m 0.115215,-0.29247 -0.02659,-0.0842 c -0.0089,-0.0177 -0.01772,-0.0399 -0.02658,-0.0665 0.01773,0.0177 0.03545,0.0355 0.05318,0.0488 l 0.06647,0.0531 z m 0.744472,-0.47859 -0.101921,-0.10193 c -0.03102,0.0488 -0.06647,0.0931 -0.101923,0.12851 -0.04431,0.0488 -0.0842,0.0576 -0.110785,0.031 -0.03545,-0.031 -0.02215,-0.0709 0.03102,-0.12852 0.02658,-0.0266 0.06204,-0.0576 0.115218,-0.0931 l -0.11965,-0.11521 c -0.06204,0.0488 -0.115215,0.0886 -0.155097,0.12851 -0.132941,0.14181 -0.146235,0.25702 -0.03545,0.35894 0.106355,0.10636 0.226002,0.0931 0.358943,-0.0488 0.03988,-0.0399 0.07977,-0.0931 0.119647,-0.15952 z m 0.06204,-0.0931 0.128509,-0.17726 -0.341217,-0.24815 -0.128509,0.17725 z m 0.208273,-0.28361 0.0842,-0.19498 -0.09749,-0.0443 0.101924,-0.226 -0.115218,-0.0531 -0.10192,0.226 -0.03545,-0.0133 0.101923,-0.226 -0.137373,-0.062 -0.19055,0.42541 z m 0.230432,-0.5362 0.06204,-0.20827 -0.403258,-0.11965 -0.06204,0.20384 z m 0.159529,-0.79321 -0.141802,-0.0266 c 0.0045,0.0576 0,0.11078 -0.0089,0.16396 -0.01329,0.0665 -0.03988,0.0931 -0.07977,0.0842 -0.03988,-0.004 -0.05318,-0.0488 -0.03988,-0.11966 0.0045,-0.0399 0.01773,-0.0842 0.03988,-0.14179 l -0.163958,-0.031 c -0.02216,0.0753 -0.04431,0.13738 -0.05318,0.19499 -0.03102,0.19055 0.02216,0.29247 0.168393,0.31906 0.150668,0.0266 0.234865,-0.0531 0.270315,-0.2393 0.01329,-0.062 0.01329,-0.12851 0.0089,-0.20384 z m 0.01772,-0.3944 c 0,-0.19498 -0.07976,-0.28804 -0.225999,-0.2836 -0.1551,0 -0.221571,0.0975 -0.217138,0.29246 0,0.19055 0.07533,0.28361 0.225999,0.27918 0.150668,0 0.221571,-0.0931 0.217138,-0.28804 z m -0.128508,0.004 c 0,0.0399 -0.03102,0.0665 -0.0842,0.0665 -0.05761,0 -0.08863,-0.0177 -0.08863,-0.0665 0,-0.0443 0.03102,-0.0665 0.08863,-0.0709 0.05318,0 0.0842,0.0266 0.0842,0.0709 z"
           style="fill:#ffffff;fill-opacity:1;fill-rule:evenodd;stroke:none;stroke-width:0.107784;stroke-dasharray:none;stroke-opacity:1"
           id="path84"
           inkscape:connector-curvature="0" />
        <path
           d="m 29.614896,311.91516 h 0.477973 l -0.08597,-0.086 z"
           style="fill:none;fill-rule:evenodd;stroke:#ffffff;stroke-width:0.107784;stroke-dasharray:none;stroke-opacity:1"
           id="path88"
           inkscape:connector-curvature="0" />
        <path
           d="m 30.092848,311.43721 v 0.47797 l 0.08596,-0.086 z"
           style="fill:none;fill-rule:evenodd;stroke:#ffffff;stroke-width:0.107784;stroke-dasharray:none;stroke-opacity:1"
           id="path90"
           inkscape:connector-curvature="0" />
        <path
           d="m 30.570799,311.91516 h -0.477972 l 0.08597,0.086 z"
           style="fill:none;fill-rule:evenodd;stroke:#ffffff;stroke-width:0.107784;stroke-dasharray:none;stroke-opacity:1"
           id="path92"
           inkscape:connector-curvature="0" />
        <path
           d="m 30.092848,312.39682 v -0.47797 l -0.08597,0.086 z"
           style="fill:none;fill-rule:evenodd;stroke:#ffffff;stroke-width:0.107784;stroke-dasharray:none;stroke-opacity:1"
           id="path94"
           inkscape:connector-curvature="0" />
        <path
           d="m 29.614896,311.91516 h 0.477973 l -0.08597,0.086 z"
           style="fill:none;fill-rule:evenodd;stroke:#ffffff;stroke-width:0.107784;stroke-dasharray:none;stroke-opacity:1"
           id="path96"
           inkscape:connector-curvature="0" />
        <path
           d="m 30.092848,311.43721 v 0.47797 l -0.08597,-0.086 z"
           style="fill:none;fill-rule:evenodd;stroke:#ffffff;stroke-width:0.107784;stroke-dasharray:none;stroke-opacity:1"
           id="path98"
           inkscape:connector-curvature="0" />
        <path
           d="m 30.570799,311.91516 h -0.477972 l 0.08597,-0.086 z"
           style="fill:none;fill-rule:evenodd;stroke:#ffffff;stroke-width:0.107784;stroke-dasharray:none;stroke-opacity:1"
           id="path100"
           inkscape:connector-curvature="0" />
        <path
           d="m 30.092848,312.39682 v -0.47797 l 0.08596,0.086 z"
           style="fill:none;fill-rule:evenodd;stroke:#ffffff;stroke-width:0.107784;stroke-dasharray:none;stroke-opacity:1"
           id="path102"
           inkscape:connector-curvature="0" />
        <path
           d="m 29.751983,312.25603 0.337976,-0.33798 h -0.121572 z"
           style="fill:none;fill-rule:evenodd;stroke:#ffffff;stroke-width:0.107784;stroke-dasharray:none;stroke-opacity:1"
           id="path104"
           inkscape:connector-curvature="0" />
        <path
           d="m 29.755688,311.57801 0.337976,0.33797 v -0.12157 z"
           style="fill:none;fill-rule:evenodd;stroke:#ffffff;stroke-width:0.107784;stroke-dasharray:none;stroke-opacity:1"
           id="path106"
           inkscape:connector-curvature="0" />
        <path
           d="m 30.430005,311.57801 -0.337976,0.33797 h 0.121572 z"
           style="fill:none;fill-rule:evenodd;stroke:#ffffff;stroke-width:0.107784;stroke-dasharray:none;stroke-opacity:1"
           id="path108"
           inkscape:connector-curvature="0" />
        <path
           d="m 30.430005,312.25603 -0.337976,-0.33798 v 0.12157 z"
           style="fill:none;fill-rule:evenodd;stroke:#ffffff;stroke-width:0.107784;stroke-dasharray:none;stroke-opacity:1"
           id="path110"
           inkscape:connector-curvature="0" />
        <path
           d="m 29.751983,312.25603 0.337976,-0.33798 v 0.12157 z"
           style="fill:none;fill-rule:evenodd;stroke:#ffffff;stroke-width:0.107784;stroke-dasharray:none;stroke-opacity:1"
           id="path112"
           inkscape:connector-curvature="0" />
        <path
           d="m 29.755688,311.57801 0.337976,0.33797 h -0.121572 z"
           style="fill:none;fill-rule:evenodd;stroke:#ffffff;stroke-width:0.107784;stroke-dasharray:none;stroke-opacity:1"
           id="path114"
           inkscape:connector-curvature="0" />
        <path
           d="m 30.430005,311.57801 -0.337976,0.33797 v -0.12157 z"
           style="fill:none;fill-rule:evenodd;stroke:#ffffff;stroke-width:0.107784;stroke-dasharray:none;stroke-opacity:1"
           id="path116"
           inkscape:connector-curvature="0" />
        <path
           d="m 30.430005,312.25603 -0.337976,-0.33798 h 0.121572 z"
           style="fill:none;fill-rule:evenodd;stroke:#ffffff;stroke-width:0.107784;stroke-dasharray:none;stroke-opacity:1"
           id="path118"
           inkscape:connector-curvature="0" />
        <path
           d="m 31.505094,310.40136 c 1.219476,0.17978 2.160657,1.23498 2.160657,2.50306 0,0.002 -8.9e-5,0.005 -8.9e-5,0.007 h -2.209829 c 0.04207,-0.24943 0.09217,-0.53174 0.06292,-0.66819 -0.03711,-0.12989 0.06494,-0.27833 -0.01855,-0.38967 -0.03711,-0.0742 -0.15772,-0.1206 -0.185556,-0.21337 -0.129881,-0.334 0.22267,-0.2134 0.287612,-0.38039 0.07422,-0.19483 -0.278333,-0.43605 -0.185555,-0.64017 0.04568,-0.1021 0.07496,-0.16915 0.0884,-0.21858 z"
           style="fill:none;stroke:#ffffff;stroke-width:0.107784;stroke-dasharray:none;stroke-opacity:1"
           id="path128"
           inkscape:connector-curvature="0" />
        <path
           d="m 33.665656,312.91173 c -0.0039,1.39024 -1.138969,2.52289 -2.530103,2.52289 -0.369245,0 -0.72043,-0.0798 -1.037232,-0.22307 0.249415,-0.36239 0.516095,-0.19498 0.808105,-0.40736 0.157716,-0.10205 0.361828,-0.38966 0.398934,-0.54738 0.0093,-0.0557 0.278331,-0.25977 0.352557,-0.334 0.380387,-0.46389 -0.03711,-0.32472 -0.03711,-0.46389 0,-0.36182 -0.07422,0.0464 -0.194831,-0.0835 -0.03964,-0.0396 -0.0082,-0.23824 0.02986,-0.46369 z"
           style="fill:none;stroke:#ffffff;stroke-width:0.107784;stroke-dasharray:none;stroke-opacity:1"
           id="path138"
           inkscape:connector-curvature="0" />
      </g>
    </g>
  </g>
</svg>
